<svg width="63" height="63" viewBox="0 0 63 63" fill="none" xmlns="http://www.w3.org/2000/svg">
<g id="Group5.svg">
<g id="Marshmello_landing-page">
<g id="Simple_landngpage">
<g id="Group-5">
<path id="Fill-1" fill-rule="evenodd" clip-rule="evenodd" d="M59.31 55.67C59.31 57.8792 57.5191 59.67 55.31 59.67H7.31C5.10087 59.67 3.31 57.8792 3.31 55.67V54.67C3.31 54.1178 3.75775 53.67 4.31 53.67H23.31V54.67C23.31 56.3269 24.6531 57.67 26.31 57.67H36.31C37.9669 57.67 39.31 56.3269 39.31 54.67V53.67H58.31C58.8622 53.67 59.31 54.1178 59.31 54.67V55.67ZM25.31 53.67H37.31V54.67C37.31 55.2223 36.8622 55.67 36.31 55.67H26.31C25.7577 55.67 25.31 55.2223 25.31 54.67V53.67ZM5.31 20.67C5.31 20.1178 5.75775 19.67 6.31 19.67H15.31V36.67H8.31C7.75775 36.67 7.31 37.1178 7.31 37.67V41.67C7.31325 44.9824 9.99762 47.6668 13.31 47.67H41.31C44.6224 47.6668 47.3067 44.9824 47.31 41.67V19.67H56.31C56.8622 19.67 57.31 20.1178 57.31 20.67V51.67H5.31V20.67ZM35.31 38.67V41.67C35.3104 43.148 35.8592 44.5734 36.85 45.67H13.31C11.1009 45.67 9.31 43.8792 9.31 41.67V38.67H35.31ZM21.31 3.67004H46.85C45.8592 4.76667 45.3104 6.19204 45.31 7.67004V41.67C45.31 43.8792 43.5191 45.67 41.31 45.67C39.1009 45.67 37.31 43.8792 37.31 41.67V37.67C37.31 37.1178 36.8622 36.67 36.31 36.67H17.31V7.67004C17.31 5.46092 19.1009 3.67004 21.31 3.67004ZM55.31 7.67004V11.67H47.31V7.67004C47.31 5.46092 49.1009 3.67004 51.31 3.67004C53.5191 3.67004 55.31 5.46092 55.31 7.67004ZM59.31 51.854V20.67C59.31 19.0132 57.9669 17.67 56.31 17.67H47.31V13.67H56.31C56.8622 13.67 57.31 13.2223 57.31 12.67V7.67004C57.3067 4.35767 54.6224 1.67329 51.31 1.67004H21.31C17.9976 1.67329 15.3132 4.35767 15.31 7.67004V17.67H6.31C4.65312 17.67 3.31 19.0132 3.31 20.67V51.854C2.11562 52.2763 1.31525 53.4032 1.31 54.67V55.67C1.31325 58.9824 3.99762 61.6668 7.31 61.67H55.31C58.6224 61.6668 61.3067 58.9824 61.31 55.67V54.67C61.3047 53.4032 60.5044 52.2763 59.31 51.854Z" fill="#161514" stroke="white" stroke-width="0.5"/>
<path id="Fill-3" fill-rule="evenodd" clip-rule="evenodd" d="M31.31 14.67C33.5191 14.67 35.31 16.4609 35.31 18.67C35.31 20.8792 33.5191 22.67 31.31 22.67C29.1009 22.67 27.31 20.8792 27.31 18.67C27.31 16.4609 29.1009 14.67 31.31 14.67ZM31.31 24.67C34.6237 24.67 37.31 21.9838 37.31 18.67C37.31 15.3563 34.6237 12.67 31.31 12.67C27.9962 12.67 25.31 15.3563 25.31 18.67C25.3132 21.9824 27.9976 24.6668 31.31 24.67Z" fill="#FF5F32"/>
</g>
</g>
</g>
</g>
</svg>
