<svg width="63" height="63" viewBox="0 0 63 63" fill="none" xmlns="http://www.w3.org/2000/svg">
<g id="Group7.svg" clip-path="url(#clip0_1_619)">
<g id="Marshmello_landing-page">
<g id="Simple_landngpage">
<g id="Group-7">
<path id="Fill-1" fill-rule="evenodd" clip-rule="evenodd" d="M59.16 55.6915C59.16 57.9007 57.3691 59.6915 55.16 59.6915H7.16C4.95088 59.6915 3.16 57.9007 3.16 55.6915V54.6915C3.16 54.1393 3.60775 53.6915 4.16 53.6915H23.16V54.6915C23.16 56.3484 24.5031 57.6915 26.16 57.6915H36.16C37.8169 57.6915 39.16 56.3484 39.16 54.6915V53.6915H58.16C58.7123 53.6915 59.16 54.1393 59.16 54.6915V55.6915ZM25.16 53.6915H37.16V54.6915C37.16 55.2438 36.7123 55.6915 36.16 55.6915H26.16C25.6078 55.6915 25.16 55.2438 25.16 54.6915V53.6915ZM42.16 22.8025V19.6325C43.2421 19.5108 44.2928 19.1918 45.26 18.6915H56.16C56.7281 18.7089 57.1751 19.1824 57.1604 19.7505V51.6915H5.15963V19.7505C5.14488 19.1824 5.592 18.7089 6.16 18.6915H37.06C38.0273 19.1918 39.0779 19.5108 40.16 19.6325V30.6915H36.16C35.6078 30.6915 35.16 31.1393 35.16 31.6915V34.6915H26.16C25.6078 34.6915 25.16 35.1393 25.16 35.6915V39.6915H16.16C15.6078 39.6915 15.16 40.1393 15.16 40.6915V47.6915H11.16V49.6915H52.16V47.6915H47.16V31.6915C47.16 31.1393 46.7123 30.6915 46.16 30.6915H42.16V28.6915V22.8025ZM17.16 47.6915H25.16V41.6915H17.16V47.6915ZM27.16 47.6915H35.16V36.6915H27.16V47.6915ZM37.16 47.6915H45.16V32.6915H37.16V47.6915ZM41.16 3.69153C45.026 3.69153 48.16 6.82553 48.16 10.6915C48.16 14.5575 45.026 17.6915 41.16 17.6915C37.294 17.6915 34.16 14.5575 34.16 10.6915C34.165 6.82753 37.2961 3.69653 41.16 3.69153ZM59.16 51.8755V19.7505C59.1744 18.0782 57.8324 16.7097 56.16 16.6915H47.849C51.1745 12.9973 50.8756 7.30665 47.1814 3.98115C43.4871 0.655529 37.7965 0.954529 34.471 4.64878C31.3896 8.07178 31.3896 13.2685 34.471 16.6915H6.16C4.48763 16.7097 3.1455 18.0782 3.16 19.7505V51.8755C1.96563 52.2978 1.16525 53.4247 1.16 54.6915V55.6915C1.16325 59.0039 3.84763 61.6883 7.16 61.6915H55.16C58.4724 61.6883 61.1568 59.0039 61.16 55.6915V54.6915C61.1548 53.4247 60.3544 52.2978 59.16 51.8755Z" fill="#161514" stroke="white" stroke-width="0.5"/>
<path id="Fill-3" fill-rule="evenodd" clip-rule="evenodd" d="M42.16 13.6915H40.16C39.6078 13.6915 39.16 13.2438 39.16 12.6915H37.16C37.16 14.3484 38.5031 15.6915 40.16 15.6915V16.6915H42.16V15.6915C43.8169 15.6915 45.16 14.3484 45.16 12.6915C45.16 11.0346 43.8169 9.69151 42.16 9.69151H40.16C39.6078 9.69151 39.16 9.24376 39.16 8.69151C39.16 8.13926 39.6078 7.69151 40.16 7.69151H42.16C42.7123 7.69151 43.16 8.13926 43.16 8.69151H45.16C45.16 7.03463 43.8169 5.69151 42.16 5.69151H42.141L42.16 4.71151L40.16 4.67151L40.14 5.69151C38.4831 5.69701 37.1445 7.04463 37.15 8.70151C37.1555 10.3584 38.5031 11.697 40.16 11.6915H42.16C42.7123 11.6915 43.16 12.1393 43.16 12.6915C43.16 13.2438 42.7123 13.6915 42.16 13.6915Z" fill="#FF3602"/>
<path id="Fill-5" fill-rule="evenodd" clip-rule="evenodd" d="M12.16 20.6915H8.16C7.60775 20.6915 7.16 21.1393 7.16 21.6915V25.6915H9.16V22.6915H12.16V20.6915Z" fill="#006DF0"/>
</g>
</g>
</g>
</g>
<defs>
<clipPath id="clip0_1_619">
<rect width="62" height="62" fill="white" transform="translate(0.160004 0.670044)"/>
</clipPath>
</defs>
</svg>
