<svg width="62" height="62" viewBox="0 0 62 62" fill="none" xmlns="http://www.w3.org/2000/svg">
<g id="Group12.svg" clip-path="url(#clip0_1_588)">
<g id="Marshmello_landing-page">
<g id="Simple_landngpage">
<g id="Group-12">
<path id="Fill-1" fill-rule="evenodd" clip-rule="evenodd" d="M31 3.36664L33.323 6.61864C33.9673 7.53264 34.4344 8.55939 34.7 9.64564H27.3C27.566 8.55939 28.0334 7.53264 28.678 6.61864L31 3.36664ZM38.159 17.8126C40.4609 19.7839 41.8464 22.6184 41.988 25.6456H37V16.8196L38.159 17.8126ZM27 27.6456H35V25.6456H27V27.6456ZM32.613 30.6456H29.387L29.721 29.6456H32.279L32.613 30.6456ZM35 11.8506V23.6456H27V11.8506C27 11.7816 27.014 11.7146 27.016 11.6456H34.984C34.986 11.7146 35 11.7816 35 11.8506ZM20.042 25.6456C20.2636 23.0716 21.3904 20.6596 23.222 18.8376L25 17.0596V25.6456H20.042ZM21.808 17.4236C19.356 19.8644 17.9844 23.186 17.9999 26.6456C17.9999 27.1979 18.4478 27.6456 19 27.6456H25V28.6456C25 29.1979 25.4478 29.6456 26 29.6456H27.612L27.051 31.3296C26.8765 31.8536 27.1598 32.4199 27.6838 32.5944C27.7858 32.6283 27.8925 32.6456 28 32.6456H34C34.5523 32.6456 35.0001 32.1981 35.0003 31.6459C35.0003 31.5384 34.9829 31.4316 34.949 31.3296L34.388 29.6456H36C36.5523 29.6456 37 29.1979 37 28.6456V27.6456H43C43.5523 27.6456 44 27.1979 44 26.6456V26.1646C44.0019 22.3693 42.343 18.763 39.46 16.2946L37 14.1856V11.8506C37.0043 9.55714 36.2875 7.32039 34.951 5.45664L31.814 1.06464C31.4593 0.615011 30.8071 0.538261 30.3575 0.893136C30.2939 0.943386 30.2363 1.00089 30.186 1.06464L27.049 5.45664C25.7125 7.32039 24.9958 9.55714 25 11.8506V14.2316L21.808 17.4236Z" fill="#FF6237"/>
<path id="Fill-3" fill-rule="evenodd" clip-rule="evenodd" d="M31 15.6456C31.5523 15.6456 32 16.0934 32 16.6456C32 17.1979 31.5523 17.6456 31 17.6456C30.4477 17.6456 30 17.1979 30 16.6456C30 16.0934 30.4477 15.6456 31 15.6456ZM31 19.6456C32.6569 19.6456 34 18.3025 34 16.6456C34 14.9888 32.6569 13.6456 31 13.6456C29.3431 13.6456 28 14.9888 28 16.6456C28 18.3025 29.3431 19.6456 31 19.6456Z" fill="#FB6A43"/>
<path id="Fill-5" fill-rule="evenodd" clip-rule="evenodd" d="M58 49.6456H4C3.44775 49.6456 3 49.1979 3 48.6456V45.6456H59V48.6456C59 49.1979 58.5523 49.6456 58 49.6456ZM28 54.6456H34V51.6456H28V54.6456ZM23 58.6456H39V56.6456H23V58.6456ZM9.972 37.0816C10.177 37.302 10.4721 37.4156 10.772 37.3896C11.073 37.3653 11.3468 37.206 11.517 36.9566C12.4469 35.5854 14.3124 35.2274 15.6836 36.1573C16.5085 36.7165 17.0018 37.649 17 38.6456C16.9978 38.7066 16.9914 38.7675 16.981 38.8276L16.961 38.9806C16.9008 39.5296 17.2969 40.0235 17.846 40.0838C18.0216 40.103 18.1994 40.0754 18.361 40.0036C20.3625 39.0896 22.726 39.9711 23.64 41.9725C23.8797 42.4975 24.0026 43.0685 24 43.6456H3V33.6956C5.66038 33.932 8.14125 35.1369 9.972 37.0816ZM40 41.6456C40.7143 41.6506 41.4026 41.913 41.939 42.3846C42.3581 42.7441 42.9895 42.6958 43.3491 42.2766C43.4185 42.1956 43.4745 42.1043 43.515 42.0056C44.9626 38.4323 49.033 36.7089 52.6064 38.1565C52.7069 38.1971 52.8065 38.2403 52.905 38.2856C53.292 38.4618 53.748 38.3739 54.042 38.0666C55.3966 36.6426 57.109 35.6085 59 35.0726V43.6456H37.184C37.6062 42.4513 38.7331 41.6509 40 41.6456ZM58 13.6456H40V15.6456H58C58.5523 15.6456 59 16.0934 59 16.6456V33.0016C56.7804 33.5268 54.7398 34.6309 53.0859 36.2016C48.9745 34.6866 44.37 36.3623 42.194 40.1656C41.5135 39.8228 40.762 39.6445 40 39.6456C37.6249 39.6486 35.5784 41.3193 35.1 43.6456H26C25.9967 40.3333 23.3124 37.6489 20 37.6456C19.6374 37.6453 19.2755 37.6789 18.919 37.7456C18.4209 35.0295 15.8152 33.2315 13.0991 33.7295C12.1821 33.8978 11.3304 34.3189 10.64 34.9456C8.52475 33.0436 5.83713 31.8984 3 31.6906V16.6456C3 16.0934 3.44775 15.6456 4 15.6456H22V13.6456H4C2.34312 13.6456 1 14.9888 1 16.6456V48.6456C1 50.3025 2.34312 51.6456 4 51.6456H26V54.6456H22C21.4477 54.6456 21 55.0934 21 55.6456V58.6456H19V60.6456H43V58.6456H41V55.6456C41 55.0934 40.5523 54.6456 40 54.6456H36V51.6456H58C59.6569 51.6456 61 50.3025 61 48.6456V16.6456C61 14.9888 59.6569 13.6456 58 13.6456Z" fill="#161514" stroke="white" stroke-width="0.5"/>
<g id="Mask group">
<mask id="mask0_1_588" style="mask-type:luminance" maskUnits="userSpaceOnUse" x="1" y="0" width="60" height="61">
<g id="Group">
<path id="Vector" d="M1 60.6457H61V0.670044H1V60.6457Z" fill="#006DF0"/>
</g>
</mask>
<g mask="url(#mask0_1_588)">
<path id="Fill-7" fill-rule="evenodd" clip-rule="evenodd" d="M38 32.6456H40V28.6456H38V32.6456Z" fill="#006DF0"/>
</g>
</g>
<g id="Mask group_2">
<mask id="mask1_1_588" style="mask-type:luminance" maskUnits="userSpaceOnUse" x="1" y="0" width="60" height="61">
<g id="Group_2">
<path id="Vector_2" d="M1 60.6457H61V0.670044H1V60.6457Z" fill="#006DF0"/>
</g>
</mask>
<g mask="url(#mask1_1_588)">
<path id="Fill-9" fill-rule="evenodd" clip-rule="evenodd" d="M41 30.6456H43V28.6456H41V30.6456Z" fill="#006DF0"/>
</g>
</g>
<g id="Mask group_3">
<mask id="mask2_1_588" style="mask-type:luminance" maskUnits="userSpaceOnUse" x="1" y="0" width="60" height="61">
<g id="Group_3">
<path id="Vector_3" d="M1 60.6457H61V0.670044H1V60.6457Z" fill="#006DF0"/>
</g>
</mask>
<g mask="url(#mask2_1_588)">
<path id="Fill-10" fill-rule="evenodd" clip-rule="evenodd" d="M22 32.6456H24V28.6456H22V32.6456Z" fill="#006DF0"/>
</g>
</g>
<g id="Mask group_4">
<mask id="mask3_1_588" style="mask-type:luminance" maskUnits="userSpaceOnUse" x="1" y="0" width="60" height="61">
<g id="Group_4">
<path id="Vector_4" d="M1 60.6457H61V0.670044H1V60.6457Z" fill="#006DF0"/>
</g>
</mask>
<g mask="url(#mask3_1_588)">
<path id="Fill-11" fill-rule="evenodd" clip-rule="evenodd" d="M19 30.6456H21V28.6456H19V30.6456Z" fill="#006DF0"/>
</g>
</g>
</g>
</g>
</g>
</g>
<defs>
<clipPath id="clip0_1_588">
<rect width="62" height="61" fill="white" transform="translate(0 0.670044)"/>
</clipPath>
</defs>
</svg>
