<svg width="167" height="107" viewBox="0 0 167 107" fill="none" xmlns="http://www.w3.org/2000/svg">
<g id="Group126.svg" clip-path="url(#clip0_1_1133)">
<g id="Marshmello_landing-page">
<g id="Simple_landngpage">
<g id="Group-8">
<g id="Group-126">
<path id="Fill-1" fill-rule="evenodd" clip-rule="evenodd" d="M139.211 37.9738C134.468 43.276 130.364 49.1759 127.053 55.4478C124.541 59.604 115.938 76.49 121.971 79.9131C128.15 83.3212 141.365 65.7979 145.025 62.4719C148.807 58.4155 152.398 54.2087 155.81 49.8365C158.895 45.8088 164.665 39.9664 166.252 34.9992C167.587 30.7377 165.251 26.4626 161.337 24.8255C155.772 22.4924 149.955 27.5566 145.69 31.4598C143.422 33.5099 141.256 35.6871 139.211 37.9738Z" fill="#6654F1"/>
<path id="Fill-3" fill-rule="evenodd" clip-rule="evenodd" d="M126.463 70.9978C126.396 70.9978 126.328 70.9786 126.267 70.9403C126.1 70.8309 126.051 70.6052 126.159 70.4356C135.416 55.9081 146.379 42.4942 158.746 30.5686C158.89 30.4331 159.118 30.4359 159.257 30.5809C159.393 30.7286 159.388 30.9584 159.245 31.098C146.919 42.9839 135.992 56.3527 126.767 70.8309C126.699 70.939 126.582 70.9978 126.463 70.9978Z" fill="#D9E8FF"/>
<path id="Fill-5" fill-rule="evenodd" clip-rule="evenodd" d="M143.417 59.5669C143.391 59.5669 143.366 59.564 143.338 59.5583C141.451 59.0865 139.593 58.6447 137.813 58.2443C137.623 58.2014 137.501 57.9998 137.54 57.794C137.579 57.5866 137.77 57.4537 137.953 57.4966C139.738 57.8983 141.603 58.343 143.496 58.8134C143.683 58.8606 143.801 59.065 143.759 59.2709C143.721 59.4482 143.577 59.5669 143.417 59.5669Z" fill="#D9E8FF"/>
<path id="Fill-7" fill-rule="evenodd" clip-rule="evenodd" d="M135.117 56.4492C134.994 56.4492 134.876 56.3748 134.816 56.2441C134.008 54.4804 133.186 52.6324 132.371 50.7535C132.29 50.5666 132.359 50.3417 132.527 50.2532C132.697 50.159 132.896 50.242 132.979 50.4275C133.792 52.3021 134.612 54.1431 135.417 55.904C135.502 56.0895 135.436 56.3143 135.269 56.4099C135.22 56.4366 135.168 56.4492 135.117 56.4492Z" fill="#D9E8FF"/>
<path id="Fill-9" fill-rule="evenodd" clip-rule="evenodd" d="M148.611 54.3709C148.582 54.3709 148.55 54.367 148.521 54.3592C146.667 53.8746 144.809 53.4094 142.998 52.9753C142.808 52.93 142.693 52.7421 142.739 52.5568C142.786 52.3715 142.973 52.2588 143.166 52.3015C144.983 52.7382 146.846 53.206 148.701 53.6919C148.89 53.7411 149.002 53.9303 148.952 54.1143C148.911 54.2698 148.767 54.3709 148.611 54.3709Z" fill="#D9E8FF"/>
<path id="Fill-11" fill-rule="evenodd" clip-rule="evenodd" d="M139.253 50.2141C139.118 50.2141 138.989 50.1352 138.929 50.0008C138.11 48.1767 137.3 46.3248 136.524 44.4966C136.444 44.3096 136.527 44.0907 136.708 44.0104C136.886 43.9287 137.099 44.0118 137.178 44.1988C137.954 46.0243 138.761 47.8706 139.577 49.6892C139.662 49.8748 139.583 50.0936 139.403 50.1809C139.355 50.203 139.304 50.2141 139.253 50.2141Z" fill="#D9E8FF"/>
<path id="Fill-13" fill-rule="evenodd" clip-rule="evenodd" d="M152.765 48.1357C152.731 48.1357 152.695 48.1322 152.661 48.1215C150.847 47.628 148.99 47.1429 147.144 46.6778C146.955 46.6304 146.846 46.456 146.899 46.2876C146.952 46.1203 147.152 46.0219 147.337 46.0693C149.187 46.5343 151.049 47.0219 152.869 47.5177C153.056 47.5675 153.163 47.7455 153.104 47.9127C153.058 48.0492 152.917 48.1357 152.765 48.1357Z" fill="#D9E8FF"/>
<path id="Fill-15" fill-rule="evenodd" clip-rule="evenodd" d="M144.425 43.979C144.277 43.979 144.136 43.8957 144.074 43.7563C143.266 41.9242 142.474 40.0703 141.717 38.2437C141.638 38.0565 141.734 37.8448 141.93 37.7696C142.121 37.6958 142.347 37.786 142.425 37.9732C143.18 39.7943 143.973 41.6455 144.777 43.4735C144.86 43.6593 144.767 43.8725 144.574 43.9503C144.525 43.9708 144.475 43.979 144.425 43.979Z" fill="#D9E8FF"/>
<path id="Fill-17" fill-rule="evenodd" clip-rule="evenodd" d="M157.957 42.9397C157.918 42.9397 157.878 42.9342 157.84 42.9222C156.059 42.4233 154.206 41.9222 152.33 41.432C152.143 41.3828 152.038 41.2187 152.099 41.0644C152.159 40.9112 152.361 40.8248 152.551 40.8762C154.431 41.3675 156.289 41.8697 158.074 42.3708C158.262 42.4233 158.362 42.5896 158.296 42.7417C158.245 42.8631 158.105 42.9397 157.957 42.9397Z" fill="#D9E8FF"/>
<path id="Fill-19" fill-rule="evenodd" clip-rule="evenodd" d="M149.594 38.783C149.431 38.783 149.275 38.6939 149.212 38.5495C148.414 36.6915 147.638 34.8349 146.909 33.0282C146.834 32.8406 146.945 32.6342 147.157 32.568C147.374 32.5033 147.603 32.5991 147.68 32.7866C148.406 34.5893 149.178 36.4419 149.977 38.2945C150.056 38.4794 149.949 38.6885 149.74 38.7587C149.691 38.7749 149.642 38.783 149.594 38.783Z" fill="#D9E8FF"/>
<path id="Fill-21" fill-rule="evenodd" clip-rule="evenodd" d="M139.263 65.802C139.24 65.802 139.22 65.8004 139.197 65.7956C137.332 65.3564 135.472 64.9443 133.666 64.5705C133.477 64.529 133.349 64.3086 133.381 64.077C133.415 63.8454 133.589 63.6985 133.783 63.7272C135.593 64.1058 137.457 64.5178 139.328 64.9571C139.517 65.0018 139.64 65.2254 139.605 65.4554C139.571 65.6599 139.427 65.802 139.263 65.802Z" fill="#D9E8FF"/>
<path id="Fill-23" fill-rule="evenodd" clip-rule="evenodd" d="M129.939 62.6843C129.826 62.6843 129.717 62.6143 129.66 62.4872C128.806 60.6487 127.971 58.8044 127.177 57.0059C127.096 56.8216 127.156 56.5888 127.313 56.4916C127.467 56.3973 127.661 56.4645 127.744 56.6516C128.535 58.4444 129.368 60.283 130.218 62.1186C130.304 62.3029 130.248 62.5358 130.093 62.6372C130.044 62.6686 129.992 62.6843 129.939 62.6843Z" fill="#D9E8FF"/>
<path id="Fill-25" fill-rule="evenodd" clip-rule="evenodd" d="M134.018 70.9776C133.999 70.9776 133.979 70.9765 133.958 70.9745C132.497 70.8207 131.032 70.6721 129.563 70.5318C129.345 70.512 129.194 70.3717 129.223 70.22C129.254 70.0683 129.44 69.9592 129.67 69.982C131.142 70.1223 132.613 70.2699 134.077 70.4268C134.295 70.4486 134.443 70.591 134.411 70.7417C134.381 70.8788 134.211 70.9776 134.018 70.9776Z" fill="#D9E8FF"/>
<path id="Fill-27" fill-rule="evenodd" clip-rule="evenodd" d="M126.748 67.8804C126.614 67.8804 126.483 67.8213 126.411 67.7134C125.622 66.5628 124.846 65.4033 124.076 64.2385C123.967 64.0742 124.032 63.8648 124.219 63.7698C124.404 63.6748 124.646 63.7313 124.756 63.8944C125.524 65.0578 126.301 66.2136 127.085 67.3629C127.197 67.526 127.136 67.7353 126.949 67.8329C126.886 67.865 126.817 67.8804 126.748 67.8804Z" fill="#D9E8FF"/>
<path id="Fill-29" fill-rule="evenodd" clip-rule="evenodd" d="M162.14 36.7046C162.102 36.7046 162.062 36.6967 162.022 36.6808C160.866 36.216 159.703 35.7606 158.535 35.3118C158.363 35.2456 158.275 35.043 158.336 34.859C158.398 34.6776 158.587 34.5809 158.762 34.6471C159.932 35.0959 161.097 35.554 162.259 36.0188C162.429 36.0889 162.517 36.2915 162.452 36.4755C162.401 36.6172 162.274 36.7046 162.14 36.7046Z" fill="#D9E8FF"/>
<path id="Fill-31" fill-rule="evenodd" clip-rule="evenodd" d="M154.834 32.548C154.682 32.548 154.539 32.4444 154.487 32.2787C154.029 30.8136 153.578 29.3456 153.139 27.8701C153.076 27.6615 153.181 27.4395 153.374 27.3729C153.564 27.3019 153.772 27.4188 153.834 27.6274C154.273 29.0999 154.721 30.565 155.18 32.0241C155.244 32.2313 155.143 32.4562 154.951 32.5258C154.913 32.5406 154.872 32.548 154.834 32.548Z" fill="#D9E8FF"/>
<path id="Fill-33" fill-rule="evenodd" clip-rule="evenodd" d="M59.632 76.3887C59.736 74.7469 61.174 73.25 62.7349 72.5016C65.9406 70.9668 69.7842 70.623 72.4276 68.0217C75.0265 65.4664 75.8833 61.509 74.5792 58.1037C72.7155 53.2422 67.4245 51.909 62.6687 52.6561C62.0632 52.7509 61.4172 52.8794 60.8537 52.6372C60.1279 52.3259 59.7685 51.4935 59.663 50.7099C58.9873 45.6196 59.7644 40.0732 57.0128 35.4661C53.9693 30.3677 47.1539 29.151 42.0508 31.9079C38.414 33.8731 36.5787 37.3176 35.9178 41.2886C35.4786 43.9237 37.2098 51.1484 34.1933 52.7049C33.6933 52.962 33.1027 52.9688 32.5405 52.9349C27.4684 52.6182 22.8856 52.4558 20.7206 58.1037C18.8921 62.8746 21.272 68.2247 26.0359 70.0559L33.0811 72.7641C34.5826 73.3421 35.5732 74.7848 35.5732 76.3954C35.5745 81.4194 30.6809 79.6166 27.6631 79.5625C24.425 79.5029 21.9491 82.54 20.9165 85.3308C18.2339 92.5812 23.7776 97.6092 29.87 100.384C37.4517 103.836 46.0281 104.971 54.2639 103.815C61.1186 102.852 72.056 100.048 74.6305 92.5649C75.4887 90.0638 75.2954 87.2486 74.2508 84.8192C73.5629 83.214 72.4857 81.7401 71.014 80.8022C68.5678 79.2431 65.3419 80.6033 62.7106 79.9455C61.3659 79.6085 60.082 78.6773 59.7252 77.3361C59.6401 77.018 59.6117 76.6999 59.632 76.3887Z" fill="#1B00EB"/>
<path id="Fill-35" fill-rule="evenodd" clip-rule="evenodd" d="M46.7648 64.7628C46.7312 64.7628 46.695 64.7587 46.6601 64.7463L39.0638 62.3664C38.8745 62.3072 38.7671 62.1019 38.8262 61.9077C38.8826 61.7135 39.0773 61.5979 39.2733 61.664L46.8695 64.0453C47.0589 64.1031 47.1663 64.3083 47.1072 64.5039C47.0615 64.6623 46.9179 64.7628 46.7648 64.7628Z" fill="#D9E8FF"/>
<path id="Fill-37" fill-rule="evenodd" clip-rule="evenodd" d="M46.7648 90.7423C46.7312 90.7423 46.695 90.7382 46.6601 90.7258L39.0638 88.3463C38.8745 88.2871 38.7671 88.0819 38.8262 87.8877C38.8826 87.6936 39.0773 87.5765 39.2733 87.644L46.8695 90.0249C47.0589 90.0827 47.1663 90.2879 47.1072 90.4834C47.0615 90.6418 46.9179 90.7423 46.7648 90.7423Z" fill="#D9E8FF"/>
<path id="Fill-39" fill-rule="evenodd" clip-rule="evenodd" d="M47.4821 64.7628C47.329 64.7628 47.1853 64.6623 47.1397 64.5039C47.0806 64.3083 47.188 64.1031 47.3773 64.0453L54.9736 61.664C55.1696 61.5979 55.363 61.7135 55.4207 61.9077C55.4798 62.1019 55.3724 62.3072 55.183 62.3664L47.5868 64.7463C47.5519 64.7587 47.5157 64.7628 47.4821 64.7628Z" fill="#D9E8FF"/>
<path id="Fill-41" fill-rule="evenodd" clip-rule="evenodd" d="M47.4821 90.7423C47.329 90.7423 47.1853 90.6418 47.1397 90.4834C47.0806 90.2879 47.188 90.0827 47.3773 90.0249L54.9736 87.644C55.1696 87.5765 55.363 87.6936 55.4207 87.8877C55.4798 88.0819 55.3724 88.2871 55.183 88.3463L47.5868 90.7258C47.5519 90.7382 47.5157 90.7423 47.4821 90.7423Z" fill="#D9E8FF"/>
<path id="Fill-43" fill-rule="evenodd" clip-rule="evenodd" d="M47.643 101.134C47.4903 101.134 47.3656 100.971 47.3656 100.769V48.5001C47.3656 48.2988 47.4903 48.1357 47.643 48.1357C47.7958 48.1357 47.9205 48.2988 47.9205 48.5001V100.769C47.9205 100.971 47.7958 101.134 47.643 101.134Z" fill="#D9E8FF"/>
<g id="Mask group">
<mask id="mask0_1_1133" style="mask-type:luminance" maskUnits="userSpaceOnUse" x="0" y="1" width="167" height="106">
<g id="Group">
<path id="Vector" d="M0.360001 106.33H166.63V1.37231H0.360001V106.33Z" fill="white"/>
</g>
</mask>
<g mask="url(#mask0_1_1133)">
<path id="Fill-45" fill-rule="evenodd" clip-rule="evenodd" d="M95.9652 75.1547H103.24V69.9587H95.9652V75.1547Z" fill="white"/>
</g>
</g>
<g id="Mask group_2">
<mask id="mask1_1_1133" style="mask-type:luminance" maskUnits="userSpaceOnUse" x="0" y="1" width="167" height="106">
<g id="Group_2">
<path id="Vector_2" d="M0.360001 106.33H166.63V1.37231H0.360001V106.33Z" fill="#AB96FF"/>
</g>
</mask>
<g mask="url(#mask1_1_1133)">
<path id="Fill-47" fill-rule="evenodd" clip-rule="evenodd" d="M93.8869 76.0552H106.357V75.2935H93.8869V76.0552Z" fill="#AB96FF"/>
</g>
</g>
<g id="Mask group_3">
<mask id="mask2_1_1133" style="mask-type:luminance" maskUnits="userSpaceOnUse" x="0" y="1" width="167" height="106">
<g id="Group_3">
<path id="Vector_3" d="M0.360001 106.33H166.63V1.37231H0.360001V106.33Z" fill="#310F57"/>
</g>
</mask>
<g mask="url(#mask2_1_1133)">
<path id="Fill-48" fill-rule="evenodd" clip-rule="evenodd" d="M113.452 72.0372H84.714C84.042 72.0372 83.495 71.5052 83.495 70.8486V52.442C83.495 51.7867 84.042 51.2534 84.714 51.2534H113.452C114.125 51.2534 114.671 51.7867 114.671 52.442V70.8486C114.671 71.5052 114.125 72.0372 113.452 72.0372Z" fill="#310F57"/>
</g>
</g>
<g id="Mask group_4">
<mask id="mask3_1_1133" style="mask-type:luminance" maskUnits="userSpaceOnUse" x="0" y="1" width="167" height="106">
<g id="Group_4">
<path id="Vector_4" d="M0.360001 106.33H166.63V1.37231H0.360001V106.33Z" fill="#6654F1"/>
</g>
</mask>
<g mask="url(#mask3_1_1133)">
<path id="Fill-49" fill-rule="evenodd" clip-rule="evenodd" d="M113.587 52.2951V52.2925H85.5734V67.8803H113.587V67.8604H113.631V66.9255V54.1635V52.2951H113.587Z" fill="#6654F1"/>
</g>
</g>
<g id="Mask group_5">
<mask id="mask4_1_1133" style="mask-type:luminance" maskUnits="userSpaceOnUse" x="0" y="1" width="167" height="106">
<g id="Group_5">
<path id="Vector_5" d="M0.360001 106.33H166.63V1.37231H0.360001V106.33Z" fill="white"/>
</g>
</mask>
<g mask="url(#mask4_1_1133)">
<path id="Fill-50" fill-rule="evenodd" clip-rule="evenodd" d="M114.671 67.8804V70.8223C114.671 71.4934 114.126 72.0371 113.452 72.0371H84.714C84.042 72.0371 83.495 71.4934 83.495 70.8223V67.8804H114.671Z" fill="white"/>
</g>
</g>
<g id="Mask group_6">
<mask id="mask5_1_1133" style="mask-type:luminance" maskUnits="userSpaceOnUse" x="0" y="1" width="167" height="106">
<g id="Group_6">
<path id="Vector_6" d="M0.360001 106.33H166.63V1.37231H0.360001V106.33Z" fill="#ACA7C4"/>
</g>
</mask>
<g mask="url(#mask5_1_1133)">
<path id="Fill-51" fill-rule="evenodd" clip-rule="evenodd" d="M100.122 70.4783C100.122 70.7654 99.8896 70.9979 99.6029 70.9979C99.3152 70.9979 99.0828 70.7654 99.0828 70.4783C99.0828 70.1904 99.3152 69.9587 99.6029 69.9587C99.8896 69.9587 100.122 70.1904 100.122 70.4783Z" fill="#ACA7C4"/>
</g>
</g>
<g id="Mask group_7">
<mask id="mask6_1_1133" style="mask-type:luminance" maskUnits="userSpaceOnUse" x="0" y="1" width="167" height="106">
<g id="Group_7">
<path id="Vector_7" d="M0.360001 106.33H166.63V1.37231H0.360001V106.33Z" fill="#24C8D1"/>
</g>
</mask>
<g mask="url(#mask6_1_1133)">
<path id="Fill-52" fill-rule="evenodd" clip-rule="evenodd" d="M131.817 78.5797L137.195 96.5804H126.44L131.817 78.5797ZM131.235 76.6321L122.984 104.252H124.148L124.172 104.175L126.036 97.9383H137.6L139.486 104.252H140.65L140.608 104.113L132.401 76.6321L132.53 76.1938H132.269H131.367H131.105L131.147 76.3345L131.235 76.6321Z" fill="#24C8D1"/>
</g>
</g>
<g id="Mask group_8">
<mask id="mask7_1_1133" style="mask-type:luminance" maskUnits="userSpaceOnUse" x="0" y="1" width="167" height="106">
<g id="Group_8">
<path id="Vector_8" d="M0.360001 106.33H166.63V1.37231H0.360001V106.33Z" fill="#24C8D1"/>
</g>
</mask>
<g mask="url(#mask7_1_1133)">
<path id="Fill-53" fill-rule="evenodd" clip-rule="evenodd" d="M79.6781 96.5791L85.0545 78.5783L90.4308 96.5791H79.6781ZM76.2207 104.252H77.3858L77.4088 104.173L79.2708 97.937H90.8367L92.7231 104.252H93.8869L93.8449 104.111L85.6363 76.6307L85.7676 76.1938H85.5064H84.6038H84.3413L84.3833 76.3332L84.4726 76.6307L76.2207 104.252Z" fill="#24C8D1"/>
</g>
</g>
<g id="Mask group_9">
<mask id="mask8_1_1133" style="mask-type:luminance" maskUnits="userSpaceOnUse" x="0" y="1" width="167" height="106">
<g id="Group_9">
<path id="Vector_9" d="M0.360001 106.33H166.63V1.37231H0.360001V106.33Z" fill="#24C8D1"/>
</g>
</mask>
<g mask="url(#mask8_1_1133)">
<path id="Fill-54" fill-rule="evenodd" clip-rule="evenodd" d="M76.2207 77.152H140.65V76.2749H76.2207V77.152Z" fill="#24C8D1"/>
</g>
</g>
<g id="Mask group_10">
<mask id="mask9_1_1133" style="mask-type:luminance" maskUnits="userSpaceOnUse" x="0" y="1" width="167" height="106">
<g id="Group_10">
<path id="Vector_10" d="M0.360001 106.33H166.63V1.37231H0.360001V106.33Z" fill="#24C8D1"/>
</g>
</mask>
<g mask="url(#mask9_1_1133)">
<path id="Fill-55" fill-rule="evenodd" clip-rule="evenodd" d="M39.8491 64.7628H108.435V19.0386H39.8491V64.7628Z" fill="#24C8D1"/>
</g>
</g>
<g id="Mask group_11">
<mask id="mask10_1_1133" style="mask-type:luminance" maskUnits="userSpaceOnUse" x="0" y="1" width="167" height="106">
<g id="Group_11">
<path id="Vector_11" d="M0.360001 106.33H166.63V1.37231H0.360001V106.33Z" fill="#1800CF"/>
</g>
</mask>
<g mask="url(#mask10_1_1133)">
<path id="Fill-56" fill-rule="evenodd" clip-rule="evenodd" d="M81.5853 49.8846L81.2288 50.0323C80.1263 50.4934 79.4556 50.0586 78.9993 48.9447L74.3068 38.834C73.8505 37.7201 74.3765 36.442 75.4775 35.981L75.8341 35.8319C76.9379 35.3709 78.2015 35.9009 78.6578 37.0162L82.1317 46.5595C82.588 47.6734 82.6891 49.4236 81.5853 49.8846Z" fill="#1800CF"/>
</g>
</g>
<g id="Mask group_12">
<mask id="mask11_1_1133" style="mask-type:luminance" maskUnits="userSpaceOnUse" x="0" y="1" width="167" height="106">
<g id="Group_12">
<path id="Vector_12" d="M0.360001 106.33H166.63V1.37231H0.360001V106.33Z" fill="#1800CF"/>
</g>
</mask>
<g mask="url(#mask11_1_1133)">
<path id="Fill-57" fill-rule="evenodd" clip-rule="evenodd" d="M93.8869 48.7918L93.5723 51.2533L80.4544 50.2243L80.3774 46.0574L93.8869 48.7918Z" fill="#1800CF"/>
</g>
</g>
<g id="Mask group_13">
<mask id="mask12_1_1133" style="mask-type:luminance" maskUnits="userSpaceOnUse" x="0" y="1" width="167" height="106">
<g id="Group_13">
<path id="Vector_13" d="M0.360001 106.33H166.63V1.37231H0.360001V106.33Z" fill="#FCD4CB"/>
</g>
</mask>
<g mask="url(#mask12_1_1133)">
<path id="Fill-58" fill-rule="evenodd" clip-rule="evenodd" d="M93.8871 51.5721C93.871 51.675 94.67 52.0235 94.7719 52.0674C95.2692 52.2768 95.8336 52.3231 96.3725 52.2755C97.1299 52.2078 97.9369 52.0084 98.6179 51.6938C98.9624 51.5345 99.2895 51.3415 99.5871 51.1158C99.7412 50.9979 99.8887 50.8713 100.025 50.7371L100.029 50.7334C100.201 50.5629 100.122 50.282 99.8914 50.193C99.7774 50.1504 99.6796 50.1115 99.6514 50.1028C99.256 49.9786 98.8712 49.8507 98.4664 49.763C97.2572 49.4997 95.5467 48.7826 94.3737 49.4546C94.1753 50.4074 94.0869 50.6168 93.8871 51.5721Z" fill="#FCD4CB"/>
</g>
</g>
<g id="Mask group_14">
<mask id="mask13_1_1133" style="mask-type:luminance" maskUnits="userSpaceOnUse" x="0" y="1" width="167" height="106">
<g id="Group_14">
<path id="Vector_14" d="M0.360001 106.33H166.63V1.37231H0.360001V106.33Z" fill="#1B00EB"/>
</g>
</mask>
<g mask="url(#mask13_1_1133)">
<path id="Fill-59" fill-rule="evenodd" clip-rule="evenodd" d="M62.7113 59.5668H79.3383V39.0782C79.3383 37.0373 77.8338 35.9238 76.1492 35.2633C75.2792 34.9209 74.369 34.7025 73.4741 34.441C73.0294 34.3129 71.3808 33.469 71.0248 33.6011L69.6089 34.1309C68.3815 34.5906 67.1527 34.9707 65.8962 35.3361C64.1437 35.8456 62.7113 37.0521 62.7113 39.0782V59.5668Z" fill="#1B00EB"/>
</g>
</g>
<g id="Mask group_15">
<mask id="mask14_1_1133" style="mask-type:luminance" maskUnits="userSpaceOnUse" x="0" y="1" width="167" height="106">
<g id="Group_15">
<path id="Vector_15" d="M0.360001 106.33H166.63V1.37231H0.360001V106.33Z" fill="#FCD4CB"/>
</g>
</mask>
<g mask="url(#mask14_1_1133)">
<path id="Fill-60" fill-rule="evenodd" clip-rule="evenodd" d="M70.8315 35.6559C71.5913 35.5623 72.14 34.8032 72.0553 33.9634L71.7015 30.4695L68.9464 30.8105L69.3002 34.3032C69.3849 35.1443 70.0705 35.7495 70.8315 35.6559Z" fill="#FCD4CB"/>
</g>
</g>
<g id="Mask group_16">
<mask id="mask15_1_1133" style="mask-type:luminance" maskUnits="userSpaceOnUse" x="0" y="1" width="167" height="106">
<g id="Group_16">
<path id="Vector_16" d="M0.360001 106.33H166.63V1.37231H0.360001V106.33Z" fill="#FC957E"/>
</g>
</mask>
<g mask="url(#mask15_1_1133)">
<path id="Fill-61" fill-rule="evenodd" clip-rule="evenodd" d="M68.9464 29.7938L72.5812 29.4304L73.1031 33.5872C71.4517 33.512 69.7437 32.59 69.2463 31.2131C69.1346 30.9016 69.0581 30.5792 69.003 30.2528L68.9464 29.7938Z" fill="#FC957E"/>
</g>
</g>
<g id="Mask group_17">
<mask id="mask16_1_1133" style="mask-type:luminance" maskUnits="userSpaceOnUse" x="0" y="1" width="167" height="106">
<g id="Group_17">
<path id="Vector_17" d="M0.360001 106.33H166.63V1.37231H0.360001V106.33Z" fill="#FCD4CB"/>
</g>
</mask>
<g mask="url(#mask16_1_1133)">
<path id="Fill-62" fill-rule="evenodd" clip-rule="evenodd" d="M73.6044 32.3379C73.8608 32.238 74.0964 32.091 74.3015 31.8855C74.9584 31.2234 75.1773 30.1845 75.1815 29.2698C75.1843 28.7874 74.4331 22.1574 74.4415 22.156L67.9072 22.9095C68.0375 24.1239 68.1705 25.3397 68.3022 26.5541C68.4283 27.7115 68.3908 28.9458 68.7401 30.0604C69.3332 31.9555 71.8277 33.0272 73.6044 32.3379Z" fill="#FCD4CB"/>
</g>
</g>
<g id="Mask group_18">
<mask id="mask17_1_1133" style="mask-type:luminance" maskUnits="userSpaceOnUse" x="0" y="1" width="167" height="106">
<g id="Group_18">
<path id="Vector_18" d="M0.360001 106.33H166.63V1.37231H0.360001V106.33Z" fill="#FC957E"/>
</g>
</mask>
<g mask="url(#mask17_1_1133)">
<path id="Fill-63" fill-rule="evenodd" clip-rule="evenodd" d="M73.5625 28.3911C73.523 28.3911 73.4866 28.359 73.4773 28.3089L73.4107 27.9802C73.4045 27.9481 73.4107 27.9147 73.4253 27.8877C73.4409 27.862 73.4648 27.8466 73.4918 27.8441L73.8337 27.821L73.1863 26.479C73.1613 26.4264 73.1748 26.3596 73.2164 26.3288C73.259 26.2967 73.312 26.3147 73.338 26.366L74.0602 27.8633C74.0748 27.8967 74.0758 27.9365 74.0613 27.9712C74.0478 28.0046 74.0187 28.0264 73.9885 28.029L73.6082 28.0547L73.6477 28.2563C73.6602 28.3141 73.631 28.3731 73.5843 28.3873C73.577 28.3898 73.5697 28.3911 73.5625 28.3911Z" fill="#FC957E"/>
</g>
</g>
<g id="Mask group_19">
<mask id="mask18_1_1133" style="mask-type:luminance" maskUnits="userSpaceOnUse" x="0" y="1" width="167" height="106">
<g id="Group_19">
<path id="Vector_19" d="M0.360001 106.33H166.63V1.37231H0.360001V106.33Z" fill="white"/>
</g>
</mask>
<g mask="url(#mask18_1_1133)">
<path id="Fill-64" fill-rule="evenodd" clip-rule="evenodd" d="M74.1423 28.5071C74.0766 28.9196 73.6938 29.2595 73.1912 29.3083C72.6898 29.3582 72.2318 29.1025 72.0639 28.7128L74.1423 28.5071Z" fill="white"/>
</g>
</g>
<g id="Mask group_20">
<mask id="mask19_1_1133" style="mask-type:luminance" maskUnits="userSpaceOnUse" x="0" y="1" width="167" height="106">
<g id="Group_20">
<path id="Vector_20" d="M0.360001 106.33H166.63V1.37231H0.360001V106.33Z" fill="white"/>
</g>
</mask>
<g mask="url(#mask19_1_1133)">
<path id="Fill-65" fill-rule="evenodd" clip-rule="evenodd" d="M67.6429 30.4372C68.1208 30.5818 68.6432 30.2232 68.8182 29.7561C68.9932 29.2877 68.889 28.7595 68.6973 28.2995C68.5876 28.034 68.4445 27.7769 68.4084 27.4933C68.3709 27.2084 68.4723 26.8803 68.7293 26.7552C68.8571 26.6927 69.0071 26.6871 69.1322 26.619C69.3753 26.487 69.4433 26.1673 69.4211 25.8907C69.4003 25.6141 69.3155 25.3389 69.3628 25.0665C69.4656 24.4702 70.1532 24.1435 70.7561 24.1672C71.3618 24.1922 71.9259 24.4577 72.5149 24.5953C73.1873 24.7523 73.9388 24.7245 74.5084 24.334C75.0794 23.9434 75.378 23.1233 75.0377 22.5243C74.7084 21.9419 73.943 21.764 73.2776 21.8196C72.6107 21.8752 71.962 22.1031 71.2938 22.092C70.4825 22.0795 69.7253 21.7195 68.9627 21.4401C68.2 21.1607 67.3401 20.9647 66.5913 21.2747C65.7731 21.6125 65.2702 22.5785 65.4605 23.443C65.605 24.0977 66.0926 24.7662 65.8106 25.375C65.63 25.767 65.184 25.9727 64.9729 26.3466C64.2421 27.6323 65.8953 27.5503 66.4565 27.9826C67.1956 28.5552 66.5038 30.0967 67.6429 30.4372Z" fill="white"/>
</g>
</g>
<g id="Mask group_21">
<mask id="mask20_1_1133" style="mask-type:luminance" maskUnits="userSpaceOnUse" x="0" y="1" width="167" height="106">
<g id="Group_21">
<path id="Vector_21" d="M0.360001 106.33H166.63V1.37231H0.360001V106.33Z" fill="#1800CF"/>
</g>
</mask>
<g mask="url(#mask20_1_1133)">
<path id="Fill-66" fill-rule="evenodd" clip-rule="evenodd" d="M62.1998 50.1659L61.8314 50.0604C60.6911 49.7332 60.437 48.987 60.7659 47.8513L63.321 37.2126C63.6499 36.077 64.8419 35.4226 65.9836 35.7498L66.3519 35.8553C67.4936 36.1824 68.1514 37.3681 67.8225 38.5038L64.6666 47.9554C64.3377 49.0911 63.3414 50.4931 62.1998 50.1659Z" fill="#1800CF"/>
</g>
</g>
<g id="Mask group_22">
<mask id="mask21_1_1133" style="mask-type:luminance" maskUnits="userSpaceOnUse" x="0" y="1" width="167" height="106">
<g id="Group_22">
<path id="Vector_22" d="M0.360001 106.33H166.63V1.37231H0.360001V106.33Z" fill="#1800CF"/>
</g>
</mask>
<g mask="url(#mask21_1_1133)">
<path id="Fill-67" fill-rule="evenodd" clip-rule="evenodd" d="M60.7094 62.6844L58.5545 62.2307L60.0756 48.1357L63.7504 48.2442L60.7094 62.6844Z" fill="#1800CF"/>
</g>
</g>
<g id="Mask group_23">
<mask id="mask22_1_1133" style="mask-type:luminance" maskUnits="userSpaceOnUse" x="0" y="1" width="167" height="106">
<g id="Group_23">
<path id="Vector_23" d="M0.360001 106.33H166.63V1.37231H0.360001V106.33Z" fill="#1800CF"/>
</g>
</mask>
<g mask="url(#mask22_1_1133)">
<path id="Fill-68" fill-rule="evenodd" clip-rule="evenodd" d="M71.4012 36.7047L68.9464 34.6873L69.7097 33.5872L72.0639 35.5558L71.4012 36.7047Z" fill="#1800CF"/>
</g>
</g>
<g id="Mask group_24">
<mask id="mask23_1_1133" style="mask-type:luminance" maskUnits="userSpaceOnUse" x="0" y="1" width="167" height="106">
<g id="Group_24">
<path id="Vector_24" d="M0.360001 106.33H166.63V1.37231H0.360001V106.33Z" fill="#1800CF"/>
</g>
</mask>
<g mask="url(#mask23_1_1133)">
<path id="Fill-69" fill-rule="evenodd" clip-rule="evenodd" d="M72.8147 36.7047L74.1423 34.6873L73.2762 33.5872L72.0639 35.5558L72.8147 36.7047Z" fill="#1800CF"/>
</g>
</g>
<g id="Mask group_25">
<mask id="mask24_1_1133" style="mask-type:luminance" maskUnits="userSpaceOnUse" x="0" y="1" width="167" height="106">
<g id="Group_25">
<path id="Vector_25" d="M0.360001 106.33H166.63V1.37231H0.360001V106.33Z" fill="#310F57"/>
</g>
</mask>
<g mask="url(#mask24_1_1133)">
<path id="Fill-70" fill-rule="evenodd" clip-rule="evenodd" d="M39.8491 64.7628H108.435V59.5669H39.8491V64.7628Z" fill="#310F57"/>
</g>
</g>
<g id="Mask group_26">
<mask id="mask25_1_1133" style="mask-type:luminance" maskUnits="userSpaceOnUse" x="0" y="1" width="167" height="106">
<g id="Group_26">
<path id="Vector_26" d="M0.360001 106.33H166.63V1.37231H0.360001V106.33Z" fill="white"/>
</g>
</mask>
<g mask="url(#mask25_1_1133)">
<path id="Fill-71" fill-rule="evenodd" clip-rule="evenodd" d="M41.9275 62.6843H44.0059V60.606H41.9275V62.6843Z" fill="white"/>
</g>
</g>
<g id="Mask group_27">
<mask id="mask26_1_1133" style="mask-type:luminance" maskUnits="userSpaceOnUse" x="0" y="1" width="167" height="106">
<g id="Group_27">
<path id="Vector_27" d="M0.360001 106.33H166.63V1.37231H0.360001V106.33Z" fill="white"/>
</g>
</mask>
<g mask="url(#mask26_1_1133)">
<path id="Fill-72" fill-rule="evenodd" clip-rule="evenodd" d="M47.1234 62.6843V60.606L49.2018 61.6457L47.1234 62.6843Z" fill="white"/>
</g>
</g>
<g id="Mask group_28">
<mask id="mask27_1_1133" style="mask-type:luminance" maskUnits="userSpaceOnUse" x="0" y="1" width="167" height="106">
<g id="Group_28">
<path id="Vector_28" d="M0.360001 106.33H166.63V1.37231H0.360001V106.33Z" fill="white"/>
</g>
</mask>
<g mask="url(#mask27_1_1133)">
<path id="Fill-73" fill-rule="evenodd" clip-rule="evenodd" d="M82.4558 25.2736H112.592V1.37231H82.4558V25.2736Z" fill="white"/>
</g>
</g>
<g id="Mask group_29">
<mask id="mask28_1_1133" style="mask-type:luminance" maskUnits="userSpaceOnUse" x="0" y="1" width="167" height="106">
<g id="Group_29">
<path id="Vector_29" d="M0.360001 106.33H166.63V1.37231H0.360001V106.33Z" fill="white"/>
</g>
</mask>
<g mask="url(#mask28_1_1133)">
<path id="Fill-74" fill-rule="evenodd" clip-rule="evenodd" d="M86.6126 34.6264V21.1169H99.0828L86.6126 34.6264Z" fill="white"/>
</g>
</g>
<g id="Mask group_30">
<mask id="mask29_1_1133" style="mask-type:luminance" maskUnits="userSpaceOnUse" x="0" y="1" width="167" height="106">
<g id="Group_30">
<path id="Vector_30" d="M0.360001 106.33H166.63V1.37231H0.360001V106.33Z" fill="#24C8D1"/>
</g>
</mask>
<g mask="url(#mask29_1_1133)">
<path id="Fill-76" fill-rule="evenodd" clip-rule="evenodd" d="M86.6126 7.60743H104.279V5.52905H86.6126V7.60743Z" fill="#24C8D1"/>
</g>
</g>
<g id="Mask group_31">
<mask id="mask30_1_1133" style="mask-type:luminance" maskUnits="userSpaceOnUse" x="0" y="1" width="167" height="106">
<g id="Group_31">
<path id="Vector_31" d="M0.360001 106.33H166.63V1.37231H0.360001V106.33Z" fill="#24C8D1"/>
</g>
</mask>
<g mask="url(#mask30_1_1133)">
<path id="Fill-78" fill-rule="evenodd" clip-rule="evenodd" d="M86.6126 16.9602H109.475V14.8818H86.6126V16.9602Z" fill="#24C8D1"/>
</g>
</g>
<g id="Mask group_32">
<mask id="mask31_1_1133" style="mask-type:luminance" maskUnits="userSpaceOnUse" x="0" y="1" width="167" height="106">
<g id="Group_32">
<path id="Vector_32" d="M0.360001 106.33H166.63V1.37231H0.360001V106.33Z" fill="#24C8D1"/>
</g>
</mask>
<g mask="url(#mask31_1_1133)">
<path id="Fill-80" fill-rule="evenodd" clip-rule="evenodd" d="M86.6126 12.8035H109.475V10.7251H86.6126V12.8035Z" fill="#24C8D1"/>
</g>
</g>
<g id="Mask group_33">
<mask id="mask32_1_1133" style="mask-type:luminance" maskUnits="userSpaceOnUse" x="0" y="1" width="167" height="106">
<g id="Group_33">
<path id="Vector_33" d="M0.360001 106.33H166.63V1.37231H0.360001V106.33Z" fill="#24C8D1"/>
</g>
</mask>
<g mask="url(#mask32_1_1133)">
<path id="Fill-82" fill-rule="evenodd" clip-rule="evenodd" d="M99.0828 22.156H109.475V20.0776H99.0828V22.156Z" fill="#24C8D1"/>
</g>
</g>
<g id="Mask group_34">
<mask id="mask33_1_1133" style="mask-type:luminance" maskUnits="userSpaceOnUse" x="0" y="1" width="167" height="106">
<g id="Group_34">
<path id="Vector_34" d="M0.360001 106.33H166.63V1.37231H0.360001V106.33Z" fill="#FCD4CB"/>
</g>
</mask>
<g mask="url(#mask33_1_1133)">
<path id="Fill-83" fill-rule="evenodd" clip-rule="evenodd" d="M119.632 61.6378C118.859 61.7204 118.171 61.1012 118.096 60.2549L117.788 56.7423L120.591 56.4492L120.899 59.9603C120.975 60.8051 120.405 61.5566 119.632 61.6378Z" fill="#FCD4CB"/>
</g>
</g>
<g id="Mask group_35">
<mask id="mask34_1_1133" style="mask-type:luminance" maskUnits="userSpaceOnUse" x="0" y="1" width="167" height="106">
<g id="Group_35">
<path id="Vector_35" d="M0.360001 106.33H166.63V1.37231H0.360001V106.33Z" fill="#FC957E"/>
</g>
</mask>
<g mask="url(#mask34_1_1133)">
<path id="Fill-84" fill-rule="evenodd" clip-rule="evenodd" d="M120.865 56.4492L117.788 56.7381L118.166 60.606C119.231 60.4875 119.508 59.8623 119.65 58.5261C119.684 58.2239 120.924 57.1825 120.906 56.8759L120.865 56.4492Z" fill="#FC957E"/>
</g>
</g>
<g id="Mask group_36">
<mask id="mask35_1_1133" style="mask-type:luminance" maskUnits="userSpaceOnUse" x="0" y="1" width="167" height="106">
<g id="Group_36">
<path id="Vector_36" d="M0.360001 106.33H166.63V1.37231H0.360001V106.33Z" fill="#FCD4CB"/>
</g>
</mask>
<g mask="url(#mask35_1_1133)">
<path id="Fill-85" fill-rule="evenodd" clip-rule="evenodd" d="M118.186 59.5378C117.95 59.5047 117.724 59.4292 117.513 59.3035C116.842 58.8999 116.477 58.1297 116.314 57.419C116.228 57.0445 115.717 51.7669 115.71 51.7682L121.389 51.2534C121.489 52.2208 121.587 53.1869 121.684 54.1543C121.779 55.074 122.024 56.0268 121.92 56.9519C121.744 58.5227 119.813 59.776 118.186 59.5378Z" fill="#FCD4CB"/>
</g>
</g>
<g id="Mask group_37">
<mask id="mask36_1_1133" style="mask-type:luminance" maskUnits="userSpaceOnUse" x="0" y="1" width="167" height="106">
<g id="Group_37">
<path id="Vector_37" d="M0.360001 106.33H166.63V1.37231H0.360001V106.33Z" fill="#1800CF"/>
</g>
</mask>
<g mask="url(#mask36_1_1133)">
<path id="Fill-86" fill-rule="evenodd" clip-rule="evenodd" d="M113.648 51.5279C113.847 50.1397 115.085 49.6085 116.251 49.0612C117.752 48.3604 120.735 47.111 121.141 49.6939C121.742 49.3108 122.35 49.3028 122.805 49.6819C123.158 49.9809 122.967 50.3186 122.964 50.691C122.962 51.0754 123.105 51.4585 123.273 51.8029C123.506 52.2861 123.805 52.7466 123.94 53.2632C124.111 53.9226 123.995 54.6194 123.812 55.2788C123.587 56.0943 123.251 56.9019 122.664 57.5333C122.079 58.1646 121.21 58.5971 120.332 58.5184C119.761 58.4676 119.158 58.1299 119.064 57.5907C119 57.2249 119.165 56.7978 118.924 56.5055C118.679 56.2065 118.155 56.2532 117.89 55.9675C117.52 55.5658 117.953 54.9064 117.748 54.4085C117.619 54.0988 117.265 53.9253 116.921 53.8692C116.579 53.8145 116.226 53.8492 115.88 53.8198C114.704 53.717 113.476 52.7239 113.648 51.5279Z" fill="#1800CF"/>
</g>
</g>
<g id="Mask group_38">
<mask id="mask37_1_1133" style="mask-type:luminance" maskUnits="userSpaceOnUse" x="0" y="1" width="167" height="106">
<g id="Group_38">
<path id="Vector_38" d="M0.360001 106.33H166.63V1.37231H0.360001V106.33Z" fill="#FCD4CB"/>
</g>
</mask>
<g mask="url(#mask37_1_1133)">
<path id="Fill-87" fill-rule="evenodd" clip-rule="evenodd" d="M100.365 100.095L97.0044 99.4147L97.799 95.9385L101.161 96.619L100.365 100.095Z" fill="#FCD4CB"/>
</g>
</g>
<g id="Mask group_39">
<mask id="mask38_1_1133" style="mask-type:luminance" maskUnits="userSpaceOnUse" x="0" y="1" width="167" height="106">
<g id="Group_39">
<path id="Vector_39" d="M0.360001 106.33H166.63V1.37231H0.360001V106.33Z" fill="#1B00EB"/>
</g>
</mask>
<g mask="url(#mask38_1_1133)">
<path id="Fill-88" fill-rule="evenodd" clip-rule="evenodd" d="M91.0614 99.0559L90.7693 100.349L97.0668 101.643C97.1788 101.474 97.2922 101.306 97.4042 101.137L97.4 101.712L99.6513 102.173L100.122 100.084L96.7025 99.382L91.0614 99.0559Z" fill="#1B00EB"/>
</g>
</g>
<g id="Mask group_40">
<mask id="mask39_1_1133" style="mask-type:luminance" maskUnits="userSpaceOnUse" x="0" y="1" width="167" height="106">
<g id="Group_40">
<path id="Vector_40" d="M0.360001 106.33H166.63V1.37231H0.360001V106.33Z" fill="#1B00EB"/>
</g>
</mask>
<g mask="url(#mask39_1_1133)">
<path id="Fill-89" fill-rule="evenodd" clip-rule="evenodd" d="M101.943 98.0167L97.0044 96.9404L99.9752 81.6862L106.357 77.2329L101.943 98.0167Z" fill="#1B00EB"/>
</g>
</g>
<g id="Mask group_41">
<mask id="mask40_1_1133" style="mask-type:luminance" maskUnits="userSpaceOnUse" x="0" y="1" width="167" height="106">
<g id="Group_41">
<path id="Vector_41" d="M0.360001 106.33H166.63V1.37231H0.360001V106.33Z" fill="#FC957E"/>
</g>
</mask>
<g mask="url(#mask40_1_1133)">
<path id="Fill-90" fill-rule="evenodd" clip-rule="evenodd" d="M109.475 74.0499C109.598 75.2969 110.569 76.2292 111.705 76.1928L121.945 75.869L121.694 72.0371L109.475 74.0499Z" fill="#FC957E"/>
</g>
</g>
<g id="Mask group_42">
<mask id="mask41_1_1133" style="mask-type:luminance" maskUnits="userSpaceOnUse" x="0" y="1" width="167" height="106">
<g id="Group_42">
<path id="Vector_42" d="M0.360001 106.33H166.63V1.37231H0.360001V106.33Z" fill="#FCD4CB"/>
</g>
</mask>
<g mask="url(#mask41_1_1133)">
<path id="Fill-91" fill-rule="evenodd" clip-rule="evenodd" d="M105.298 103.213L102.2 103.19L102.22 99.0559L105.318 99.0788L105.298 103.213Z" fill="#FCD4CB"/>
</g>
</g>
<g id="Mask group_43">
<mask id="mask42_1_1133" style="mask-type:luminance" maskUnits="userSpaceOnUse" x="0" y="1" width="167" height="106">
<g id="Group_43">
<path id="Vector_43" d="M0.360001 106.33H166.63V1.37231H0.360001V106.33Z" fill="#1B00EB"/>
</g>
</mask>
<g mask="url(#mask42_1_1133)">
<path id="Fill-92" fill-rule="evenodd" clip-rule="evenodd" d="M97.0122 103.968L97.0044 105.243L102.89 105.277C102.959 105.097 103.026 104.917 103.092 104.737C103.13 104.918 103.165 105.098 103.201 105.279L105.306 105.291L105.318 103.232L102.122 103.213L97.0122 103.968Z" fill="#1B00EB"/>
</g>
</g>
<g id="Mask group_44">
<mask id="mask43_1_1133" style="mask-type:luminance" maskUnits="userSpaceOnUse" x="0" y="1" width="167" height="106">
<g id="Group_44">
<path id="Vector_44" d="M0.360001 106.33H166.63V1.37231H0.360001V106.33Z" fill="#1800CF"/>
</g>
</mask>
<g mask="url(#mask43_1_1133)">
<path id="Fill-93" fill-rule="evenodd" clip-rule="evenodd" d="M99.186 82.8752C98.6488 80.8467 100.273 78.8439 102.583 78.7914L121.228 78.2722C122.974 78.2736 120.982 80.1244 120.981 81.8556V82.4151C120.978 84.1463 119.563 85.5479 117.815 85.5465L102.124 85.5317C100.836 85.5304 99.8372 84.5283 99.3664 83.4051C99.2932 83.2303 99.2321 83.0527 99.186 82.8752Z" fill="#1800CF"/>
</g>
</g>
<g id="Mask group_45">
<mask id="mask44_1_1133" style="mask-type:luminance" maskUnits="userSpaceOnUse" x="0" y="1" width="167" height="106">
<g id="Group_45">
<path id="Vector_45" d="M0.360001 106.33H166.63V1.37231H0.360001V106.33Z" fill="#1800CF"/>
</g>
</mask>
<g mask="url(#mask44_1_1133)">
<path id="Fill-94" fill-rule="evenodd" clip-rule="evenodd" d="M106.251 99.9963L101.482 100.095L100.125 82.6629C100.064 81.6995 100.934 80.475 101.83 80.2828L106.357 79.3113L106.251 99.9963Z" fill="#1800CF"/>
</g>
</g>
<g id="Mask group_46">
<mask id="mask45_1_1133" style="mask-type:luminance" maskUnits="userSpaceOnUse" x="0" y="1" width="167" height="106">
<g id="Group_46">
<path id="Vector_46" d="M0.360001 106.33H166.63V1.37231H0.360001V106.33Z" fill="#CC76BC"/>
</g>
</mask>
<g mask="url(#mask45_1_1133)">
<path id="Fill-95" fill-rule="evenodd" clip-rule="evenodd" d="M127.141 81.3897H113.631V64.5818C113.631 62.4362 115.753 61.5151 117.432 61.0196C119.348 60.4567 121.409 60.476 123.324 61.0306C125.022 61.522 127.141 62.4115 127.141 64.5818V81.3897Z" fill="#CC76BC"/>
</g>
</g>
<g id="Mask group_47">
<mask id="mask46_1_1133" style="mask-type:luminance" maskUnits="userSpaceOnUse" x="0" y="1" width="167" height="106">
<g id="Group_47">
<path id="Vector_47" d="M0.360001 106.33H166.63V1.37231H0.360001V106.33Z" fill="#1B00EB"/>
</g>
</mask>
<g mask="url(#mask46_1_1133)">
<path id="Fill-96" fill-rule="evenodd" clip-rule="evenodd" d="M99.9523 77.9971C100.147 76.2438 101.727 74.9809 103.481 75.174L127.141 78.9627C127.141 78.9627 122.267 78.6915 122.073 80.4434L122.01 81.0091C121.816 82.7624 119.17 85.7306 117.415 85.5374L99.0828 81.2214L99.9523 77.9971Z" fill="#1B00EB"/>
</g>
</g>
<g id="Mask group_48">
<mask id="mask47_1_1133" style="mask-type:luminance" maskUnits="userSpaceOnUse" x="0" y="1" width="167" height="106">
<g id="Group_48">
<path id="Vector_48" d="M0.360001 106.33H166.63V1.37231H0.360001V106.33Z" fill="#FCD4CB"/>
</g>
</mask>
<g mask="url(#mask47_1_1133)">
<path id="Fill-97" fill-rule="evenodd" clip-rule="evenodd" d="M116.258 76.1898L116.589 76.1674C117.614 76.1 117.848 75.2433 117.776 74.2572L117.68 65.391C117.61 64.4049 116.721 63.6593 115.696 63.728L115.365 63.7505C114.34 63.8179 113.565 64.6732 113.636 65.6594L114.807 74.4555C114.878 75.4416 115.233 76.2586 116.258 76.1898Z" fill="#FCD4CB"/>
</g>
</g>
<g id="Mask group_49">
<mask id="mask48_1_1133" style="mask-type:luminance" maskUnits="userSpaceOnUse" x="0" y="1" width="167" height="106">
<g id="Group_49">
<path id="Vector_49" d="M0.360001 106.33H166.63V1.37231H0.360001V106.33Z" fill="#FCD4CB"/>
</g>
</mask>
<g mask="url(#mask48_1_1133)">
<path id="Fill-98" fill-rule="evenodd" clip-rule="evenodd" d="M104.598 70.9978L104.279 73.0976L116.071 76.1937L116.749 72.5843L104.598 70.9978Z" fill="#FCD4CB"/>
</g>
</g>
<g id="Mask group_50">
<mask id="mask49_1_1133" style="mask-type:luminance" maskUnits="userSpaceOnUse" x="0" y="1" width="167" height="106">
<g id="Group_50">
<path id="Vector_50" d="M0.360001 106.33H166.63V1.37231H0.360001V106.33Z" fill="#FCD4CB"/>
</g>
</mask>
<g mask="url(#mask49_1_1133)">
<path id="Fill-99" fill-rule="evenodd" clip-rule="evenodd" d="M105.314 72.1505C105.367 72.2318 104.899 72.8461 104.838 72.9246C104.543 73.3005 104.132 73.5628 103.703 73.7339C103.101 73.9737 102.41 74.1181 101.766 74.1153C101.44 74.1139 101.115 74.0775 100.799 74.0003C100.634 73.9597 100.474 73.9092 100.316 73.8475C100.314 73.8475 100.311 73.8461 100.311 73.8461C100.112 73.7661 100.061 73.494 100.202 73.3271C100.271 73.2444 100.328 73.1729 100.348 73.1547C100.6 72.8924 100.841 72.6301 101.114 72.3959C101.927 71.6933 103.623 70.8939 104.781 71.0089C105.311 71.7522 104.782 71.4086 105.314 72.1505Z" fill="#FCD4CB"/>
</g>
</g>
<g id="Mask group_51">
<mask id="mask50_1_1133" style="mask-type:luminance" maskUnits="userSpaceOnUse" x="0" y="1" width="167" height="106">
<g id="Group_51">
<path id="Vector_51" d="M0.360001 106.33H166.63V1.37231H0.360001V106.33Z" fill="#CC76BC"/>
</g>
</mask>
<g mask="url(#mask50_1_1133)">
<path id="Fill-100" fill-rule="evenodd" clip-rule="evenodd" d="M115.014 62.7278C113.987 63.8346 113.593 65.4438 113.634 66.977C113.676 68.5089 114.11 69.9986 114.538 71.468C115.973 71.6133 117.409 71.7668 118.827 72.037C118.78 70.0489 118.651 67.9249 118.439 65.9477C118.357 65.1953 118.257 64.4212 117.889 63.7667C117.343 62.7998 116.089 62.5757 115.014 62.7278Z" fill="#CC76BC"/>
</g>
</g>
<g id="Mask group_52">
<mask id="mask51_1_1133" style="mask-type:luminance" maskUnits="userSpaceOnUse" x="0" y="1" width="167" height="106">
<g id="Group_52">
<path id="Vector_52" d="M0.360001 106.33H166.63V1.37231H0.360001V106.33Z" fill="#24C8D1"/>
</g>
</mask>
<g mask="url(#mask51_1_1133)">
<path id="Fill-101" fill-rule="evenodd" clip-rule="evenodd" d="M119.944 105.291H120.818L120.828 89.7031H119.954L119.944 105.291Z" fill="#24C8D1"/>
</g>
</g>
<g id="Mask group_53">
<mask id="mask52_1_1133" style="mask-type:luminance" maskUnits="userSpaceOnUse" x="0" y="1" width="167" height="106">
<g id="Group_53">
<path id="Vector_53" d="M0.360001 106.33H166.63V1.37231H0.360001V106.33Z" fill="#1EA6AD"/>
</g>
</mask>
<g mask="url(#mask52_1_1133)">
<path id="Fill-102" fill-rule="evenodd" clip-rule="evenodd" d="M109.475 89.6855L130.146 89.7031L131.724 89.3659L132.337 85.5641L112.206 85.5464C110.699 85.5449 109.477 86.848 109.476 88.4545L109.475 89.6855Z" fill="#1EA6AD"/>
</g>
</g>
<g id="Mask group_54">
<mask id="mask53_1_1133" style="mask-type:luminance" maskUnits="userSpaceOnUse" x="0" y="1" width="167" height="106">
<g id="Group_54">
<path id="Vector_54" d="M0.360001 106.33H166.63V1.37231H0.360001V106.33Z" fill="#1EA6AD"/>
</g>
</mask>
<g mask="url(#mask53_1_1133)">
<path id="Fill-103" fill-rule="evenodd" clip-rule="evenodd" d="M117.788 85.5344L131.542 85.5464L134.415 68.9275L123.599 68.9194C121.901 68.9181 120.448 70.1454 120.157 71.8274L117.788 85.5344Z" fill="#1EA6AD"/>
</g>
</g>
<g id="Mask group_55">
<mask id="mask54_1_1133" style="mask-type:luminance" maskUnits="userSpaceOnUse" x="0" y="1" width="167" height="106">
<g id="Group_55">
<path id="Vector_55" d="M0.360001 106.33H166.63V1.37231H0.360001V106.33Z" fill="#24C8D1"/>
</g>
</mask>
<g mask="url(#mask54_1_1133)">
<path id="Fill-104" fill-rule="evenodd" clip-rule="evenodd" d="M120.906 85.5357L134.66 85.5464L137.533 68.9302L123.778 68.9194L120.906 85.5357Z" fill="#24C8D1"/>
</g>
</g>
<g id="Mask group_56">
<mask id="mask55_1_1133" style="mask-type:luminance" maskUnits="userSpaceOnUse" x="0" y="1" width="167" height="106">
<g id="Group_56">
<path id="Vector_56" d="M0.360001 106.33H166.63V1.37231H0.360001V106.33Z" fill="#1EA6AD"/>
</g>
</mask>
<g mask="url(#mask55_1_1133)">
<path id="Fill-105" fill-rule="evenodd" clip-rule="evenodd" d="M122.984 104.252H121.799L118.827 87.6248H120.011L122.984 104.252Z" fill="#1EA6AD"/>
</g>
</g>
<g id="Mask group_57">
<mask id="mask56_1_1133" style="mask-type:luminance" maskUnits="userSpaceOnUse" x="0" y="1" width="167" height="106">
<g id="Group_57">
<path id="Vector_57" d="M0.360001 106.33H166.63V1.37231H0.360001V106.33Z" fill="#1EA6AD"/>
</g>
</mask>
<g mask="url(#mask56_1_1133)">
<path id="Fill-106" fill-rule="evenodd" clip-rule="evenodd" d="M132.337 104.252L131.151 104.25L128.18 87.6248L129.364 87.6261L132.337 104.252Z" fill="#1EA6AD"/>
</g>
</g>
<g id="Mask group_58">
<mask id="mask57_1_1133" style="mask-type:luminance" maskUnits="userSpaceOnUse" x="0" y="1" width="167" height="106">
<g id="Group_58">
<path id="Vector_58" d="M0.360001 106.33H166.63V1.37231H0.360001V106.33Z" fill="#24C8D1"/>
</g>
</mask>
<g mask="url(#mask57_1_1133)">
<path id="Fill-107" fill-rule="evenodd" clip-rule="evenodd" d="M134.415 85.5641L134.258 86.5392C133.964 88.3686 132.477 89.7046 130.738 89.7031L112.592 89.6884L113.26 85.5464L134.415 85.5641Z" fill="#24C8D1"/>
</g>
</g>
<g id="Mask group_59">
<mask id="mask58_1_1133" style="mask-type:luminance" maskUnits="userSpaceOnUse" x="0" y="1" width="167" height="106">
<g id="Group_59">
<path id="Vector_59" d="M0.360001 106.33H166.63V1.37231H0.360001V106.33Z" fill="#24C8D1"/>
</g>
</mask>
<g mask="url(#mask58_1_1133)">
<path id="Fill-108" fill-rule="evenodd" clip-rule="evenodd" d="M110.592 105.291H111.466L111.475 89.7045L110.601 89.7031L110.592 105.291Z" fill="#24C8D1"/>
</g>
</g>
<g id="Mask group_60">
<mask id="mask59_1_1133" style="mask-type:luminance" maskUnits="userSpaceOnUse" x="0" y="1" width="167" height="106">
<g id="Group_60">
<path id="Vector_60" d="M0.360001 106.33H166.63V1.37231H0.360001V106.33Z" fill="#6654F1"/>
</g>
</mask>
<g mask="url(#mask59_1_1133)">
<path id="Fill-109" fill-rule="evenodd" clip-rule="evenodd" d="M27.779 61.8751C32.5225 67.176 36.6245 73.0759 39.9376 79.3478C42.4482 83.5054 51.0522 100.391 45.0192 103.814C38.8386 107.223 25.624 89.6993 21.9647 86.3733C18.182 82.3169 14.5912 78.1101 11.1802 73.7365C8.09393 69.7102 2.32393 63.8664 0.737855 58.9006C-0.597295 54.6391 1.73888 50.3639 5.65174 48.7269C11.2178 46.3937 17.0334 51.458 21.2992 55.3612C23.5669 57.4099 25.7327 59.5871 27.779 61.8751Z" fill="#6654F1"/>
</g>
</g>
<g id="Mask group_61">
<mask id="mask60_1_1133" style="mask-type:luminance" maskUnits="userSpaceOnUse" x="0" y="1" width="167" height="106">
<g id="Group_61">
<path id="Vector_61" d="M0.360001 106.33H166.63V1.37231H0.360001V106.33Z" fill="#D9E8FF"/>
</g>
</mask>
<g mask="url(#mask60_1_1133)">
<path id="Fill-110" fill-rule="evenodd" clip-rule="evenodd" d="M39.4874 95.9385C39.3685 95.9385 39.2523 95.8797 39.1833 95.7716C29.9574 81.2908 19.0313 67.9236 6.70623 56.0391C6.56296 55.8996 6.55755 55.6698 6.69406 55.5221C6.83327 55.3771 7.06034 55.373 7.20496 55.5098C19.5706 67.4339 30.5346 80.8463 39.7915 95.3763C39.8997 95.5459 39.851 95.7716 39.6834 95.881C39.6226 95.9193 39.555 95.9385 39.4874 95.9385Z" fill="#D9E8FF"/>
</g>
</g>
<g id="Mask group_62">
<mask id="mask61_1_1133" style="mask-type:luminance" maskUnits="userSpaceOnUse" x="0" y="1" width="167" height="106">
<g id="Group_62">
<path id="Vector_62" d="M0.360001 106.33H166.63V1.37231H0.360001V106.33Z" fill="#D9E8FF"/>
</g>
</mask>
<g mask="url(#mask61_1_1133)">
<path id="Fill-111" fill-rule="evenodd" clip-rule="evenodd" d="M23.5728 84.5073C23.4129 84.5073 23.2699 84.3888 23.2306 84.2117C23.1886 84.006 23.3066 83.8018 23.4942 83.7547C25.3011 83.3033 27.1657 82.8606 29.0355 82.4378C29.2309 82.3921 29.4105 82.5278 29.4499 82.7335C29.4892 82.9391 29.3673 83.1419 29.1784 83.1848C27.3138 83.6061 25.4532 84.0489 23.6515 84.4988C23.6253 84.5045 23.5991 84.5073 23.5728 84.5073Z" fill="#D9E8FF"/>
</g>
</g>
<g id="Mask group_63">
<mask id="mask62_1_1133" style="mask-type:luminance" maskUnits="userSpaceOnUse" x="0" y="1" width="167" height="106">
<g id="Group_63">
<path id="Vector_63" d="M0.360001 106.33H166.63V1.37231H0.360001V106.33Z" fill="#D9E8FF"/>
</g>
</mask>
<g mask="url(#mask62_1_1133)">
<path id="Fill-112" fill-rule="evenodd" clip-rule="evenodd" d="M31.8733 80.3506C31.8215 80.3506 31.7697 80.338 31.7204 80.3112C31.5536 80.2157 31.4879 79.9908 31.5726 79.8053C32.4054 77.9837 33.2256 76.1424 34.0116 74.3279C34.0938 74.1409 34.2922 74.0622 34.4628 74.1536C34.6309 74.2421 34.7004 74.467 34.6195 74.654C33.8322 76.4727 33.0082 78.321 32.1741 80.1454C32.1135 80.2761 31.9959 80.3506 31.8733 80.3506Z" fill="#D9E8FF"/>
</g>
</g>
<g id="Mask group_64">
<mask id="mask63_1_1133" style="mask-type:luminance" maskUnits="userSpaceOnUse" x="0" y="1" width="167" height="106">
<g id="Group_64">
<path id="Vector_64" d="M0.360001 106.33H166.63V1.37231H0.360001V106.33Z" fill="#D9E8FF"/>
</g>
</mask>
<g mask="url(#mask63_1_1133)">
<path id="Fill-113" fill-rule="evenodd" clip-rule="evenodd" d="M18.3791 78.2722C18.2232 78.2722 18.0805 78.1712 18.0382 78.0171C17.988 77.8319 18.099 77.6428 18.288 77.5935C20.1021 77.1169 21.9639 76.6506 23.8243 76.2038C24.0185 76.1585 24.2035 76.2724 24.2511 76.4589C24.2973 76.6442 24.1824 76.832 23.9921 76.8773C22.137 77.3215 20.2779 77.7865 18.4703 78.2606C18.4399 78.2683 18.4082 78.2722 18.3791 78.2722Z" fill="#D9E8FF"/>
</g>
</g>
<g id="Mask group_65">
<mask id="mask64_1_1133" style="mask-type:luminance" maskUnits="userSpaceOnUse" x="0" y="1" width="167" height="106">
<g id="Group_65">
<path id="Vector_65" d="M0.360001 106.33H166.63V1.37231H0.360001V106.33Z" fill="#D9E8FF"/>
</g>
</mask>
<g mask="url(#mask64_1_1133)">
<path id="Fill-114" fill-rule="evenodd" clip-rule="evenodd" d="M27.7371 75.1546C27.6862 75.1546 27.6352 75.1435 27.587 75.1213C27.4074 75.0341 27.3283 74.8153 27.4128 74.6297C28.2303 72.8126 29.0371 70.9651 29.8117 69.1398C29.8908 68.9528 30.1025 68.8683 30.2821 68.9514C30.463 69.0317 30.5461 69.2492 30.4657 69.4375C29.6897 71.2656 28.8816 73.1187 28.0614 74.9413C28.0011 75.0756 27.8724 75.1546 27.7371 75.1546Z" fill="#D9E8FF"/>
</g>
</g>
<g id="Mask group_66">
<mask id="mask65_1_1133" style="mask-type:luminance" maskUnits="userSpaceOnUse" x="0" y="1" width="167" height="106">
<g id="Group_66">
<path id="Vector_66" d="M0.360001 106.33H166.63V1.37231H0.360001V106.33Z" fill="#D9E8FF"/>
</g>
</mask>
<g mask="url(#mask65_1_1133)">
<path id="Fill-115" fill-rule="evenodd" clip-rule="evenodd" d="M13.1863 73.0762C13.0343 73.0762 12.893 72.9895 12.8464 72.8531C12.7877 72.6857 12.8944 72.5077 13.0823 72.4579C14.9126 71.9595 16.7736 71.4705 18.6133 71.0089C18.7999 70.9638 18.9986 71.0599 19.0519 71.2273C19.1052 71.3958 18.9959 71.5702 18.8066 71.6177C16.9723 72.0793 15.1166 72.5659 13.2903 73.0619C13.2556 73.0726 13.2196 73.0762 13.1863 73.0762Z" fill="#D9E8FF"/>
</g>
</g>
<g id="Mask group_67">
<mask id="mask66_1_1133" style="mask-type:luminance" maskUnits="userSpaceOnUse" x="0" y="1" width="167" height="106">
<g id="Group_67">
<path id="Vector_67" d="M0.360001 106.33H166.63V1.37231H0.360001V106.33Z" fill="#D9E8FF"/>
</g>
</mask>
<g mask="url(#mask66_1_1133)">
<path id="Fill-116" fill-rule="evenodd" clip-rule="evenodd" d="M22.5645 68.9195C22.5146 68.9195 22.4646 68.9099 22.416 68.8908C22.2233 68.8115 22.1305 68.5984 22.2133 68.4127C23.0286 66.5618 23.8196 64.7123 24.5649 62.9147C24.642 62.7276 24.8647 62.6347 25.0603 62.7112C25.2559 62.7863 25.3516 62.9967 25.273 63.1852C24.5263 64.9869 23.7325 66.8418 22.9158 68.6954C22.8544 68.8348 22.713 68.9195 22.5645 68.9195Z" fill="#D9E8FF"/>
</g>
</g>
<g id="Mask group_68">
<mask id="mask67_1_1133" style="mask-type:luminance" maskUnits="userSpaceOnUse" x="0" y="1" width="167" height="106">
<g id="Group_68">
<path id="Vector_68" d="M0.360001 106.33H166.63V1.37231H0.360001V106.33Z" fill="#D9E8FF"/>
</g>
</mask>
<g mask="url(#mask67_1_1133)">
<path id="Fill-117" fill-rule="evenodd" clip-rule="evenodd" d="M9.03296 66.8411C8.88494 66.8411 8.74499 66.7645 8.69385 66.643C8.62792 66.491 8.72749 66.3246 8.91589 66.2721C10.7608 65.7546 12.6192 65.2513 14.4412 64.7776C14.6215 64.7261 14.8314 64.8126 14.892 64.9669C14.9512 65.12 14.8476 65.2841 14.6592 65.3334C12.8439 65.8071 10.9896 66.3082 9.15003 66.8236C9.11235 66.8356 9.07198 66.8411 9.03296 66.8411Z" fill="#D9E8FF"/>
</g>
</g>
<g id="Mask group_69">
<mask id="mask68_1_1133" style="mask-type:luminance" maskUnits="userSpaceOnUse" x="0" y="1" width="167" height="106">
<g id="Group_69">
<path id="Vector_69" d="M0.360001 106.33H166.63V1.37231H0.360001V106.33Z" fill="#D9E8FF"/>
</g>
</mask>
<g mask="url(#mask68_1_1133)">
<path id="Fill-118" fill-rule="evenodd" clip-rule="evenodd" d="M17.3954 62.6843C17.3481 62.6843 17.2991 62.6762 17.2502 62.66C17.0408 62.5899 16.9338 62.3807 17.0133 62.1958C17.7822 60.4144 18.5557 58.5615 19.3108 56.687C19.3857 56.4994 19.615 56.4063 19.8336 56.4684C20.0446 56.5345 20.1561 56.741 20.0812 56.9285C19.323 58.8085 18.548 60.6668 17.7776 62.4509C17.7149 62.5953 17.559 62.6843 17.3954 62.6843Z" fill="#D9E8FF"/>
</g>
</g>
<g id="Mask group_70">
<mask id="mask69_1_1133" style="mask-type:luminance" maskUnits="userSpaceOnUse" x="0" y="1" width="167" height="106">
<g id="Group_70">
<path id="Vector_70" d="M0.360001 106.33H166.63V1.37231H0.360001V106.33Z" fill="#D9E8FF"/>
</g>
</mask>
<g mask="url(#mask69_1_1133)">
<path id="Fill-119" fill-rule="evenodd" clip-rule="evenodd" d="M27.7275 90.7424C27.5633 90.7424 27.4187 90.6019 27.3848 90.3976C27.3497 90.1661 27.4734 89.9426 27.661 89.8995C29.4562 89.4748 31.3217 89.0613 33.2067 88.667C33.4061 88.6414 33.5754 88.7851 33.6093 89.0166C33.6406 89.2481 33.5129 89.4684 33.324 89.5099C31.4442 89.9011 29.5826 90.313 27.7939 90.7361C27.7705 90.7408 27.7496 90.7424 27.7275 90.7424Z" fill="#D9E8FF"/>
</g>
</g>
<g id="Mask group_71">
<mask id="mask70_1_1133" style="mask-type:luminance" maskUnits="userSpaceOnUse" x="0" y="1" width="167" height="106">
<g id="Group_71">
<path id="Vector_71" d="M0.360001 106.33H166.63V1.37231H0.360001V106.33Z" fill="#D9E8FF"/>
</g>
</mask>
<g mask="url(#mask70_1_1133)">
<path id="Fill-120" fill-rule="evenodd" clip-rule="evenodd" d="M37.0513 87.6248C36.9986 87.6248 36.9447 87.6091 36.8956 87.5776C36.7412 87.4762 36.6861 87.2433 36.7723 87.059C37.595 85.2845 38.4273 83.4458 39.2464 81.5927C39.329 81.4055 39.523 81.337 39.6775 81.4327C39.8344 81.5298 39.8942 81.7613 39.8128 81.947C38.9925 83.8072 38.1578 85.6503 37.3303 87.429C37.2729 87.5548 37.1639 87.6248 37.0513 87.6248Z" fill="#D9E8FF"/>
</g>
</g>
<g id="Mask group_72">
<mask id="mask71_1_1133" style="mask-type:luminance" maskUnits="userSpaceOnUse" x="0" y="1" width="167" height="106">
<g id="Group_72">
<path id="Vector_72" d="M0.360001 106.33H166.63V1.37231H0.360001V106.33Z" fill="#D9E8FF"/>
</g>
</mask>
<g mask="url(#mask71_1_1133)">
<path id="Fill-121" fill-rule="evenodd" clip-rule="evenodd" d="M32.9721 95.918C32.7787 95.918 32.6091 95.8193 32.5793 95.6821C32.5466 95.5314 32.6954 95.3891 32.9126 95.3673C34.3766 95.2103 35.8466 95.0628 37.3195 94.9225C37.5501 94.9007 37.7376 95.0087 37.7673 95.1605C37.7956 95.3122 37.6453 95.4525 37.4266 95.4722C35.9567 95.6125 34.4927 95.7611 33.0316 95.9149C33.0108 95.917 32.9915 95.918 32.9721 95.918Z" fill="#D9E8FF"/>
</g>
</g>
<g id="Mask group_73">
<mask id="mask72_1_1133" style="mask-type:luminance" maskUnits="userSpaceOnUse" x="0" y="1" width="167" height="106">
<g id="Group_73">
<path id="Vector_73" d="M0.360001 106.33H166.63V1.37231H0.360001V106.33Z" fill="#D9E8FF"/>
</g>
</mask>
<g mask="url(#mask72_1_1133)">
<path id="Fill-122" fill-rule="evenodd" clip-rule="evenodd" d="M40.242 92.8208C40.1729 92.8208 40.1037 92.8054 40.0405 92.7733C39.8538 92.6757 39.7935 92.4663 39.9052 92.3032C40.689 91.1538 41.4669 89.9979 42.233 88.8343C42.3433 88.6712 42.5844 88.6159 42.7712 88.7097C42.9579 88.8047 43.0226 89.0141 42.9138 89.1785C42.1447 90.3433 41.3669 91.5031 40.5787 92.6539C40.5067 92.7617 40.3758 92.8208 40.242 92.8208Z" fill="#D9E8FF"/>
</g>
</g>
<g id="Mask group_74">
<mask id="mask73_1_1133" style="mask-type:luminance" maskUnits="userSpaceOnUse" x="0" y="1" width="167" height="106">
<g id="Group_74">
<path id="Vector_74" d="M0.360001 106.33H166.63V1.37231H0.360001V106.33Z" fill="#D9E8FF"/>
</g>
</mask>
<g mask="url(#mask73_1_1133)">
<path id="Fill-123" fill-rule="evenodd" clip-rule="evenodd" d="M4.84941 61.6453C4.71494 61.6453 4.58795 61.5578 4.53815 61.4147C4.47341 61.2319 4.56056 61.0279 4.73237 60.959C5.89274 60.4953 7.05809 60.0369 8.22841 59.5878C8.40272 59.5216 8.59196 59.6183 8.65421 59.7998C8.71522 59.9839 8.62682 60.1866 8.45501 60.2529C7.28717 60.702 6.12307 61.1577 4.96644 61.6214C4.92784 61.6373 4.888 61.6453 4.84941 61.6453Z" fill="#D9E8FF"/>
</g>
</g>
<g id="Mask group_75">
<mask id="mask74_1_1133" style="mask-type:luminance" maskUnits="userSpaceOnUse" x="0" y="1" width="167" height="106">
<g id="Group_75">
<path id="Vector_75" d="M0.360001 106.33H166.63V1.37231H0.360001V106.33Z" fill="#D9E8FF"/>
</g>
</mask>
<g mask="url(#mask74_1_1133)">
<path id="Fill-124" fill-rule="evenodd" clip-rule="evenodd" d="M11.1173 57.4884C11.079 57.4884 11.0379 57.4825 10.9996 57.4677C10.8081 57.3966 10.7069 57.173 10.7712 56.9657C11.2308 55.5057 11.6781 54.0397 12.1172 52.5663C12.1787 52.3575 12.3825 52.245 12.5768 52.3116C12.7696 52.3783 12.875 52.6004 12.812 52.8092C12.373 54.2855 11.9229 55.7574 11.4633 57.2204C11.4114 57.3862 11.2691 57.4884 11.1173 57.4884Z" fill="#D9E8FF"/>
</g>
</g>
<g id="Mask group_76">
<mask id="mask75_1_1133" style="mask-type:luminance" maskUnits="userSpaceOnUse" x="0" y="1" width="167" height="106">
<g id="Group_76">
<path id="Vector_76" d="M0.360001 106.33H166.63V1.37231H0.360001V106.33Z" fill="#1B00EB"/>
</g>
</mask>
<g mask="url(#mask75_1_1133)">
<path id="Fill-125" fill-rule="evenodd" clip-rule="evenodd" d="M73.1031 106.33C73.0855 105.956 73.0637 105.581 73.0243 105.206C72.6029 100.959 70.5123 96.485 66.5024 94.8508C62.1811 93.0923 57.2686 95.1568 53.3185 97.6194C50.9003 99.1294 48.111 100.881 45.3883 100.01C42.565 99.104 41.4001 95.9037 40.3439 93.1751C38.7141 88.962 36.1314 84.6727 31.8469 83.0653C27.9457 81.6008 23.3594 82.786 20.1188 85.3756C16.881 87.9665 14.8447 91.7681 13.6159 95.6899C12.5937 98.9596 12.0758 102.367 10.9993 105.619C10.9204 105.857 10.8375 106.094 10.7519 106.33H73.1031Z" fill="#1B00EB"/>
</g>
</g>
</g>
</g>
</g>
</g>
</g>
<defs>
<clipPath id="clip0_1_1133">
<rect width="166.27" height="105.997" fill="white" transform="translate(0.360001 0.561279)"/>
</clipPath>
</defs>
</svg>
