<svg width="117" height="107" viewBox="0 0 117 107" fill="none" xmlns="http://www.w3.org/2000/svg">
<g id="Group108.svg" clip-path="url(#clip0_1_882)">
<g id="Marshmello_landing-page">
<g id="Simple_landngpage">
<g id="Group-9">
<g id="Group-108">
<g id="Group-3">
<g id="Mask group">
<mask id="mask0_1_882" style="mask-type:luminance" maskUnits="userSpaceOnUse" x="7" y="1" width="110" height="102">
<g id="Group">
<path id="Vector" d="M7.24963 1.04785H116.315V102.808H7.24963V1.04785Z" fill="#FF99EC"/>
</g>
</mask>
<g mask="url(#mask0_1_882)">
<path id="Fill-1" fill-rule="evenodd" clip-rule="evenodd" d="M114.897 62.6062C114.706 62.0273 114.494 61.4567 114.26 60.8973C112.097 55.7108 108.848 51.0546 106.402 45.9972C101.034 34.9023 105.083 22.4525 97.7895 11.7699C91.002 1.8231 79.1423 -1.61003 68.0931 3.19331C52.6159 9.92215 42.5157 24.8444 27.5622 32.2785C22.0134 35.037 15.866 37.2401 11.9035 42.0074C8.48553 46.1194 7.1804 51.6654 7.25245 57.0157C7.48798 74.7395 20.7124 100.794 42.0336 97.0112C53.0107 95.0635 60.0878 91.0195 71.1356 96.1213C76.9047 98.7868 82.5464 102.264 88.8808 102.752C95.121 103.233 101.385 100.616 105.969 96.3476C114.67 88.2444 118.662 73.9593 114.897 62.6062Z" fill="#FF99EC"/>
</g>
</g>
</g>
<g id="Group-6">
<g id="Mask group_2">
<mask id="mask1_1_882" style="mask-type:luminance" maskUnits="userSpaceOnUse" x="0" y="46" width="48" height="59">
<g id="Group_2">
<path id="Vector_2" d="M0.0599976 46.9397H47.9328V104.241H0.0599976V46.9397Z" fill="#1B00EB"/>
</g>
</mask>
<g mask="url(#mask1_1_882)">
<path id="Fill-4" fill-rule="evenodd" clip-rule="evenodd" d="M28.3183 61.0754C33.1647 66.5021 37.3433 72.5327 40.7017 78.9311C43.2551 83.1764 51.9767 100.399 45.7144 103.814C39.3024 107.213 25.8258 89.2958 22.0795 85.8848C18.214 81.7312 14.5466 77.4249 11.0663 72.9533C7.91983 68.8358 2.01907 62.8469 0.42715 57.7908C-0.911224 53.4526 1.54385 49.1351 5.59915 47.5109C11.3683 45.198 17.3231 50.3956 21.6915 54.3994C24.0136 56.5026 26.2276 58.7335 28.3183 61.0754Z" fill="#1B00EB"/>
</g>
</g>
</g>
<path id="Fill-7" fill-rule="evenodd" clip-rule="evenodd" d="M40.1856 95.047C40.0609 95.047 39.9418 94.9859 39.8711 94.8749C30.5537 80.0914 19.481 66.4185 6.96178 54.238C6.81492 54.095 6.81076 53.8604 6.95485 53.7147C7.09617 53.5647 7.33031 53.562 7.47856 53.7063C20.0393 65.9271 31.1481 79.6444 40.4973 94.4792C40.6068 94.6527 40.5541 94.8818 40.3824 94.9901C40.3214 95.029 40.2521 95.047 40.1856 95.047Z" fill="#D9E8FF"/>
<path id="Fill-9" fill-rule="evenodd" clip-rule="evenodd" d="M23.1729 83.6182C23.0024 83.6182 22.85 83.5002 22.8113 83.328C22.7669 83.1267 22.8944 82.9296 23.0939 82.8866C25.0502 82.4562 27.0245 82.0439 28.96 81.6621C29.1609 81.6191 29.3563 81.7524 29.3951 81.9537C29.4352 82.1536 29.305 82.3493 29.1027 82.3882C27.1741 82.7714 25.2054 83.1823 23.2518 83.6099C23.2255 83.6154 23.1992 83.6182 23.1729 83.6182Z" fill="#D9E8FF"/>
<path id="Fill-11" fill-rule="evenodd" clip-rule="evenodd" d="M32.3327 79.9376C32.2745 79.9376 32.2163 79.9251 32.1623 79.8973C31.9808 79.8015 31.9087 79.578 32.0043 79.3962C32.9298 77.6136 33.8456 75.802 34.7282 74.0111C34.8196 73.8279 35.0427 73.7557 35.2242 73.8432C35.4085 73.9348 35.4819 74.1569 35.3918 74.3401C34.5065 76.1365 33.5879 77.951 32.6597 79.7377C32.5946 79.8654 32.4657 79.9376 32.3327 79.9376Z" fill="#D9E8FF"/>
<path id="Fill-13" fill-rule="evenodd" clip-rule="evenodd" d="M18.4521 77.6328C18.2873 77.6328 18.1362 77.5231 18.0933 77.3551C18.0434 77.1566 18.1626 76.9553 18.3607 76.9039C20.2782 76.4083 22.2359 75.9266 24.1797 75.4699C24.3778 75.4213 24.5773 75.5476 24.6244 75.7475C24.6702 75.9461 24.5469 76.146 24.3487 76.1918C22.4104 76.6471 20.4583 77.1275 18.5436 77.6217C18.5131 77.63 18.4812 77.6328 18.4521 77.6328Z" fill="#D9E8FF"/>
<path id="Fill-15" fill-rule="evenodd" clip-rule="evenodd" d="M27.4753 73.6265C27.4227 73.6265 27.3673 73.6154 27.316 73.5918C27.1317 73.503 27.0528 73.2822 27.1414 73.0962C28.006 71.2776 28.8567 69.434 29.6727 67.6196C29.7558 67.4335 29.9817 67.3489 30.1604 67.4335C30.3488 67.5182 30.4319 67.7362 30.3474 67.9236C29.53 69.7436 28.6765 71.5913 27.8092 73.4169C27.7455 73.5488 27.6139 73.6265 27.4753 73.6265Z" fill="#D9E8FF"/>
<path id="Fill-17" fill-rule="evenodd" clip-rule="evenodd" d="M13.5219 71.8182C13.3626 71.8182 13.2143 71.7141 13.1672 71.5531C13.109 71.3573 13.2212 71.1519 13.418 71.0936C15.3369 70.5244 17.2752 69.9732 19.1816 69.4526C19.3797 69.4013 19.5806 69.5165 19.636 69.7122C19.6887 69.9108 19.5723 70.1135 19.3769 70.169C17.476 70.6868 15.5419 71.2365 13.6272 71.8029C13.5925 71.8141 13.5565 71.8182 13.5219 71.8182Z" fill="#D9E8FF"/>
<path id="Fill-19" fill-rule="evenodd" clip-rule="evenodd" d="M22.3962 67.4936C22.3477 67.4936 22.2978 67.4839 22.2507 67.4644C22.0623 67.3825 21.975 67.1646 22.0567 66.9758C22.8492 65.1447 23.6362 63.2705 24.3926 61.4103C24.4702 61.2201 24.6864 61.1298 24.8762 61.2076C25.0646 61.2839 25.1547 61.5005 25.0785 61.6893C24.3178 63.5565 23.5309 65.4334 22.7356 67.2715C22.6746 67.4103 22.5403 67.4936 22.3962 67.4936Z" fill="#D9E8FF"/>
<path id="Fill-21" fill-rule="evenodd" clip-rule="evenodd" d="M8.38439 66.1812C8.2306 66.1812 8.08512 66.0826 8.03386 65.9271C7.96874 65.7328 8.07265 65.5218 8.26801 65.4579C10.1883 64.8165 12.1086 64.196 13.972 63.6157C14.1702 63.5532 14.3752 63.6657 14.4348 63.86C14.4957 64.0558 14.3877 64.2626 14.1909 64.3237C12.3316 64.9026 10.4169 65.5204 8.50215 66.1604C8.46474 66.1742 8.42318 66.1812 8.38439 66.1812Z" fill="#D9E8FF"/>
<path id="Fill-23" fill-rule="evenodd" clip-rule="evenodd" d="M17.1018 61.5446C17.0575 61.5446 17.0118 61.5349 16.9674 61.5182C16.779 61.4446 16.6834 61.2281 16.7582 61.0379C17.4912 59.1582 18.2102 57.2591 18.8933 55.3919C18.9625 55.2003 19.1773 55.1017 19.3671 55.1711C19.5597 55.242 19.658 55.4544 19.5874 55.6473C18.903 57.5201 18.1811 59.4247 17.4468 61.3086C17.39 61.4558 17.2501 61.5446 17.1018 61.5446Z" fill="#D9E8FF"/>
<path id="Fill-25" fill-rule="evenodd" clip-rule="evenodd" d="M27.6783 89.7692C27.5037 89.7692 27.3486 89.6442 27.3139 89.4651C27.2793 89.2638 27.4123 89.0709 27.6132 89.0348C29.5834 88.6752 31.5701 88.3351 33.5195 88.0214C33.7273 87.9978 33.9116 88.1255 33.9421 88.3295C33.9767 88.5308 33.8382 88.721 33.6373 88.7543C31.6921 89.0653 29.7108 89.4054 27.7462 89.7636C27.7227 89.7678 27.7019 89.7692 27.6783 89.7692Z" fill="#D9E8FF"/>
<path id="Fill-27" fill-rule="evenodd" clip-rule="evenodd" d="M36.9627 86.4191C36.9017 86.4191 36.8394 86.4039 36.7812 86.3719C36.6039 86.272 36.5401 86.0443 36.6427 85.8666C37.6263 84.1271 38.6059 82.3474 39.5549 80.5801C39.6505 80.4011 39.8778 80.3344 40.0551 80.4302C40.2352 80.5274 40.3031 80.7523 40.2061 80.9328C39.2543 82.7028 38.2706 84.4867 37.2855 86.2317C37.2176 86.3525 37.0929 86.4191 36.9627 86.4191Z" fill="#D9E8FF"/>
<path id="Fill-29" fill-rule="evenodd" clip-rule="evenodd" d="M33.338 95.2679C33.1565 95.2679 32.9986 95.1346 32.9722 94.95C32.9431 94.7473 33.0845 94.5585 33.2867 94.5307C34.6528 94.3363 36.0217 94.1517 37.3961 93.9768C37.5942 93.9365 37.7826 94.0934 37.8103 94.2975C37.8353 94.5002 37.6926 94.6862 37.4889 94.7126C36.1201 94.8875 34.7526 95.0707 33.3907 95.2651C33.3726 95.2679 33.356 95.2679 33.338 95.2679Z" fill="#D9E8FF"/>
<path id="Fill-31" fill-rule="evenodd" clip-rule="evenodd" d="M40.9013 92.4861C40.8348 92.4861 40.7697 92.4694 40.7088 92.4319C40.5342 92.3264 40.4802 92.0987 40.5855 91.9238C41.3364 90.6883 42.0818 89.4472 42.8147 88.195C42.9186 88.0187 43.143 87.9604 43.3218 88.0631C43.4977 88.1686 43.5559 88.3949 43.452 88.5726C42.7163 89.8262 41.9709 91.07 41.2186 92.3084C41.148 92.4236 41.026 92.4861 40.9013 92.4861Z" fill="#D9E8FF"/>
<path id="Fill-33" fill-rule="evenodd" clip-rule="evenodd" d="M4.72325 60.1386C4.57223 60.1386 4.43091 60.047 4.37411 59.8956C4.30483 59.7041 4.4032 59.4903 4.5944 59.4195C5.89121 58.9461 7.19218 58.4769 8.50007 58.0201C8.68988 57.9479 8.90463 58.0534 8.96975 58.2478C9.03764 58.4394 8.93511 58.6518 8.74253 58.7198C7.44018 59.1765 6.1406 59.643 4.85071 60.1164C4.80776 60.1316 4.76481 60.1386 4.72325 60.1386Z" fill="#D9E8FF"/>
<path id="Fill-35" fill-rule="evenodd" clip-rule="evenodd" d="M11.5411 55.8385C11.5009 55.8385 11.4579 55.8316 11.4178 55.8163C11.2252 55.7497 11.124 55.5373 11.1919 55.3457C11.6699 53.9797 12.1368 52.6081 12.594 51.2323C12.6605 51.0394 12.8684 50.9325 13.0623 50.9991C13.2563 51.063 13.3602 51.2726 13.2978 51.4683C12.8379 52.8469 12.3682 54.2212 11.8902 55.5887C11.8376 55.7428 11.6935 55.8385 11.5411 55.8385Z" fill="#D9E8FF"/>
<path id="Fill-37" fill-rule="evenodd" clip-rule="evenodd" d="M0.880615 103.997C0.911096 103.288 0.956817 102.579 1.02471 101.868C1.81166 93.8173 5.7007 85.3365 13.1574 82.2379C21.1932 78.902 30.3318 82.8168 37.6762 87.4869C42.1735 90.3481 47.3593 93.6688 52.4233 92.014C57.6743 90.3009 59.8425 84.2329 61.8058 79.0602C64.8358 71.0736 69.6407 62.9427 77.6072 59.8941C84.8629 57.119 93.392 59.3665 99.4174 64.2754C105.443 69.1856 109.229 76.3906 111.513 83.8289C113.414 90.026 114.378 96.4855 116.38 102.651C116.527 103.101 116.681 103.55 116.84 103.997H0.880615Z" fill="#FF99EC"/>
<path id="Fill-39" fill-rule="evenodd" clip-rule="evenodd" d="M105.7 70.7161C105.475 70.5092 105.12 70.5328 104.906 70.7744C102.003 74.0396 99.1948 77.4074 96.4834 80.8739C95.6327 78.4611 94.8222 76.0164 94.0546 73.5426C93.9604 73.2371 93.6431 73.0914 93.3425 73.2135C93.0432 73.3357 92.8784 73.6828 92.9726 73.984C93.8163 76.6758 94.7086 79.3302 95.6493 81.9484C93.9646 84.1335 92.3186 86.3575 90.7129 88.6189C89.7583 86.2381 88.8438 83.8225 87.9682 81.3792C87.8629 81.078 87.5373 80.9447 87.2436 81.0821C86.9485 81.2182 86.7975 81.5736 86.9069 81.8734C87.8657 84.5319 88.8716 87.153 89.9245 89.7365C88.3326 92.0104 86.7822 94.3219 85.2721 96.6694C84.2163 94.3247 83.198 91.9452 82.2185 89.5338C82.0979 89.2367 81.7682 89.1187 81.48 89.27C81.1918 89.4227 81.0547 89.7851 81.1766 90.0808C82.249 92.7032 83.3684 95.2867 84.5322 97.83C84.1041 98.5061 83.6815 99.1835 83.2617 99.8638L84.5752 99.8513C84.8675 99.382 85.1598 98.9128 85.4563 98.4464C88.1913 98.5061 90.9193 98.6046 93.6376 98.7407C93.9452 98.7546 94.2098 98.5144 94.2334 98.202C94.2555 97.8897 94.0269 97.6204 93.7207 97.6037C91.2186 97.469 88.7081 97.3635 86.192 97.2913C87.6939 94.9549 89.2373 92.6546 90.8209 90.3917C93.5475 90.5833 96.2645 90.811 98.9731 91.0748C99.2765 91.1053 99.5522 90.879 99.5882 90.5694C99.6243 90.2585 99.4081 89.9822 99.1019 89.9503C96.6108 89.6962 94.1128 89.4727 91.6051 89.2798C93.2012 87.0294 94.8388 84.8165 96.5153 82.6425C99.228 82.9618 101.928 83.3186 104.618 83.7115C104.921 83.7559 105.206 83.5435 105.255 83.2395C105.305 82.9313 105.098 82.6453 104.796 82.6009C102.322 82.2274 99.839 81.8859 97.3452 81.5736C100.041 78.1238 102.836 74.7726 105.723 71.524C105.935 71.2853 105.925 70.9229 105.7 70.7161Z" fill="#887BF1"/>
<path id="Fill-41" fill-rule="evenodd" clip-rule="evenodd" d="M89.0576 79.1513C90.1549 80.0397 90.3018 81.7362 89.3984 82.962C88.4965 84.1864 86.863 84.503 85.7394 83.6464C84.6185 82.7913 84.4495 81.0615 85.3792 79.8037C86.3088 78.5446 87.9617 78.2628 89.0576 79.1513Z" fill="#1B00EB"/>
<path id="Fill-43" fill-rule="evenodd" clip-rule="evenodd" d="M100.738 88.3483C101.853 89.2104 102.065 90.818 101.224 91.9633C100.382 93.1086 98.7859 93.3807 97.6471 92.5519C96.5068 91.7245 96.274 90.0808 97.1414 88.9036C98.0073 87.7264 99.6241 87.4862 100.738 88.3483Z" fill="#1B00EB"/>
<path id="Fill-45" fill-rule="evenodd" clip-rule="evenodd" d="M91.7338 75.6929C90.6518 74.7891 90.5562 73.0607 91.5371 71.8516C92.518 70.6438 94.1806 70.4425 95.2349 71.3796C96.2921 72.3153 96.3669 74.0089 95.4123 75.1862C94.4591 76.3606 92.8173 76.598 91.7338 75.6929Z" fill="#1B00EB"/>
<path id="Fill-47" fill-rule="evenodd" clip-rule="evenodd" d="M106.495 81.0859C107.57 81.9952 107.714 83.6056 106.826 84.7037C105.94 85.8004 104.334 85.9948 103.234 85.116C102.132 84.2387 101.97 82.595 102.885 81.4649C103.799 80.3363 105.421 80.1753 106.495 81.0859Z" fill="#1B00EB"/>
<path id="Fill-49" fill-rule="evenodd" clip-rule="evenodd" d="M83.2113 87.2448C84.3474 88.0833 84.5663 89.7798 83.7156 91.0528C82.8649 92.3272 81.2467 92.7215 80.0857 91.9163C78.9274 91.1125 78.6835 89.3827 79.5592 88.0764C80.4348 86.7687 82.0766 86.4063 83.2113 87.2448Z" fill="#1B00EB"/>
<path id="Fill-51" fill-rule="evenodd" clip-rule="evenodd" d="M95.2883 95.9172C96.441 96.728 96.7209 98.3355 95.9297 99.5253C95.1359 100.714 93.5509 101.063 92.3746 100.287C91.1997 99.5086 90.8991 97.8719 91.7151 96.6474C92.5312 95.4244 94.1369 95.1065 95.2883 95.9172Z" fill="#1B00EB"/>
<path id="Fill-53" fill-rule="evenodd" clip-rule="evenodd" d="M107.112 69.0701C108.137 70.0391 108.175 71.6898 107.208 72.7768C106.241 73.8638 104.614 74.0012 103.561 73.0614C102.51 72.1229 102.456 70.4376 103.449 69.3214C104.444 68.2025 106.09 68.1011 107.112 69.0701Z" fill="#1B00EB"/>
<path id="Fill-55" fill-rule="evenodd" clip-rule="evenodd" d="M51.95 63.246H48.3962L44.3659 38.5657H55.979L51.95 63.246Z" fill="#FFCE0A"/>
<g id="Mask group_3">
<mask id="mask2_1_882" style="mask-type:luminance" maskUnits="userSpaceOnUse" x="0" y="1" width="117" height="105">
<g id="Group_3">
<path id="Vector_3" d="M0.0599976 105.748H116.841V1.04785H0.0599976V105.748Z" fill="#FFCE0A"/>
</g>
</mask>
<g mask="url(#mask2_1_882)">
<path id="Fill-57" fill-rule="evenodd" clip-rule="evenodd" d="M39.4229 63.583H60.92V59.2864H39.4229V63.583Z" fill="#FFCE0A"/>
</g>
</g>
<g id="Mask group_4">
<mask id="mask3_1_882" style="mask-type:luminance" maskUnits="userSpaceOnUse" x="0" y="1" width="117" height="105">
<g id="Group_4">
<path id="Vector_4" d="M0.0599976 105.748H116.841V1.04785H0.0599976V105.748Z" fill="#FFCE0A"/>
</g>
</mask>
<g mask="url(#mask3_1_882)">
<path id="Fill-59" fill-rule="evenodd" clip-rule="evenodd" d="M29.8703 18.4382C29.1928 19.9153 28.8229 21.491 28.8229 23.1291C28.8229 26.3096 30.2083 29.261 32.5734 31.6974C36.3363 35.572 38.657 40.6211 39.0006 46.0158V46.0186C39.0006 50.8886 61.5645 50.8886 61.5645 46.0186L61.5798 45.7756C61.9192 40.4461 64.1928 35.4512 67.8754 31.5891C70.1781 29.1736 71.5206 26.2624 71.5206 23.1291C71.5206 21.491 71.1535 19.9153 70.476 18.4382H29.8703Z" fill="#FFCE0A"/>
</g>
</g>
<g id="Mask group_5">
<mask id="mask4_1_882" style="mask-type:luminance" maskUnits="userSpaceOnUse" x="0" y="1" width="117" height="105">
<g id="Group_5">
<path id="Vector_5" d="M0.0599976 105.748H116.841V1.04785H0.0599976V105.748Z" fill="#FFCE0A"/>
</g>
</mask>
<g mask="url(#mask4_1_882)">
<path id="Fill-60" fill-rule="evenodd" clip-rule="evenodd" d="M25.4905 30.7481C23.4552 30.7481 21.801 32.4071 21.801 34.4464C21.801 36.4858 23.4552 38.1447 25.4905 38.1447H41.5621C43.5946 38.1447 45.2516 36.4858 45.2516 34.4464C45.2516 32.4071 43.5946 30.7481 41.5621 30.7481H25.4905ZM41.5621 43.1966H25.4905C20.6746 43.1966 16.7564 39.272 16.7564 34.4464C16.7564 29.6209 20.6746 25.6963 25.4905 25.6963H41.5621C46.3752 25.6963 50.2934 29.6209 50.2934 34.4464C50.2934 39.272 46.3752 43.1966 41.5621 43.1966Z" fill="#FFCE0A"/>
</g>
</g>
<g id="Mask group_6">
<mask id="mask5_1_882" style="mask-type:luminance" maskUnits="userSpaceOnUse" x="0" y="1" width="117" height="105">
<g id="Group_6">
<path id="Vector_6" d="M0.0599976 105.748H116.841V1.04785H0.0599976V105.748Z" fill="#FFCE0A"/>
</g>
</mask>
<g mask="url(#mask5_1_882)">
<path id="Fill-61" fill-rule="evenodd" clip-rule="evenodd" d="M59.0884 30.7345C57.0448 30.7345 55.3836 32.4004 55.3836 34.4467C55.3836 36.4916 57.0448 38.1589 59.0884 38.1589H74.8538C76.8974 38.1589 78.5586 36.4916 78.5586 34.4467C78.5586 32.4004 76.8974 30.7345 74.8538 30.7345H59.0884ZM74.8538 43.183H59.0884C54.2794 43.183 50.3696 39.2653 50.3696 34.4467C50.3696 29.6281 54.2794 25.7104 59.0884 25.7104H74.8538C79.6628 25.7104 83.574 29.6281 83.574 34.4467C83.574 39.2653 79.6628 43.183 74.8538 43.183Z" fill="#FFCE0A"/>
</g>
</g>
<g id="Mask group_7">
<mask id="mask6_1_882" style="mask-type:luminance" maskUnits="userSpaceOnUse" x="0" y="1" width="117" height="105">
<g id="Group_7">
<path id="Vector_7" d="M0.0599976 105.748H116.841V1.04785H0.0599976V105.748Z" fill="#310F57"/>
</g>
</mask>
<g mask="url(#mask6_1_882)">
<path id="Fill-62" fill-rule="evenodd" clip-rule="evenodd" d="M55.8602 75.5912H86.4849V65.0225H55.8602V75.5912Z" fill="#310F57"/>
</g>
</g>
<g id="Mask group_8">
<mask id="mask7_1_882" style="mask-type:luminance" maskUnits="userSpaceOnUse" x="0" y="1" width="117" height="105">
<g id="Group_8">
<path id="Vector_8" d="M0.0599976 105.748H116.841V1.04785H0.0599976V105.748Z" fill="#FEFFFE"/>
</g>
</mask>
<g mask="url(#mask7_1_882)">
<path id="Fill-63" fill-rule="evenodd" clip-rule="evenodd" d="M32.5287 75.5912H55.8616V65.0225H32.5287V75.5912Z" fill="#FEFFFE"/>
</g>
</g>
<g id="Mask group_9">
<mask id="mask8_1_882" style="mask-type:luminance" maskUnits="userSpaceOnUse" x="0" y="1" width="117" height="105">
<g id="Group_9">
<path id="Vector_9" d="M0.0599976 105.748H116.841V1.04785H0.0599976V105.748Z" fill="#C2C4EF"/>
</g>
</mask>
<g mask="url(#mask8_1_882)">
<path id="Fill-64" fill-rule="evenodd" clip-rule="evenodd" d="M32.5274 68.1267H55.8616V67.2021H32.5274V68.1267Z" fill="#C2C4EF"/>
</g>
</g>
<g id="Mask group_10">
<mask id="mask9_1_882" style="mask-type:luminance" maskUnits="userSpaceOnUse" x="0" y="1" width="117" height="105">
<g id="Group_10">
<path id="Vector_10" d="M0.0599976 105.748H116.841V1.04785H0.0599976V105.748Z" fill="#C2C4EF"/>
</g>
</mask>
<g mask="url(#mask9_1_882)">
<path id="Fill-65" fill-rule="evenodd" clip-rule="evenodd" d="M32.5274 73.4116H55.8616V72.4871H32.5274V73.4116Z" fill="#C2C4EF"/>
</g>
</g>
<g id="Mask group_11">
<mask id="mask10_1_882" style="mask-type:luminance" maskUnits="userSpaceOnUse" x="0" y="1" width="117" height="105">
<g id="Group_11">
<path id="Vector_11" d="M0.0599976 105.748H116.841V1.04785H0.0599976V105.748Z" fill="#C2C4EF"/>
</g>
</mask>
<g mask="url(#mask10_1_882)">
<path id="Fill-66" fill-rule="evenodd" clip-rule="evenodd" d="M32.5274 70.7686H55.8616V69.844H32.5274V70.7686Z" fill="#C2C4EF"/>
</g>
</g>
<g id="Mask group_12">
<mask id="mask11_1_882" style="mask-type:luminance" maskUnits="userSpaceOnUse" x="0" y="1" width="117" height="105">
<g id="Group_12">
<path id="Vector_12" d="M0.0599976 105.748H116.841V1.04785H0.0599976V105.748Z" fill="#310F57"/>
</g>
</mask>
<g mask="url(#mask11_1_882)">
<path id="Fill-67" fill-rule="evenodd" clip-rule="evenodd" d="M31.6711 65.0225H86.4849V63.5371H31.6711V65.0225Z" fill="#310F57"/>
</g>
</g>
<g id="Mask group_13">
<mask id="mask12_1_882" style="mask-type:luminance" maskUnits="userSpaceOnUse" x="0" y="1" width="117" height="105">
<g id="Group_13">
<path id="Vector_13" d="M0.0599976 105.748H116.841V1.04785H0.0599976V105.748Z" fill="#310F57"/>
</g>
</mask>
<g mask="url(#mask12_1_882)">
<path id="Fill-68" fill-rule="evenodd" clip-rule="evenodd" d="M31.6711 77.0753H86.4849V75.5913H31.6711V77.0753Z" fill="#310F57"/>
</g>
</g>
<g id="Mask group_14">
<mask id="mask13_1_882" style="mask-type:luminance" maskUnits="userSpaceOnUse" x="0" y="1" width="117" height="105">
<g id="Group_14">
<path id="Vector_14" d="M0.0599976 105.748H116.841V1.04785H0.0599976V105.748Z" fill="#887BF1"/>
</g>
</mask>
<g mask="url(#mask13_1_882)">
<path id="Fill-69" fill-rule="evenodd" clip-rule="evenodd" d="M53.5035 89.1309H84.1268V78.5608H53.5035V89.1309Z" fill="#887BF1"/>
</g>
</g>
<g id="Mask group_15">
<mask id="mask14_1_882" style="mask-type:luminance" maskUnits="userSpaceOnUse" x="0" y="1" width="117" height="105">
<g id="Group_15">
<path id="Vector_15" d="M0.0599976 105.748H116.841V1.04785H0.0599976V105.748Z" fill="#FEFFFE"/>
</g>
</mask>
<g mask="url(#mask14_1_882)">
<path id="Fill-70" fill-rule="evenodd" clip-rule="evenodd" d="M30.1707 89.1309H53.5049V78.5608H30.1707V89.1309Z" fill="#FEFFFE"/>
</g>
</g>
<g id="Mask group_16">
<mask id="mask15_1_882" style="mask-type:luminance" maskUnits="userSpaceOnUse" x="0" y="1" width="117" height="105">
<g id="Group_16">
<path id="Vector_16" d="M0.0599976 105.748H116.841V1.04785H0.0599976V105.748Z" fill="#C2C4EF"/>
</g>
</mask>
<g mask="url(#mask15_1_882)">
<path id="Fill-71" fill-rule="evenodd" clip-rule="evenodd" d="M30.1707 81.6663H53.5049V80.7417H30.1707V81.6663Z" fill="#C2C4EF"/>
</g>
</g>
<g id="Mask group_17">
<mask id="mask16_1_882" style="mask-type:luminance" maskUnits="userSpaceOnUse" x="0" y="1" width="117" height="105">
<g id="Group_17">
<path id="Vector_17" d="M0.0599976 105.748H116.841V1.04785H0.0599976V105.748Z" fill="#C2C4EF"/>
</g>
</mask>
<g mask="url(#mask16_1_882)">
<path id="Fill-72" fill-rule="evenodd" clip-rule="evenodd" d="M30.1707 86.9514H53.5049V86.0269H30.1707V86.9514Z" fill="#C2C4EF"/>
</g>
</g>
<g id="Mask group_18">
<mask id="mask17_1_882" style="mask-type:luminance" maskUnits="userSpaceOnUse" x="0" y="1" width="117" height="105">
<g id="Group_18">
<path id="Vector_18" d="M0.0599976 105.748H116.841V1.04785H0.0599976V105.748Z" fill="#C2C4EF"/>
</g>
</mask>
<g mask="url(#mask17_1_882)">
<path id="Fill-73" fill-rule="evenodd" clip-rule="evenodd" d="M30.1707 84.3081H53.5049V83.3835H30.1707V84.3081Z" fill="#C2C4EF"/>
</g>
</g>
<g id="Mask group_19">
<mask id="mask18_1_882" style="mask-type:luminance" maskUnits="userSpaceOnUse" x="0" y="1" width="117" height="105">
<g id="Group_19">
<path id="Vector_19" d="M0.0599976 105.748H116.841V1.04785H0.0599976V105.748Z" fill="#887BF1"/>
</g>
</mask>
<g mask="url(#mask18_1_882)">
<path id="Fill-74" fill-rule="evenodd" clip-rule="evenodd" d="M29.313 78.5607H84.1268V77.0767H29.313V78.5607Z" fill="#887BF1"/>
</g>
</g>
<g id="Mask group_20">
<mask id="mask19_1_882" style="mask-type:luminance" maskUnits="userSpaceOnUse" x="0" y="1" width="117" height="105">
<g id="Group_20">
<path id="Vector_20" d="M0.0599976 105.748H116.841V1.04785H0.0599976V105.748Z" fill="#887BF1"/>
</g>
</mask>
<g mask="url(#mask19_1_882)">
<path id="Fill-75" fill-rule="evenodd" clip-rule="evenodd" d="M29.313 90.6149H84.1268V89.1309H29.313V90.6149Z" fill="#887BF1"/>
</g>
</g>
<g id="Mask group_21">
<mask id="mask20_1_882" style="mask-type:luminance" maskUnits="userSpaceOnUse" x="0" y="1" width="117" height="105">
<g id="Group_21">
<path id="Vector_21" d="M0.0599976 105.748H116.841V1.04785H0.0599976V105.748Z" fill="#310F57"/>
</g>
</mask>
<g mask="url(#mask20_1_882)">
<path id="Fill-76" fill-rule="evenodd" clip-rule="evenodd" d="M32.9056 102.756H63.5303V92.1877H32.9056V102.756Z" fill="#310F57"/>
</g>
</g>
<g id="Mask group_22">
<mask id="mask21_1_882" style="mask-type:luminance" maskUnits="userSpaceOnUse" x="0" y="1" width="117" height="105">
<g id="Group_22">
<path id="Vector_22" d="M0.0599976 105.748H116.841V1.04785H0.0599976V105.748Z" fill="#FEFFFE"/>
</g>
</mask>
<g mask="url(#mask21_1_882)">
<path id="Fill-77" fill-rule="evenodd" clip-rule="evenodd" d="M63.5289 102.756H86.8618V92.1877H63.5289V102.756Z" fill="#FEFFFE"/>
</g>
</g>
<g id="Mask group_23">
<mask id="mask22_1_882" style="mask-type:luminance" maskUnits="userSpaceOnUse" x="0" y="1" width="117" height="105">
<g id="Group_23">
<path id="Vector_23" d="M0.0599976 105.748H116.841V1.04785H0.0599976V105.748Z" fill="#C2C4EF"/>
</g>
</mask>
<g mask="url(#mask22_1_882)">
<path id="Fill-78" fill-rule="evenodd" clip-rule="evenodd" d="M63.5289 95.292H86.8618V94.3674H63.5289V95.292Z" fill="#C2C4EF"/>
</g>
</g>
<g id="Mask group_24">
<mask id="mask23_1_882" style="mask-type:luminance" maskUnits="userSpaceOnUse" x="0" y="1" width="117" height="105">
<g id="Group_24">
<path id="Vector_24" d="M0.0599976 105.748H116.841V1.04785H0.0599976V105.748Z" fill="#C2C4EF"/>
</g>
</mask>
<g mask="url(#mask23_1_882)">
<path id="Fill-79" fill-rule="evenodd" clip-rule="evenodd" d="M63.5289 100.577H86.8618V99.6523H63.5289V100.577Z" fill="#C2C4EF"/>
</g>
</g>
<g id="Mask group_25">
<mask id="mask24_1_882" style="mask-type:luminance" maskUnits="userSpaceOnUse" x="0" y="1" width="117" height="105">
<g id="Group_25">
<path id="Vector_25" d="M0.0599976 105.748H116.841V1.04785H0.0599976V105.748Z" fill="#C2C4EF"/>
</g>
</mask>
<g mask="url(#mask24_1_882)">
<path id="Fill-80" fill-rule="evenodd" clip-rule="evenodd" d="M63.5289 97.9351H86.8618V97.0105H63.5289V97.9351Z" fill="#C2C4EF"/>
</g>
</g>
<g id="Mask group_26">
<mask id="mask25_1_882" style="mask-type:luminance" maskUnits="userSpaceOnUse" x="0" y="1" width="117" height="105">
<g id="Group_26">
<path id="Vector_26" d="M0.0599976 105.748H116.841V1.04785H0.0599976V105.748Z" fill="#310F57"/>
</g>
</mask>
<g mask="url(#mask25_1_882)">
<path id="Fill-81" fill-rule="evenodd" clip-rule="evenodd" d="M32.9056 92.1878H87.7208V90.7024H32.9056V92.1878Z" fill="#310F57"/>
</g>
</g>
<g id="Mask group_27">
<mask id="mask26_1_882" style="mask-type:luminance" maskUnits="userSpaceOnUse" x="0" y="1" width="117" height="105">
<g id="Group_27">
<path id="Vector_27" d="M0.0599976 105.748H116.841V1.04785H0.0599976V105.748Z" fill="#310F57"/>
</g>
</mask>
<g mask="url(#mask26_1_882)">
<path id="Fill-82" fill-rule="evenodd" clip-rule="evenodd" d="M32.9056 104.242H87.7208V102.758H32.9056V104.242Z" fill="#310F57"/>
</g>
</g>
<g id="Mask group_28">
<mask id="mask27_1_882" style="mask-type:luminance" maskUnits="userSpaceOnUse" x="0" y="1" width="117" height="105">
<g id="Group_28">
<path id="Vector_28" d="M0.0599976 105.748H116.841V1.04785H0.0599976V105.748Z" fill="#FC957E"/>
</g>
</mask>
<g mask="url(#mask27_1_882)">
<path id="Fill-83" fill-rule="evenodd" clip-rule="evenodd" d="M92.2548 52.8733L92.0386 54.8488L79.2645 54.424L79.5042 50.9937L92.2548 52.8733Z" fill="#FC957E"/>
</g>
</g>
<g id="Mask group_29">
<mask id="mask28_1_882" style="mask-type:luminance" maskUnits="userSpaceOnUse" x="0" y="1" width="117" height="105">
<g id="Group_29">
<path id="Vector_29" d="M0.0599976 105.748H116.841V1.04785H0.0599976V105.748Z" fill="#FCD4CB"/>
</g>
</mask>
<g mask="url(#mask28_1_882)">
<path id="Fill-84" fill-rule="evenodd" clip-rule="evenodd" d="M85.0662 102.341L88.3623 102.838L88.9081 99.2074L85.6135 98.7104L85.0662 102.341Z" fill="#FCD4CB"/>
</g>
</g>
<g id="Mask group_30">
<mask id="mask29_1_882" style="mask-type:luminance" maskUnits="userSpaceOnUse" x="0" y="1" width="117" height="105">
<g id="Group_30">
<path id="Vector_30" d="M0.0599976 105.748H116.841V1.04785H0.0599976V105.748Z" fill="#6654F1"/>
</g>
</mask>
<g mask="url(#mask29_1_882)">
<path id="Fill-85" fill-rule="evenodd" clip-rule="evenodd" d="M93.5076 104.439L93.3095 105.747L87.2411 104.831C87.1996 104.636 87.1594 104.441 87.1192 104.244C87.0527 104.424 86.9862 104.603 86.9197 104.784L84.7486 104.456L85.0659 102.34L88.362 102.839L93.5076 104.439Z" fill="#6654F1"/>
</g>
</g>
<g id="Mask group_31">
<mask id="mask30_1_882" style="mask-type:luminance" maskUnits="userSpaceOnUse" x="0" y="1" width="117" height="105">
<g id="Group_31">
<path id="Vector_31" d="M0.0599976 105.748H116.841V1.04785H0.0599976V105.748Z" fill="#6654F1"/>
</g>
</mask>
<g mask="url(#mask30_1_882)">
<path id="Fill-86" fill-rule="evenodd" clip-rule="evenodd" d="M87.135 82.3967L87.6739 82.2398C89.3448 81.7512 90.3036 79.9992 89.8173 78.3264L84.9307 59.9029C84.4444 58.2287 83.2127 60.6553 81.5418 61.1426L81.0028 61.3009C79.3333 61.7868 78.3746 63.5387 78.8595 65.213L83.2307 80.2491C83.717 81.9219 85.4655 82.884 87.135 82.3967Z" fill="#6654F1"/>
</g>
</g>
<g id="Mask group_32">
<mask id="mask31_1_882" style="mask-type:luminance" maskUnits="userSpaceOnUse" x="0" y="1" width="117" height="105">
<g id="Group_32">
<path id="Vector_32" d="M0.0599976 105.748H116.841V1.04785H0.0599976V105.748Z" fill="#6654F1"/>
</g>
</mask>
<g mask="url(#mask31_1_882)">
<path id="Fill-87" fill-rule="evenodd" clip-rule="evenodd" d="M84.3762 100.178L89.4111 100.09L89.9459 79.1714L83.4909 79.5004L84.3762 100.178Z" fill="#6654F1"/>
</g>
</g>
<g id="Mask group_33">
<mask id="mask32_1_882" style="mask-type:luminance" maskUnits="userSpaceOnUse" x="0" y="1" width="117" height="105">
<g id="Group_33">
<path id="Vector_33" d="M0.0599976 105.748H116.841V1.04785H0.0599976V105.748Z" fill="white"/>
</g>
</mask>
<g mask="url(#mask32_1_882)">
<path id="Fill-88" fill-rule="evenodd" clip-rule="evenodd" d="M74.3897 59.816H88.2736V43.2375C88.2736 41.5869 87.0169 40.6859 85.6121 40.1501C84.8847 39.8738 84.1241 39.6975 83.3773 39.4851C83.0074 39.381 81.6302 38.6994 81.3323 38.8063L80.1491 39.2352C79.1239 39.6059 78.0986 39.9141 77.0484 40.2098C75.5853 40.6221 74.3897 41.598 74.3897 43.2375V59.816Z" fill="white"/>
</g>
</g>
<g id="Mask group_34">
<mask id="mask33_1_882" style="mask-type:luminance" maskUnits="userSpaceOnUse" x="0" y="1" width="117" height="105">
<g id="Group_34">
<path id="Vector_34" d="M0.0599976 105.748H116.841V1.04785H0.0599976V105.748Z" fill="#887BF1"/>
</g>
</mask>
<g mask="url(#mask33_1_882)">
<path id="Fill-89" fill-rule="evenodd" clip-rule="evenodd" d="M77.8614 65.0327H84.8041C86.7216 65.0327 88.2747 63.4751 88.2747 61.5538V59.8157H74.3894V61.5538C74.3894 63.4751 75.9439 65.0327 77.8614 65.0327Z" fill="#887BF1"/>
</g>
</g>
<g id="Mask group_35">
<mask id="mask34_1_882" style="mask-type:luminance" maskUnits="userSpaceOnUse" x="0" y="1" width="117" height="105">
<g id="Group_35">
<path id="Vector_35" d="M0.0599976 105.748H116.841V1.04785H0.0599976V105.748Z" fill="#887BF1"/>
</g>
</mask>
<g mask="url(#mask34_1_882)">
<path id="Fill-90" fill-rule="evenodd" clip-rule="evenodd" d="M101.26 62.4042C101.601 60.6966 100.648 59.1238 98.8247 59.0127L74.7769 59.8165L79.4127 61.0812C79.3074 62.8207 76.1236 64.9266 77.861 65.0335C77.861 65.0335 97.9546 65.3723 97.9657 65.3723C99.5576 65.3986 100.828 64.0895 101.213 62.6096C101.231 62.5416 101.247 62.4722 101.26 62.4042Z" fill="#887BF1"/>
</g>
</g>
<g id="Mask group_36">
<mask id="mask35_1_882" style="mask-type:luminance" maskUnits="userSpaceOnUse" x="0" y="1" width="117" height="105">
<g id="Group_36">
<path id="Vector_36" d="M0.0599976 105.748H116.841V1.04785H0.0599976V105.748Z" fill="#FCD4CB"/>
</g>
</mask>
<g mask="url(#mask35_1_882)">
<path id="Fill-91" fill-rule="evenodd" clip-rule="evenodd" d="M87.8723 82.0078L90.9204 83.36L92.4042 80.0032L89.3562 78.6497L87.8723 82.0078Z" fill="#FCD4CB"/>
</g>
</g>
<g id="Mask group_37">
<mask id="mask36_1_882" style="mask-type:luminance" maskUnits="userSpaceOnUse" x="0" y="1" width="117" height="105">
<g id="Group_37">
<path id="Vector_37" d="M0.0599976 105.748H116.841V1.04785H0.0599976V105.748Z" fill="#887BF1"/>
</g>
</mask>
<g mask="url(#mask36_1_882)">
<path id="Fill-92" fill-rule="evenodd" clip-rule="evenodd" d="M95.4614 86.2647L94.9253 87.4752L89.3127 84.9847C89.3252 84.7862 89.3376 84.5863 89.3501 84.3864C89.2393 84.5419 89.1284 84.6973 89.0162 84.8528L87.0086 83.963L87.8718 82.0083L90.9212 83.3591L95.4614 86.2647Z" fill="#887BF1"/>
</g>
</g>
<g id="Mask group_38">
<mask id="mask37_1_882" style="mask-type:luminance" maskUnits="userSpaceOnUse" x="0" y="1" width="117" height="105">
<g id="Group_38">
<path id="Vector_38" d="M0.0599976 105.748H116.841V1.04785H0.0599976V105.748Z" fill="#887BF1"/>
</g>
</mask>
<g mask="url(#mask37_1_882)">
<path id="Fill-93" fill-rule="evenodd" clip-rule="evenodd" d="M88.0807 79.5226L92.6847 81.5661L100.811 63.6118L96.5516 60.3508L88.0807 79.5226Z" fill="#887BF1"/>
</g>
</g>
<g id="Mask group_39">
<mask id="mask38_1_882" style="mask-type:luminance" maskUnits="userSpaceOnUse" x="0" y="1" width="117" height="105">
<g id="Group_39">
<path id="Vector_39" d="M0.0599976 105.748H116.841V1.04785H0.0599976V105.748Z" fill="#310F57"/>
</g>
</mask>
<g mask="url(#mask38_1_882)">
<path id="Fill-94" fill-rule="evenodd" clip-rule="evenodd" d="M82.2764 33.7904C82.1766 33.4877 82.2237 33.0879 82.5091 32.9463C82.7765 32.813 83.1617 32.9532 83.3612 32.7297C83.4873 32.5881 83.4651 32.366 83.3945 32.1911C83.321 32.0148 83.2088 31.8524 83.17 31.6677C83.0592 31.1485 83.6148 30.6751 84.1454 30.6862C84.6733 30.6959 85.1374 31.0375 85.517 31.4067C85.9548 31.8343 86.3414 32.3299 86.5492 32.9046C86.7584 33.4794 86.7736 34.143 86.4979 34.6885C86.1433 35.391 85.3812 35.7908 84.6317 36.0213C84.259 36.1365 83.8641 36.2226 83.479 36.1629C82.9608 36.0823 82.6518 35.8227 82.6477 35.3244C82.6435 35.0439 82.728 34.8565 82.6422 34.5692C82.5604 34.2943 82.3664 34.0624 82.2764 33.7904Z" fill="#310F57"/>
</g>
</g>
<g id="Mask group_40">
<mask id="mask39_1_882" style="mask-type:luminance" maskUnits="userSpaceOnUse" x="0" y="1" width="117" height="105">
<g id="Group_40">
<path id="Vector_40" d="M0.0599976 105.748H116.841V1.04785H0.0599976V105.748Z" fill="#FCD4CB"/>
</g>
</mask>
<g mask="url(#mask39_1_882)">
<path id="Fill-95" fill-rule="evenodd" clip-rule="evenodd" d="M81.5417 40.8456C82.3023 40.9178 82.977 40.3597 83.0505 39.599L83.3525 36.4352L80.5995 36.1714L80.2975 39.3338C80.2241 40.096 80.781 40.772 81.5417 40.8456Z" fill="#FCD4CB"/>
</g>
</g>
<g id="Mask group_41">
<mask id="mask40_1_882" style="mask-type:luminance" maskUnits="userSpaceOnUse" x="0" y="1" width="117" height="105">
<g id="Group_41">
<path id="Vector_41" d="M0.0599976 105.748H116.841V1.04785H0.0599976V105.748Z" fill="#FC957E"/>
</g>
</mask>
<g mask="url(#mask40_1_882)">
<path id="Fill-96" fill-rule="evenodd" clip-rule="evenodd" d="M80.673 35.4119L83.4245 35.6756L83.0865 39.2101C81.8783 38.8894 80.7755 37.858 80.648 36.6377C80.6189 36.3614 80.6189 36.081 80.6356 35.8006L80.673 35.4119Z" fill="#FC957E"/>
</g>
</g>
<g id="Mask group_42">
<mask id="mask41_1_882" style="mask-type:luminance" maskUnits="userSpaceOnUse" x="0" y="1" width="117" height="105">
<g id="Group_42">
<path id="Vector_42" d="M0.0599976 105.748H116.841V1.04785H0.0599976V105.748Z" fill="#FCD4CB"/>
</g>
</mask>
<g mask="url(#mask41_1_882)">
<path id="Fill-97" fill-rule="evenodd" clip-rule="evenodd" d="M83.7687 38.4243C83.9945 38.3896 84.212 38.3133 84.4143 38.1841C85.0613 37.7704 85.4132 36.9833 85.5698 36.2559C85.6515 35.8727 86.1434 30.4738 86.1503 30.4738L80.6846 29.9504L80.4006 32.9144C80.3119 33.857 80.075 34.8315 80.1747 35.7783C80.3424 37.3859 82.2017 38.6673 83.7687 38.4243Z" fill="#FCD4CB"/>
</g>
</g>
<g id="Mask group_43">
<mask id="mask42_1_882" style="mask-type:luminance" maskUnits="userSpaceOnUse" x="0" y="1" width="117" height="105">
<g id="Group_43">
<path id="Vector_43" d="M0.0599976 105.748H116.841V1.04785H0.0599976V105.748Z" fill="#FC957E"/>
</g>
</mask>
<g mask="url(#mask42_1_882)">
<path id="Fill-98" fill-rule="evenodd" clip-rule="evenodd" d="M84.2504 35.5418C84.2172 35.5418 84.1895 35.5155 84.1881 35.4835L84.177 35.1781C84.177 35.1601 84.1839 35.142 84.1992 35.1295C84.213 35.1184 84.2324 35.1143 84.2476 35.1143L84.6841 35.1809L84.2102 33.7885C84.1992 33.7566 84.2158 33.7205 84.2463 33.7107C84.2795 33.7024 84.3141 33.7177 84.3238 33.7482L84.8323 35.2364C84.8392 35.2573 84.8351 35.2809 84.8212 35.2961C84.8074 35.3114 84.788 35.317 84.7658 35.3183L84.3031 35.2475L84.31 35.478C84.3114 35.5127 84.2851 35.5405 84.2518 35.5418H84.2504Z" fill="#FC957E"/>
</g>
</g>
<g id="Mask group_44">
<mask id="mask43_1_882" style="mask-type:luminance" maskUnits="userSpaceOnUse" x="0" y="1" width="117" height="105">
<g id="Group_44">
<path id="Vector_44" d="M0.0599976 105.748H116.841V1.04785H0.0599976V105.748Z" fill="white"/>
</g>
</mask>
<g mask="url(#mask43_1_882)">
<path id="Fill-99" fill-rule="evenodd" clip-rule="evenodd" d="M85.096 35.6883C84.9394 36.1256 84.4919 36.4186 83.9973 36.37C83.5013 36.3228 83.1175 35.9493 83.0469 35.4912L85.096 35.6883Z" fill="white"/>
</g>
</g>
<g id="Mask group_45">
<mask id="mask44_1_882" style="mask-type:luminance" maskUnits="userSpaceOnUse" x="0" y="1" width="117" height="105">
<g id="Group_45">
<path id="Vector_45" d="M0.0599976 105.748H116.841V1.04785H0.0599976V105.748Z" fill="#310F57"/>
</g>
</mask>
<g mask="url(#mask44_1_882)">
<path id="Fill-100" fill-rule="evenodd" clip-rule="evenodd" d="M79.1305 35.5922C79.5891 35.756 80.1197 35.6463 80.5091 35.0827C81.127 34.1845 80.7238 32.6602 82.1675 32.4423C83.0029 32.3173 83.6763 32.9504 84.4064 33.2308C85.6478 33.707 85.9415 32.1785 87.0028 31.88C87.7676 31.6648 88.5421 31.6371 88.5684 30.6473C88.592 29.7116 87.7371 28.9994 86.8698 28.8828C86.3516 28.8134 85.8252 28.8995 85.3125 29.0008C84.6669 29.1299 83.9755 29.3395 83.3355 29.0924C82.5166 28.7759 82.0802 27.843 81.2905 27.4612C80.8069 27.2266 80.2167 27.2308 79.736 27.4696C78.9282 27.8722 78.8396 28.712 78.5888 29.4784C78.2923 30.3932 77.1881 30.7319 76.9179 31.6829C76.8265 32.0119 76.8514 32.3826 77.0384 32.6686C77.2989 33.0656 77.7908 33.2669 78.0166 33.6806C78.4031 34.383 78.241 35.2743 79.1305 35.5922Z" fill="#310F57"/>
</g>
</g>
<g id="Mask group_46">
<mask id="mask45_1_882" style="mask-type:luminance" maskUnits="userSpaceOnUse" x="0" y="1" width="117" height="105">
<g id="Group_46">
<path id="Vector_46" d="M0.0599976 105.748H116.841V1.04785H0.0599976V105.748Z" fill="#FCD4CB"/>
</g>
</mask>
<g mask="url(#mask45_1_882)">
<path id="Fill-101" fill-rule="evenodd" clip-rule="evenodd" d="M74.1149 54.0514L73.799 53.9667C72.8209 53.7099 72.7585 52.8076 73.0162 51.8261L74.8035 42.9232C75.0612 41.9445 76.0615 41.3587 77.0397 41.6169L77.3556 41.7002C78.3323 41.957 78.917 42.9607 78.6593 43.9394L75.8468 52.5729C75.5891 53.553 75.0931 54.3082 74.1149 54.0514Z" fill="#FCD4CB"/>
</g>
</g>
<g id="Mask group_47">
<mask id="mask46_1_882" style="mask-type:luminance" maskUnits="userSpaceOnUse" x="0" y="1" width="117" height="105">
<g id="Group_47">
<path id="Vector_47" d="M0.0599976 105.748H116.841V1.04785H0.0599976V105.748Z" fill="#FCD4CB"/>
</g>
</mask>
<g mask="url(#mask46_1_882)">
<path id="Fill-102" fill-rule="evenodd" clip-rule="evenodd" d="M86.5762 54.8121L85.9915 56.7099L74.2053 54.0875L75.0947 50.7654L86.5762 54.8121Z" fill="#FCD4CB"/>
</g>
</g>
<g id="Mask group_48">
<mask id="mask47_1_882" style="mask-type:luminance" maskUnits="userSpaceOnUse" x="0" y="1" width="117" height="105">
<g id="Group_48">
<path id="Vector_48" d="M0.0599976 105.748H116.841V1.04785H0.0599976V105.748Z" fill="#FCD4CB"/>
</g>
</mask>
<g mask="url(#mask47_1_882)">
<path id="Fill-103" fill-rule="evenodd" clip-rule="evenodd" d="M85.6007 55.5577C85.5162 55.6036 85.6824 56.3477 85.7046 56.4434C85.8127 56.903 86.0773 57.3153 86.3946 57.6582C86.8421 58.1371 87.4143 58.5772 88.0017 58.8673C88.2996 59.0131 88.6127 59.1283 88.9356 59.2061C89.1018 59.2449 89.2722 59.2755 89.4426 59.2921H89.4468C89.6629 59.3143 89.8264 59.1019 89.7696 58.8923C89.7405 58.791 89.7184 58.7035 89.71 58.6771C89.5909 58.337 89.4828 58.0011 89.3332 57.6734C88.8898 56.6975 87.6831 55.2371 86.5761 54.8123C85.7725 55.2135 86.4029 55.1565 85.6007 55.5577Z" fill="#FCD4CB"/>
</g>
</g>
<g id="Mask group_49">
<mask id="mask48_1_882" style="mask-type:luminance" maskUnits="userSpaceOnUse" x="0" y="1" width="117" height="105">
<g id="Group_49">
<path id="Vector_49" d="M0.0599976 105.748H116.841V1.04785H0.0599976V105.748Z" fill="white"/>
</g>
</mask>
<g mask="url(#mask48_1_882)">
<path id="Fill-104" fill-rule="evenodd" clip-rule="evenodd" d="M78.4595 41.2443C79.2908 42.527 79.3878 44.1776 79.0608 45.67C78.7325 47.1637 78.0203 48.5395 77.3151 49.8944C75.841 49.7626 74.3627 49.6362 72.8844 49.6293C73.3014 47.6913 73.8265 45.6353 74.4098 43.7403C74.6301 43.0184 74.8753 42.2799 75.3699 41.7093C76.0987 40.8667 77.4038 40.8889 78.4595 41.2443Z" fill="white"/>
</g>
</g>
<g id="Mask group_50">
<mask id="mask49_1_882" style="mask-type:luminance" maskUnits="userSpaceOnUse" x="0" y="1" width="117" height="105">
<g id="Group_50">
<path id="Vector_50" d="M0.0599976 105.748H116.841V1.04785H0.0599976V105.748Z" fill="#310F57"/>
</g>
</mask>
<g mask="url(#mask49_1_882)">
<path id="Fill-105" fill-rule="evenodd" clip-rule="evenodd" d="M85.3788 60.0059L90.142 60.2335L91.2283 59.0813L85.3788 59.3173V60.0059Z" fill="#310F57"/>
</g>
</g>
<g id="Mask group_51">
<mask id="mask50_1_882" style="mask-type:luminance" maskUnits="userSpaceOnUse" x="0" y="1" width="117" height="105">
<g id="Group_51">
<path id="Vector_51" d="M0.0599976 105.748H116.841V1.04785H0.0599976V105.748Z" fill="#310F57"/>
</g>
</mask>
<g mask="url(#mask50_1_882)">
<path id="Fill-106" fill-rule="evenodd" clip-rule="evenodd" d="M91.1385 59.5543H85.379V59.3169L91.1385 58.8533V59.5543Z" fill="#310F57"/>
</g>
</g>
<g id="Mask group_52">
<mask id="mask51_1_882" style="mask-type:luminance" maskUnits="userSpaceOnUse" x="0" y="1" width="117" height="105">
<g id="Group_52">
<path id="Vector_52" d="M0.0599976 105.748H116.841V1.04785H0.0599976V105.748Z" fill="#310F57"/>
</g>
</mask>
<g mask="url(#mask51_1_882)">
<path id="Fill-107" fill-rule="evenodd" clip-rule="evenodd" d="M90.1427 60.2335L103.186 58.8148L105.544 49.3066L92.7668 49.6565L90.1427 60.2335Z" fill="#310F57"/>
</g>
</g>
</g>
</g>
</g>
</g>
</g>
<defs>
<clipPath id="clip0_1_882">
<rect width="116.86" height="105.989" fill="white" transform="translate(0.0599976 0.565186)"/>
</clipPath>
</defs>
</svg>
