<svg width="107" height="107" viewBox="0 0 107 107" fill="none" xmlns="http://www.w3.org/2000/svg">
<g id="Group95.svg" clip-path="url(#clip0_1_681)">
<g id="Marshmello_landing-page">
<g id="Simple_landngpage">
<g id="Group-10">
<g id="Group-95">
<path id="Fill-1" fill-rule="evenodd" clip-rule="evenodd" d="M102.936 64.481C101.019 57.8415 96.6988 51.8138 89.9869 49.5748C86.3014 48.3461 82.3901 47.8703 78.7471 46.5229C69.8798 43.2412 66.8096 34.4151 59.0082 29.9484C54.8622 27.5746 49.6866 27.3248 45.1313 28.7634C36.4837 31.4956 29.0654 40.027 27.9534 49.0778C27.8972 49.5386 27.8573 50.0006 27.8348 50.4639C27.6326 54.7433 28.3528 59.014 28.389 63.2984C28.4676 72.6964 21.6084 79.9453 23.1485 89.6892C24.5825 98.7626 31.6401 105.01 40.8293 105.321C48.4648 105.578 55.9967 102.641 63.3888 101.111C73.0573 99.1122 83.7554 100.583 92.921 96.4C104.82 90.968 106.2 75.7908 102.936 64.481Z" fill="#FF99EC"/>
<path id="Fill-3" fill-rule="evenodd" clip-rule="evenodd" d="M48.6954 78.2259C48.5981 76.7167 49.7354 75.1826 51.0772 74.3178C53.8318 72.5424 57.3073 71.7772 59.4222 69.096C61.501 66.4595 61.819 62.7506 60.2253 59.7994C57.9495 55.5865 52.9502 54.9905 48.6866 56.2298C48.1417 56.389 47.5668 56.5806 47.0219 56.4263C46.3223 56.2273 45.8946 55.5119 45.7075 54.8089C44.4904 50.2464 44.549 45.0992 41.4901 41.2211C38.1044 36.9298 31.7247 36.6213 27.3788 39.733C24.2813 41.9514 23.0068 45.307 22.8684 49.0072C22.7761 51.4595 25.2103 57.8447 22.6314 59.6177C22.2025 59.9126 21.665 59.9872 21.1462 60.0208C16.4662 60.3269 12.2525 60.7188 10.9357 66.1211C9.82333 70.686 12.6291 75.2858 17.2032 76.3957L23.9707 78.0392C25.4123 78.3888 26.4885 79.5883 26.678 81.0564C27.2679 85.6363 22.5791 84.5675 19.8094 84.8723C16.8403 85.1983 14.9311 88.2578 14.3138 90.9253C12.7114 97.8493 18.3741 101.783 24.275 103.597C31.6199 105.857 39.6021 105.883 47.0056 103.862C53.1634 102.18 62.8453 98.3395 64.3217 91.2152C64.8143 88.8339 64.3055 86.2895 63.0647 84.1968C62.2454 82.8144 61.087 81.5964 59.6292 80.9146C57.2087 79.7811 54.4154 81.3986 51.9301 81.1074C50.6607 80.9581 49.375 80.2601 48.8911 79.0794C48.7764 78.7982 48.7141 78.512 48.6954 78.2259Z" fill="#1B00EB"/>
<path id="Fill-5" fill-rule="evenodd" clip-rule="evenodd" d="M36.4428 69.4599C36.4236 69.4599 36.4044 69.4588 36.3852 69.4556L28.9162 68.3944C28.7292 68.3677 28.6037 68.2202 28.6358 68.0652C28.6678 67.9092 28.8496 67.8098 29.0302 67.8323L36.4992 68.8935C36.6861 68.9202 36.8116 69.0666 36.7796 69.2226C36.7515 69.3615 36.6055 69.4599 36.4428 69.4599Z" fill="#D9E8FF"/>
<path id="Fill-7" fill-rule="evenodd" clip-rule="evenodd" d="M38.8889 92.2907C38.8697 92.2907 38.8505 92.2896 38.8313 92.2864L31.3624 91.2253C31.1754 91.1986 31.0499 91.0512 31.0819 90.8962C31.1139 90.7413 31.297 90.6398 31.4763 90.6633L38.9453 91.7244C39.1323 91.7511 39.2578 91.8975 39.2258 92.0535C39.1976 92.1924 39.0516 92.2907 38.8889 92.2907Z" fill="#D9E8FF"/>
<path id="Fill-9" fill-rule="evenodd" clip-rule="evenodd" d="M36.2998 69.4597C36.1735 69.4597 36.0533 69.3787 35.9988 69.2442C35.9233 69.0588 35.9976 68.8419 36.1635 68.7595L42.8409 65.415C43.0081 65.3326 43.2038 65.4136 43.2781 65.5976C43.3537 65.7816 43.2794 65.9985 43.1134 66.0823L36.436 69.4268C36.3915 69.4488 36.3456 69.4597 36.2998 69.4597Z" fill="#D9E8FF"/>
<path id="Fill-11" fill-rule="evenodd" clip-rule="evenodd" d="M39.5613 93.106C39.435 93.106 39.3148 93.025 39.2604 92.8904C39.1848 92.7051 39.2591 92.4881 39.4251 92.4058L46.1024 89.0612C46.2684 88.9789 46.4653 89.0599 46.5397 89.2438C46.6152 89.4278 46.5409 89.6448 46.3749 89.7285L39.6976 93.073C39.653 93.095 39.6072 93.106 39.5613 93.106Z" fill="#D9E8FF"/>
<path id="Fill-13" fill-rule="evenodd" clip-rule="evenodd" d="M40.5386 102.075C40.3791 102.075 40.2401 101.952 40.2196 101.783L34.3412 54.3442C34.3182 54.1612 34.4427 53.9932 34.6191 53.9706C34.7967 53.9456 34.9574 54.0747 34.9804 54.2589L40.8588 101.698C40.8817 101.881 40.7573 102.049 40.5809 102.073C40.5664 102.074 40.5531 102.075 40.5386 102.075Z" fill="#D9E8FF"/>
<g id="Group-17">
<g id="Mask group">
<mask id="mask0_1_681" style="mask-type:luminance" maskUnits="userSpaceOnUse" x="57" y="55" width="49" height="47">
<g id="Group">
<path id="Vector" d="M57.9897 55.0801H105.891V101.899H57.9897V55.0801Z" fill="#310F57"/>
</g>
</mask>
<g mask="url(#mask0_1_681)">
<path id="Fill-15" fill-rule="evenodd" clip-rule="evenodd" d="M80.0148 65.359C75.0596 69.6054 70.6267 74.4653 66.8789 79.7508C64.1047 83.2193 54.3038 97.4855 59.4691 101.266C64.77 105.05 78.8833 90.7314 82.6211 88.1465C86.553 84.9144 90.3256 81.5255 93.9528 77.9649C97.2405 74.6806 103.2 70.0621 105.216 65.7585C106.921 62.0623 105.25 57.9354 101.835 56.0088C96.9781 53.2671 91.0617 57.1762 86.7022 60.2166C84.3868 61.8071 82.1523 63.5258 80.0148 65.359Z" fill="#310F57"/>
</g>
</g>
</g>
<path id="Fill-18" fill-rule="evenodd" clip-rule="evenodd" d="M65.657 93.9213C65.5806 93.9213 65.5055 93.8954 65.4429 93.8448C65.3014 93.7277 65.2826 93.5205 65.4003 93.3811C75.5464 81.4218 87.1375 70.6526 99.8505 61.3708C99.997 61.2622 100.209 61.2931 100.319 61.4398C100.429 61.5853 100.398 61.7913 100.249 61.8998C87.5782 71.1508 76.026 81.8843 65.9137 93.8029C65.8473 93.8806 65.7522 93.9213 65.657 93.9213Z" fill="#D9E8FF"/>
<path id="Fill-20" fill-rule="evenodd" clip-rule="evenodd" d="M82.1155 86.5829C82.0784 86.5829 82.04 86.5767 82.0028 86.563C80.3186 85.9488 78.6233 85.3495 76.9626 84.7838C76.7905 84.7253 76.6976 84.5363 76.7558 84.3623C76.814 84.1895 77.0035 84.095 77.1756 84.1546C78.84 84.7228 80.5403 85.3221 82.2282 85.9388C82.4003 86.001 82.4883 86.1925 82.4263 86.364C82.3768 86.4996 82.2505 86.5829 82.1155 86.5829Z" fill="#D9E8FF"/>
<path id="Fill-22" fill-rule="evenodd" clip-rule="evenodd" d="M74.7764 81.6906C74.6412 81.6906 74.5133 81.6083 74.4649 81.4743C73.858 79.8142 73.2573 78.1123 72.6789 76.4166C72.6206 76.2445 72.7137 76.059 72.8874 76.0012C73.0587 75.941 73.2486 76.0344 73.3069 76.2064C73.8841 77.8985 74.4835 79.5955 75.088 81.2507C75.15 81.4215 75.0607 81.6095 74.8894 81.6709C74.8521 81.6845 74.8137 81.6906 74.7764 81.6906Z" fill="#D9E8FF"/>
<path id="Fill-24" fill-rule="evenodd" clip-rule="evenodd" d="M87.0035 81.6905C86.9609 81.6905 86.9195 81.6836 86.8782 81.6674C85.2118 81.0443 83.5191 80.4305 81.8465 79.8434C81.6749 79.7832 81.5872 79.6048 81.6523 79.445C81.7187 79.284 81.9117 79.203 82.0846 79.2655C83.7609 79.8538 85.4586 80.4688 87.1287 81.0941C87.3004 81.159 87.3831 81.3385 87.3142 81.4971C87.2616 81.6176 87.135 81.6905 87.0035 81.6905Z" fill="#D9E8FF"/>
<path id="Fill-26" fill-rule="evenodd" clip-rule="evenodd" d="M79.6421 76.7983C79.4906 76.7983 79.3498 76.7107 79.3015 76.5733C78.7087 74.9021 78.1254 73.1981 77.5688 71.5087C77.5125 71.336 77.6198 71.1548 77.8089 71.1037C78.002 71.0539 78.1978 71.1499 78.2541 71.3227C78.8093 73.0072 79.3913 74.7075 79.9828 76.3738C80.0431 76.5453 79.9398 76.7277 79.7521 76.7825C79.7159 76.7934 79.6783 76.7983 79.6421 76.7983Z" fill="#D9E8FF"/>
<path id="Fill-28" fill-rule="evenodd" clip-rule="evenodd" d="M92.7069 76.7982C92.66 76.7982 92.613 76.7906 92.5686 76.7732C90.9022 76.1359 89.2129 75.5094 87.5465 74.909C87.3727 74.8471 87.2927 74.6767 87.3651 74.529C87.4387 74.3814 87.6367 74.3129 87.8093 74.3748C89.4795 74.9763 91.1738 75.605 92.8453 76.2434C93.0166 76.3085 93.0928 76.4801 93.0166 76.6267C92.9608 76.7341 92.8364 76.7982 92.7069 76.7982Z" fill="#D9E8FF"/>
<path id="Fill-30" fill-rule="evenodd" clip-rule="evenodd" d="M85.3176 71.9059C85.1468 71.9059 84.9905 71.8131 84.9423 71.6721C84.3699 69.9995 83.8077 68.2942 83.2747 66.6011C83.2192 66.4287 83.3448 66.254 83.5536 66.2082C83.7653 66.1648 83.9741 66.2672 84.0282 66.4384C84.5612 68.1279 85.1205 69.8295 85.6929 71.4962C85.7513 71.6673 85.6316 71.8457 85.4242 71.8939C85.3877 71.9023 85.3527 71.9059 85.3176 71.9059Z" fill="#D9E8FF"/>
<path id="Fill-32" fill-rule="evenodd" clip-rule="evenodd" d="M97.5944 72.7215C97.5429 72.7215 97.4914 72.7092 97.4438 72.6847C95.7807 71.8221 94.0932 70.9718 92.4301 70.1555C92.2576 70.0711 92.1829 69.8544 92.2628 69.6718C92.3413 69.4878 92.5472 69.4088 92.7184 69.4946C94.3866 70.3136 96.078 71.1667 97.745 72.0306C97.9162 72.1192 97.987 72.3372 97.9033 72.5171C97.8428 72.6466 97.7218 72.7215 97.5944 72.7215Z" fill="#D9E8FF"/>
<path id="Fill-34" fill-rule="evenodd" clip-rule="evenodd" d="M90.3144 67.0136C90.1849 67.0136 90.0692 66.9156 90.0371 66.7697C89.6677 65.0902 89.3112 63.3808 88.9761 61.6942C88.9418 61.522 89.0393 61.3511 89.1924 61.3129C89.3433 61.277 89.4997 61.3834 89.5339 61.5555C89.868 63.2386 90.2245 64.942 90.5917 66.6179C90.6292 66.7901 90.5361 66.9622 90.3819 67.004C90.3594 67.0112 90.3369 67.0136 90.3144 67.0136Z" fill="#D9E8FF"/>
<path id="Fill-36" fill-rule="evenodd" clip-rule="evenodd" d="M77.2267 91.4752C77.1936 91.4752 77.1593 91.4698 77.1262 91.4577C75.4608 90.8668 73.7635 90.2866 72.0797 89.7332C71.9057 89.6755 71.8077 89.4753 71.8604 89.286C71.9118 89.0966 72.0932 88.9851 72.2672 89.0455C73.9559 89.6002 75.6581 90.1831 77.3272 90.7755C77.5 90.8359 77.5931 91.0387 77.538 91.2267C77.4926 91.3785 77.3652 91.4752 77.2267 91.4752Z" fill="#D9E8FF"/>
<path id="Fill-38" fill-rule="evenodd" clip-rule="evenodd" d="M69.9065 87.3984C69.7851 87.3984 69.6684 87.3201 69.6199 87.1908C68.998 85.5288 68.3832 83.8296 67.7891 82.1403C67.729 81.9688 67.8099 81.7773 67.9694 81.7127C68.1277 81.6468 68.3069 81.7338 68.367 81.9066C68.9587 83.5909 69.5725 85.2852 70.1931 86.9422C70.2567 87.1125 70.1793 87.3064 70.0221 87.3735C69.9839 87.3909 69.9446 87.3984 69.9065 87.3984Z" fill="#D9E8FF"/>
<path id="Fill-40" fill-rule="evenodd" clip-rule="evenodd" d="M71.5276 95.5522C71.499 95.5522 71.4703 95.5485 71.4417 95.5398C70.3013 95.208 69.1561 94.8848 68.0062 94.5703C67.8368 94.5234 67.7354 94.3433 67.7796 94.1669C67.8249 93.9905 67.9979 93.8857 68.1696 93.9326C69.322 94.2483 70.4695 94.574 71.6135 94.9058C71.7829 94.9551 71.8819 95.1365 71.8342 95.3116C71.7948 95.4572 71.6672 95.5522 71.5276 95.5522Z" fill="#D9E8FF"/>
<path id="Fill-42" fill-rule="evenodd" clip-rule="evenodd" d="M65.7699 92.2905C65.628 92.2905 65.4943 92.2189 65.4323 92.0994C64.8536 90.9585 64.2832 89.8104 63.721 88.6563C63.6425 88.495 63.7307 88.3075 63.9167 88.2382C64.1054 88.1713 64.3204 88.2454 64.3989 88.4078C64.9597 89.5595 65.5288 90.704 66.1075 91.8425C66.1888 92.0038 66.1047 92.1926 65.9173 92.2643C65.8705 92.2822 65.8195 92.2905 65.7699 92.2905Z" fill="#D9E8FF"/>
<path id="Fill-44" fill-rule="evenodd" clip-rule="evenodd" d="M101.674 67.829C101.62 67.829 101.567 67.8161 101.516 67.7892C100.392 67.196 99.2608 66.6093 98.1258 66.0316C97.9571 65.9456 97.8906 65.7389 97.975 65.5707C98.0606 65.3999 98.2664 65.3357 98.4339 65.4192C99.5727 65.9995 100.706 66.5875 101.833 67.1832C102 67.2705 102.064 67.4785 101.976 67.6454C101.914 67.7622 101.797 67.829 101.674 67.829Z" fill="#D9E8FF"/>
<path id="Fill-46" fill-rule="evenodd" clip-rule="evenodd" d="M95.9269 62.9367C95.7505 62.9367 95.5926 62.8188 95.5556 62.648C95.254 61.261 94.9637 59.8701 94.6834 58.475C94.645 58.2784 94.7802 58.0886 94.9851 58.0507C95.1942 58.014 95.392 58.1428 95.4304 58.3381C95.7092 59.7304 95.9995 61.1187 96.2997 62.5015C96.3424 62.6968 96.21 62.8879 96.0052 62.93C95.9781 62.934 95.9525 62.9367 95.9269 62.9367Z" fill="#D9E8FF"/>
<path id="Fill-48" fill-rule="evenodd" clip-rule="evenodd" d="M69.4 54.333L68.6399 51.5215L58.8156 56.1757C57.78 55.8967 56.6571 56.805 55.8072 57.2573C55.5231 57.4081 55.2636 57.5886 54.9943 57.7655C54.9746 57.7786 54.9106 57.8284 54.8344 57.8854C54.6807 58.0006 54.6856 58.2357 54.8528 58.333C54.8541 58.3342 54.8553 58.3342 54.8565 58.3354C54.9906 58.4114 55.1296 58.4791 55.2722 58.5385C55.549 58.6524 55.838 58.7355 56.1332 58.7866C56.7186 58.8911 57.3704 58.8804 57.9546 58.7771C58.3703 58.7035 58.7848 58.5515 59.112 58.2867C59.1771 58.2333 59.674 57.8166 59.6642 57.7263L69.4 54.333Z" fill="#FC957E"/>
<g id="Group-52">
<g id="Mask group_2">
<mask id="mask1_1_681" style="mask-type:luminance" maskUnits="userSpaceOnUse" x="11" y="78" width="86" height="29">
<g id="Group_2">
<path id="Vector_2" d="M11.6703 78.6924H96.38V106.152H11.6703V78.6924Z" fill="#FF99EC"/>
</g>
</mask>
<g mask="url(#mask1_1_681)">
<path id="Fill-50" fill-rule="evenodd" clip-rule="evenodd" d="M96.3788 106.119C95.7261 95.7631 88.0814 87.3666 77.1059 91.0021C71.7873 92.7628 66.1042 97.793 60.1743 96.685C53.4152 95.4231 51.798 86.7276 47.0894 82.726C43.0572 79.2989 37.329 77.9179 32.1519 79.1177C20.7193 81.7656 15.2553 95.2606 12.0073 105.147C11.9008 105.472 11.7868 105.796 11.6703 106.12C39.9069 106.12 68.1435 106.105 96.38 106.152C96.38 106.141 96.3788 106.131 96.3788 106.119Z" fill="#FF99EC"/>
</g>
</g>
</g>
<path id="Fill-53" fill-rule="evenodd" clip-rule="evenodd" d="M73.4769 100.472L74.1313 103.706L75.9231 98.8137L73.4769 100.472Z" fill="#FC957E"/>
<path id="Fill-55" fill-rule="evenodd" clip-rule="evenodd" d="M75.9231 99.343C75.0212 99.8562 74.1144 99.9312 73.2125 100.444C72.9462 99.957 72.4234 98.9514 71.8461 97.7673C72.7492 97.2994 73.5582 96.8535 74.4526 96.3674C75.01 97.324 75.4845 98.3193 75.9231 99.343Z" fill="#FC957E"/>
<g id="Mask group_3">
<mask id="mask2_1_681" style="mask-type:luminance" maskUnits="userSpaceOnUse" x="0" y="0" width="107" height="107">
<g id="Group_3">
<path id="Vector_3" d="M0.907684 106.152H106.092V0.967529H0.907684V106.152Z" fill="#FCD4CB"/>
</g>
</mask>
<g mask="url(#mask2_1_681)">
<path id="Fill-57" fill-rule="evenodd" clip-rule="evenodd" d="M74.2923 102.075H77.5538V98.8137H74.2923V102.075Z" fill="#FCD4CB"/>
</g>
</g>
<g id="Mask group_4">
<mask id="mask3_1_681" style="mask-type:luminance" maskUnits="userSpaceOnUse" x="0" y="0" width="107" height="107">
<g id="Group_4">
<path id="Vector_4" d="M0.907684 106.152H106.092V0.967529H0.907684V106.152Z" fill="#310F57"/>
</g>
</mask>
<g mask="url(#mask3_1_681)">
<path id="Fill-59" fill-rule="evenodd" clip-rule="evenodd" d="M71.0308 104.999V106.152H74.5271C74.5873 105.989 76.2499 104.278 76.3101 104.113C76.3443 104.278 76.2759 105.989 76.3101 106.152H77.1562L77.5538 102.075H74.6569L73.156 104.408L71.0308 104.999Z" fill="#310F57"/>
</g>
</g>
<g id="Mask group_5">
<mask id="mask4_1_681" style="mask-type:luminance" maskUnits="userSpaceOnUse" x="0" y="0" width="107" height="107">
<g id="Group_5">
<path id="Vector_5" d="M0.907684 106.152H106.092V0.967529H0.907684V106.152Z" fill="#FCD4CB"/>
</g>
</mask>
<g mask="url(#mask4_1_681)">
<path id="Fill-60" fill-rule="evenodd" clip-rule="evenodd" d="M74.3312 102.075L72.6615 104.521L77.5538 102.075H74.3312Z" fill="#FCD4CB"/>
</g>
</g>
<g id="Mask group_6">
<mask id="mask5_1_681" style="mask-type:luminance" maskUnits="userSpaceOnUse" x="0" y="0" width="107" height="107">
<g id="Group_6">
<path id="Vector_6" d="M0.907684 106.152H106.092V0.967529H0.907684V106.152Z" fill="#6654F1"/>
</g>
</mask>
<g mask="url(#mask5_1_681)">
<path id="Fill-61" fill-rule="evenodd" clip-rule="evenodd" d="M69.9031 84.899C69.7609 85.0116 69.542 84.9117 69.3948 84.9003C67.5746 84.7612 67.2953 83.4788 67.1268 81.7107C66.6701 76.9743 67.2488 66.7199 67.3683 62.9194C67.3683 62.9194 68.5407 62.4388 70.1949 61.3347C70.3282 61.2449 70.5685 61.3916 70.7081 61.4169C72.4227 61.7369 73.3612 62.7234 73.4769 64.6242C72.8731 69.1254 71.7812 77.3841 71.7963 81.0277C71.8126 84.6739 71.6692 83.4952 69.9031 84.899Z" fill="#6654F1"/>
</g>
</g>
<g id="Mask group_7">
<mask id="mask6_1_681" style="mask-type:luminance" maskUnits="userSpaceOnUse" x="0" y="0" width="107" height="107">
<g id="Group_7">
<path id="Vector_7" d="M0.907684 106.152H106.092V0.967529H0.907684V106.152Z" fill="#6654F1"/>
</g>
</mask>
<g mask="url(#mask6_1_681)">
<path id="Fill-62" fill-rule="evenodd" clip-rule="evenodd" d="M75.1077 97.4055C74.2155 97.8676 73.3798 98.3346 72.4962 98.8138C68.8918 91.9006 67.7366 90.0132 66.9538 81.9492C68.4568 81.7785 69.9942 81.7797 71.5057 81.6907C71.7355 88.8793 72.7789 92.1164 75.1077 97.4055Z" fill="#6654F1"/>
</g>
</g>
<g id="Mask group_8">
<mask id="mask7_1_681" style="mask-type:luminance" maskUnits="userSpaceOnUse" x="0" y="0" width="107" height="107">
<g id="Group_8">
<path id="Vector_8" d="M0.907684 106.152H106.092V0.967529H0.907684V106.152Z" fill="#887BF1"/>
</g>
</mask>
<g mask="url(#mask7_1_681)">
<path id="Fill-63" fill-rule="evenodd" clip-rule="evenodd" d="M69.4163 38.1899C69.2851 39.1553 69.9775 39.5637 70.3469 40.3287C70.7757 41.216 70.6118 41.908 70.1931 42.8116C69.6975 43.888 69.4239 45.0463 70.0077 46.1428C70.5121 47.088 71.5752 47.5796 71.9611 48.6169C72.4592 49.9541 71.5613 51.6064 72.3192 52.8151C72.6773 53.3873 73.3457 53.7074 74.014 53.8045C75.7505 54.0566 77.9939 53.1151 79.3205 54.7636C80.0872 55.7165 79.9296 57.1028 80.3722 58.2422C81.8955 62.1707 87.2057 60.434 88.0216 56.9919C88.4113 55.3497 87.9157 53.5537 86.8489 52.2454C85.4214 50.4986 82.0292 48.9446 83.3508 46.2045C83.7921 45.2883 84.7127 44.5547 84.7278 43.467C84.7429 42.2962 83.7076 41.5878 83.289 40.5808C82.5765 38.8642 84.0393 37.4161 83.951 35.7322C83.8148 33.1699 80.1313 30.6908 77.9623 29.9119C75.6408 29.0775 71.9169 29.3876 71.0947 32.1931C70.7996 33.2002 71.067 34.1152 70.6609 35.1348C70.2561 36.1532 69.5676 37.0821 69.4163 38.1899Z" fill="#887BF1"/>
</g>
</g>
<g id="Mask group_9">
<mask id="mask8_1_681" style="mask-type:luminance" maskUnits="userSpaceOnUse" x="0" y="0" width="107" height="107">
<g id="Group_9">
<path id="Vector_9" d="M0.907684 106.152H106.092V0.967529H0.907684V106.152Z" fill="#6654F1"/>
</g>
</mask>
<g mask="url(#mask8_1_681)">
<path id="Fill-64" fill-rule="evenodd" clip-rule="evenodd" d="M77.7026 61.306L67.7692 60.2663C67.7692 60.2663 68.1434 45.169 68.1459 45.1491C68.309 43.6546 69.3595 42.9086 70.7146 42.5604C71.4149 42.3807 72.1354 42.294 72.8484 42.175C73.2011 42.1168 74.5448 41.6322 74.809 41.7574L75.8608 42.2605C76.7734 42.6955 77.6937 43.0747 78.6355 43.444C79.9489 43.9595 80.9602 44.9595 80.7983 46.4429L77.7026 61.306Z" fill="#6654F1"/>
</g>
</g>
<g id="Mask group_10">
<mask id="mask9_1_681" style="mask-type:luminance" maskUnits="userSpaceOnUse" x="0" y="0" width="107" height="107">
<g id="Group_10">
<path id="Vector_10" d="M0.907684 106.152H106.092V0.967529H0.907684V106.152Z" fill="#6654F1"/>
</g>
</mask>
<g mask="url(#mask9_1_681)">
<path id="Fill-65" fill-rule="evenodd" clip-rule="evenodd" d="M74.6105 50.706L69.433 50.1174C68.3021 49.9888 67.543 48.818 67.8302 47.6459L68.4783 44.9983L75.1077 45.7527L74.6105 50.706Z" fill="#6654F1"/>
</g>
</g>
<g id="Mask group_11">
<mask id="mask10_1_681" style="mask-type:luminance" maskUnits="userSpaceOnUse" x="0" y="0" width="107" height="107">
<g id="Group_11">
<path id="Vector_11" d="M0.907684 106.152H106.092V0.967529H0.907684V106.152Z" fill="#887BF1"/>
</g>
</mask>
<g mask="url(#mask10_1_681)">
<path id="Fill-66" fill-rule="evenodd" clip-rule="evenodd" d="M75.9918 68.6445L67.7692 63.236L68.6187 58.8599C68.6187 58.8599 78.4998 59.2754 78.5121 59.2754C78.8803 59.2754 80.0098 63.7892 80 64.2969C79.9643 66.1214 77.7816 68.6445 75.9918 68.6445Z" fill="#887BF1"/>
</g>
</g>
<g id="Mask group_12">
<mask id="mask11_1_681" style="mask-type:luminance" maskUnits="userSpaceOnUse" x="0" y="0" width="107" height="107">
<g id="Group_12">
<path id="Vector_12" d="M0.907684 106.152H106.092V0.967529H0.907684V106.152Z" fill="#887BF1"/>
</g>
</mask>
<g mask="url(#mask11_1_681)">
<path id="Fill-67" fill-rule="evenodd" clip-rule="evenodd" d="M76.7777 83.3214H76.2777C74.7306 83.3214 74.2885 81.9534 74.2885 80.3384L73.4769 65.8837C73.4769 64.2686 74.7306 62.9599 76.2777 62.9599H76.7777C78.3249 62.9599 80 62.6536 80 64.2686L78.7669 80.3384C78.7669 81.9534 78.3249 83.3214 76.7777 83.3214Z" fill="#887BF1"/>
</g>
</g>
<g id="Mask group_13">
<mask id="mask12_1_681" style="mask-type:luminance" maskUnits="userSpaceOnUse" x="0" y="0" width="107" height="107">
<g id="Group_13">
<path id="Vector_13" d="M0.907684 106.152H106.092V0.967529H0.907684V106.152Z" fill="#887BF1"/>
</g>
</mask>
<g mask="url(#mask12_1_681)">
<path id="Fill-68" fill-rule="evenodd" clip-rule="evenodd" d="M77.5789 99.629H74.3398L73.4769 80.0598H78.3692L77.5789 99.629Z" fill="#887BF1"/>
</g>
</g>
<g id="Mask group_14">
<mask id="mask13_1_681" style="mask-type:luminance" maskUnits="userSpaceOnUse" x="0" y="0" width="107" height="107">
<g id="Group_14">
<path id="Vector_14" d="M0.907684 106.152H106.092V0.967529H0.907684V106.152Z" fill="#FCD4CB"/>
</g>
</mask>
<g mask="url(#mask13_1_681)">
<path id="Fill-69" fill-rule="evenodd" clip-rule="evenodd" d="M74.7793 43.3604C73.9789 43.2901 73.4002 42.6971 73.4852 42.036L73.8408 39.2905L76.7385 39.5462L76.3829 42.2917C76.2978 42.9527 75.5797 43.4318 74.7793 43.3604Z" fill="#FCD4CB"/>
</g>
</g>
<g id="Mask group_15">
<mask id="mask14_1_681" style="mask-type:luminance" maskUnits="userSpaceOnUse" x="0" y="0" width="107" height="107">
<g id="Group_15">
<path id="Vector_15" d="M0.907684 106.152H106.092V0.967529H0.907684V106.152Z" fill="#FC957E"/>
</g>
</mask>
<g mask="url(#mask14_1_681)">
<path id="Fill-70" fill-rule="evenodd" clip-rule="evenodd" d="M76.7385 38.747L73.8703 38.4751L73.4769 41.7366C74.7799 41.6717 76.1215 40.9418 76.508 39.8615C76.5949 39.6166 76.6529 39.363 76.6957 39.1071L76.7385 38.747Z" fill="#FC957E"/>
</g>
</g>
<g id="Mask group_16">
<mask id="mask15_1_681" style="mask-type:luminance" maskUnits="userSpaceOnUse" x="0" y="0" width="107" height="107">
<g id="Group_16">
<path id="Vector_16" d="M0.907684 106.152H106.092V0.967529H0.907684V106.152Z" fill="#FCD4CB"/>
</g>
</mask>
<g mask="url(#mask15_1_681)">
<path id="Fill-71" fill-rule="evenodd" clip-rule="evenodd" d="M73.1008 40.7611C72.8986 40.6842 72.7113 40.5702 72.5503 40.4087C72.0297 39.8909 71.8537 39.0758 71.8461 38.3581C71.8424 37.9787 72.4079 32.7676 72.4029 32.7676L77.5538 33.3315L77.2555 36.1959C77.1606 37.1059 77.1955 38.0748 76.9246 38.9527C76.464 40.4433 74.504 41.2956 73.1008 40.7611Z" fill="#FCD4CB"/>
</g>
</g>
<g id="Mask group_17">
<mask id="mask16_1_681" style="mask-type:luminance" maskUnits="userSpaceOnUse" x="0" y="0" width="107" height="107">
<g id="Group_17">
<path id="Vector_17" d="M0.907684 106.152H106.092V0.967529H0.907684V106.152Z" fill="#FC957E"/>
</g>
</mask>
<g mask="url(#mask16_1_681)">
<path id="Fill-72" fill-rule="evenodd" clip-rule="evenodd" d="M73.5655 37.6598C73.5606 37.6598 73.5541 37.6598 73.5475 37.6586C73.5068 37.6514 73.4823 37.6215 73.4921 37.5915L73.5589 37.3877L72.9833 37.3661C72.9556 37.365 72.9327 37.3542 72.9197 37.3374C72.9083 37.3206 72.9083 37.3002 72.9213 37.2834L73.903 36.0572C73.9226 36.0296 73.9699 36.0212 74.0058 36.0368C74.0417 36.0524 74.0531 36.0872 74.0319 36.1123L73.1137 37.2607L73.6584 37.281C73.6796 37.2822 73.7008 37.2894 73.7139 37.3038C73.7269 37.3158 73.7318 37.3338 73.7269 37.3494L73.6389 37.6179C73.6307 37.643 73.5997 37.6598 73.5655 37.6598Z" fill="#FC957E"/>
</g>
</g>
<g id="Mask group_18">
<mask id="mask17_1_681" style="mask-type:luminance" maskUnits="userSpaceOnUse" x="0" y="0" width="107" height="107">
<g id="Group_18">
<path id="Vector_18" d="M0.907684 106.152H106.092V0.967529H0.907684V106.152Z" fill="white"/>
</g>
</mask>
<g mask="url(#mask17_1_681)">
<path id="Fill-73" fill-rule="evenodd" clip-rule="evenodd" d="M72.6615 37.9243C72.7142 38.4902 73.0165 38.9533 73.4105 39.0186C73.8056 39.0838 74.1638 38.7299 74.2923 38.195L72.6615 37.9243Z" fill="white"/>
</g>
</g>
<g id="Mask group_19">
<mask id="mask18_1_681" style="mask-type:luminance" maskUnits="userSpaceOnUse" x="0" y="0" width="107" height="107">
<g id="Group_19">
<path id="Vector_19" d="M0.907684 106.152H106.092V0.967529H0.907684V106.152Z" fill="#FCD4CB"/>
</g>
</mask>
<g mask="url(#mask18_1_681)">
<path id="Fill-74" fill-rule="evenodd" clip-rule="evenodd" d="M78.1687 36.9287C78.1019 37.3773 77.549 37.7037 76.9326 37.655L77.1707 36.0291C77.7871 36.0765 78.234 36.4801 78.1687 36.9287Z" fill="#FCD4CB"/>
</g>
</g>
<g id="Mask group_20">
<mask id="mask19_1_681" style="mask-type:luminance" maskUnits="userSpaceOnUse" x="0" y="0" width="107" height="107">
<g id="Group_20">
<path id="Vector_20" d="M0.907684 106.152H106.092V0.967529H0.907684V106.152Z" fill="#887BF1"/>
</g>
</mask>
<g mask="url(#mask19_1_681)">
<path id="Fill-75" fill-rule="evenodd" clip-rule="evenodd" d="M78.6408 39.2906C78.6781 39.1946 78.7089 39.0975 78.7333 39.004C79.1339 37.4472 79.5152 35.7194 78.7166 34.3114C78.3237 33.6178 77.6804 33.0853 77.0025 32.6377C76.2039 32.1101 75.3372 31.6797 74.4269 31.3563C73.8928 31.1669 73.2777 31.0181 72.7719 31.2702C72.3289 31.4916 72.0195 32.0843 71.8461 32.773C72.4932 32.8824 73.0325 33.1861 73.3021 33.924C73.5256 34.5339 73.437 35.2755 73.9403 35.7711C74.4821 36.3035 75.2987 36.156 75.9664 36.4216C77.1052 36.8717 77.0988 38.1789 77.9295 38.8946C78.1286 39.0668 78.3725 39.1934 78.6408 39.2906Z" fill="#887BF1"/>
</g>
</g>
<g id="Mask group_21">
<mask id="mask20_1_681" style="mask-type:luminance" maskUnits="userSpaceOnUse" x="0" y="0" width="107" height="107">
<g id="Group_21">
<path id="Vector_21" d="M0.907684 106.152H106.092V0.967529H0.907684V106.152Z" fill="#310F57"/>
</g>
</mask>
<g mask="url(#mask20_1_681)">
<path id="Fill-76" fill-rule="evenodd" clip-rule="evenodd" d="M64.5794 59.365L62.8934 49.8906H62.0368H48.2412H47.3846L49.2692 60.4844H50.1258H58.0094L72.3648 60.4906L72.6615 59.365H64.5794Z" fill="#310F57"/>
</g>
</g>
<g id="Mask group_22">
<mask id="mask21_1_681" style="mask-type:luminance" maskUnits="userSpaceOnUse" x="0" y="0" width="107" height="107">
<g id="Group_22">
<path id="Vector_22" d="M0.907684 106.152H106.092V0.967529H0.907684V106.152Z" fill="#FCD4CB"/>
</g>
</mask>
<g mask="url(#mask21_1_681)">
<path id="Fill-77" fill-rule="evenodd" clip-rule="evenodd" d="M75.8983 56.2984L76.1685 56.3713C77.0055 56.5949 77.4229 55.903 77.6339 55.011L79.9527 47.1417C80.1625 46.2497 79.6547 45.3452 78.8176 45.1216L78.5475 45.0487C77.7093 44.8251 76.8606 45.3662 76.6508 46.2595L75.2097 54.3623C74.9998 55.2544 75.0613 56.0748 75.8983 56.2984Z" fill="#FCD4CB"/>
</g>
</g>
<g id="Mask group_23">
<mask id="mask22_1_681" style="mask-type:luminance" maskUnits="userSpaceOnUse" x="0" y="0" width="107" height="107">
<g id="Group_23">
<path id="Vector_23" d="M0.907684 106.152H106.092V0.967529H0.907684V106.152Z" fill="#FCD4CB"/>
</g>
</mask>
<g mask="url(#mask22_1_681)">
<path id="Fill-78" fill-rule="evenodd" clip-rule="evenodd" d="M66.1385 58.7914L66.9477 60.4906L76.7385 56.1924L75.8354 53.1521L66.1385 58.7914Z" fill="#FCD4CB"/>
</g>
</g>
<g id="Mask group_24">
<mask id="mask23_1_681" style="mask-type:luminance" maskUnits="userSpaceOnUse" x="0" y="0" width="107" height="107">
<g id="Group_24">
<path id="Vector_24" d="M0.907684 106.152H106.092V0.967529H0.907684V106.152Z" fill="#FCD4CB"/>
</g>
</mask>
<g mask="url(#mask23_1_681)">
<path id="Fill-79" fill-rule="evenodd" clip-rule="evenodd" d="M66.9516 59.8318C66.9908 59.9173 66.4941 60.4512 66.4305 60.5188C66.1198 60.8444 65.7161 61.043 65.3051 61.1506C64.7301 61.3024 64.083 61.3507 63.4971 61.261C63.201 61.2155 62.9087 61.1355 62.6298 61.0182C62.4842 60.9561 62.3423 60.8858 62.2065 60.8044L62.2028 60.803C62.0303 60.6981 62.0144 60.4264 62.1625 60.2843C62.2346 60.2139 62.2946 60.1518 62.3141 60.1353C62.5735 59.9159 62.823 59.6938 63.0983 59.5021C63.9191 58.9309 64.9895 57.8177 66.0317 58.0853C66.4317 58.8785 66.5516 59.0399 66.9516 59.8318Z" fill="#FCD4CB"/>
</g>
</g>
<g id="Mask group_25">
<mask id="mask24_1_681" style="mask-type:luminance" maskUnits="userSpaceOnUse" x="0" y="0" width="107" height="107">
<g id="Group_25">
<path id="Vector_25" d="M0.907684 106.152H106.092V0.967529H0.907684V106.152Z" fill="#6654F1"/>
</g>
</mask>
<g mask="url(#mask24_1_681)">
<path id="Fill-80" fill-rule="evenodd" clip-rule="evenodd" d="M78.6283 44.1829C77.4758 44.8283 76.7232 46.0791 76.3534 47.3882C75.9847 48.6985 75.9521 50.0829 75.9231 51.4492C77.0826 51.9816 78.2445 52.52 79.3576 53.1521C79.8437 51.454 80.2962 49.6186 80.6393 47.8841C80.7707 47.2228 80.8917 46.5397 80.7556 45.8797C80.5555 44.9061 79.5669 44.3603 78.6283 44.1829Z" fill="#6654F1"/>
</g>
</g>
<g id="Mask group_26">
<mask id="mask25_1_681" style="mask-type:luminance" maskUnits="userSpaceOnUse" x="0" y="0" width="107" height="107">
<g id="Group_26">
<path id="Vector_26" d="M0.907684 106.152H106.092V0.967529H0.907684V106.152Z" fill="#2B0D4D"/>
</g>
</mask>
<g mask="url(#mask25_1_681)">
<path id="Fill-81" fill-rule="evenodd" clip-rule="evenodd" d="M58.1836 45.7812C59.6546 45.2971 59.5243 41.9394 59.6135 40.9933C59.6428 40.6828 59.3247 41.4853 59.0629 41.3705C58.935 41.3144 58.7906 41.3509 58.6579 41.3887C57.6295 41.6823 54.8414 41.1369 54.7252 42.6376C54.6395 43.7337 57.1541 46.1192 58.1836 45.7812Z" fill="#2B0D4D"/>
</g>
</g>
<g id="Mask group_27">
<mask id="mask26_1_681" style="mask-type:luminance" maskUnits="userSpaceOnUse" x="0" y="0" width="107" height="107">
<g id="Group_27">
<path id="Vector_27" d="M0.907684 106.152H106.092V0.967529H0.907684V106.152Z" fill="#310F57"/>
</g>
</mask>
<g mask="url(#mask26_1_681)">
<path id="Fill-82" fill-rule="evenodd" clip-rule="evenodd" d="M63.4926 40.2702C63.4902 40.2575 63.4877 40.2448 63.4853 40.2321C63.2881 39.1324 62.9996 38.0593 62.655 37.0014C62.386 36.1756 62.1985 35.1989 61.5448 34.5977C61.2027 34.2805 60.4808 34.396 60.051 34.5698C56.4622 36.0247 52.8879 37.5214 49.3319 39.0626C49.181 39.1286 48.9862 39.4913 49.019 39.6575C49.4658 41.9331 50.9084 46.3815 51.7533 46.6086C52.1027 46.7012 52.6286 46.4538 52.9524 46.3524C56.1603 45.3579 59.7029 43.8687 62.8255 42.6181C64.0063 42.1449 63.7081 41.4701 63.4926 40.2702Z" fill="#310F57"/>
</g>
</g>
<g id="Mask group_28">
<mask id="mask27_1_681" style="mask-type:luminance" maskUnits="userSpaceOnUse" x="0" y="0" width="107" height="107">
<g id="Group_28">
<path id="Vector_28" d="M0.907684 106.152H106.092V0.967529H0.907684V106.152Z" fill="#FFCE0A"/>
</g>
</mask>
<g mask="url(#mask27_1_681)">
<path id="Fill-83" fill-rule="evenodd" clip-rule="evenodd" d="M61.9372 34.2529C61.5716 32.6745 61.4036 30.3266 62.1372 28.3254C63.045 25.8509 63.1542 23.0486 62.2586 20.35C60.1878 14.1061 53.5363 10.819 47.5006 13.1163C41.7446 15.3073 38.6826 21.9081 40.6344 27.9103C41.5164 30.6227 43.2609 32.7821 45.4458 34.1757C47.2246 35.3123 48.5961 37.016 49.2745 39.0576L49.3518 39.2905C53.5854 37.9843 57.9404 36.1996 61.9372 34.2529Z" fill="#FFCE0A"/>
</g>
</g>
<g id="Mask group_29">
<mask id="mask28_1_681" style="mask-type:luminance" maskUnits="userSpaceOnUse" x="0" y="0" width="107" height="107">
<g id="Group_29">
<path id="Vector_29" d="M0.907684 106.152H106.092V0.967529H0.907684V106.152Z" fill="white"/>
</g>
</mask>
<g mask="url(#mask28_1_681)">
<path id="Fill-84" fill-rule="evenodd" clip-rule="evenodd" d="M50.4698 31.855C50.3482 31.855 50.2304 31.8802 50.127 31.9376C49.8799 32.0776 49.7479 32.4102 49.8113 32.7285C49.8889 33.1173 50.1968 33.426 50.4413 33.6175C50.9937 34.0482 51.6068 34.1858 52.3274 34.1308C52.198 33.7922 52.0544 33.4583 51.8953 33.1317C51.7039 32.7357 51.4788 32.3336 51.1373 32.0824C50.9562 31.9496 50.7065 31.855 50.4698 31.855ZM53.3674 36.8444C53.1786 36.8444 53.013 36.7176 52.9832 36.5393C52.8849 35.9614 52.7478 35.3931 52.5731 34.8367C51.6676 34.9372 50.7569 34.8092 49.9368 34.1691C49.4478 33.7862 49.1387 33.3327 49.0442 32.8601C48.9213 32.2499 49.1995 31.6169 49.7208 31.3226C50.268 31.0151 51.0506 31.0953 51.6237 31.5176C52.0958 31.8658 52.3752 32.3564 52.6068 32.8362C52.7931 33.2202 52.9599 33.6115 53.1087 34.0111C53.4515 33.9357 53.815 33.8304 54.2031 33.7048C54.4049 33.6378 54.6287 33.7383 54.7011 33.9262C54.7723 34.1152 54.6649 34.321 54.4605 34.3868C54.0996 34.5029 53.7244 34.6165 53.3441 34.7039C53.5175 35.2674 53.6546 35.8429 53.7542 36.428C53.7865 36.6255 53.6417 36.8097 53.4282 36.8408C53.4075 36.8432 53.3881 36.8444 53.3674 36.8444Z" fill="white"/>
</g>
</g>
<g id="Mask group_30">
<mask id="mask29_1_681" style="mask-type:luminance" maskUnits="userSpaceOnUse" x="0" y="0" width="107" height="107">
<g id="Group_30">
<path id="Vector_30" d="M0.907684 106.152H106.092V0.967529H0.907684V106.152Z" fill="white"/>
</g>
</mask>
<g mask="url(#mask29_1_681)">
<path id="Fill-85" fill-rule="evenodd" clip-rule="evenodd" d="M56.3208 29.4525C56.2998 29.4525 56.2801 29.4525 56.2591 29.455C55.9019 29.4942 55.6313 29.8492 55.5472 30.1802C55.4422 30.5945 55.5315 31.0632 55.6444 31.5091C55.7377 31.8767 55.8454 32.2418 55.9702 32.6031C56.6111 32.1799 57.0025 31.6582 57.1378 31.0442C57.2048 30.7398 57.2442 30.2976 57.0446 29.9262C56.8935 29.6433 56.5967 29.4525 56.3208 29.4525ZM56.9933 36.0291C56.8594 36.0291 56.728 35.9634 56.6532 35.8447C56.2223 35.1549 55.852 34.4374 55.5446 33.6996C55.2031 33.8487 54.8262 33.9814 54.415 34.0963C54.2062 34.157 53.9856 34.0395 53.9238 33.8373C53.8621 33.6352 53.9829 33.4243 54.1931 33.3649C54.5897 33.2537 54.9483 33.1261 55.2675 32.9834C55.1164 32.5576 54.9851 32.1256 54.8748 31.6898C54.7382 31.1504 54.6318 30.573 54.7776 30.0008C54.9536 29.3034 55.5275 28.7678 56.1711 28.6983C56.8016 28.6326 57.4373 28.9952 57.7486 29.5776C58.0559 30.1486 58.0073 30.7764 57.9127 31.2034C57.7197 32.0751 57.1615 32.7901 56.2473 33.3396C56.5455 34.0673 56.908 34.7722 57.3335 35.4518C57.4452 35.6325 57.3847 35.8662 57.1969 35.9748C57.1339 36.0114 57.0629 36.0291 56.9933 36.0291Z" fill="white"/>
</g>
</g>
<g id="Mask group_31">
<mask id="mask30_1_681" style="mask-type:luminance" maskUnits="userSpaceOnUse" x="0" y="0" width="107" height="107">
<g id="Group_31">
<path id="Vector_31" d="M0.907684 106.152H106.092V0.967529H0.907684V106.152Z" fill="#FFCE0A"/>
</g>
</mask>
<g mask="url(#mask30_1_681)">
<path id="Fill-86" fill-rule="evenodd" clip-rule="evenodd" d="M49.1578 10.6284L47.781 10.9L45.8319 1.25661L46.4479 1.13272C46.5266 1.11645 46.6053 1.10143 46.6828 1.08641L47.2987 0.967529L49.1578 10.6284ZM41.4402 14.4352L34.902 7.09194L35.3706 6.67397C35.4305 6.62141 35.4905 6.5676 35.5505 6.51504L36.0228 6.10207L42.4922 13.5042L41.4402 14.4352ZM56.3482 11.5132L55.0288 11.0477L58.2186 1.7409L58.8121 1.94613C58.8895 1.97241 58.967 1.99869 59.0432 2.02622L59.6354 2.23646L56.3482 11.5132ZM37.7532 20.6998L28.4088 17.6601L28.6025 17.0619C28.6287 16.9806 28.655 16.8993 28.6837 16.8179L28.8849 16.2235L38.1917 19.3808L37.9893 19.9765C37.9743 20.0178 37.9606 20.0603 37.9469 20.1016L37.7532 20.6998ZM62.1268 15.9106L61.2209 14.8469L68.6574 8.41844L69.0685 8.89272C69.1222 8.9553 69.1747 9.01787 69.2284 9.08169L69.6332 9.56098L62.1268 15.9106ZM37.7257 27.958L28.1315 30.0729L27.9965 29.4609C27.9778 29.3783 27.9603 29.2958 27.9441 29.2144L27.8154 28.5987L37.4346 26.5927L37.7257 27.958ZM74.2923 19.4108L64.7418 21.721L64.5943 21.109C64.5844 21.064 64.5719 21.0202 64.5619 20.9751L64.4069 20.3657L73.9312 17.9479L74.0849 18.5561C74.1061 18.6362 74.1261 18.7176 74.1461 18.7989L74.2923 19.4108ZM34.1362 40.9214L33.7113 40.4596C33.6564 40.4008 33.6014 40.3407 33.5464 40.2794L33.1241 39.8139L40.417 33.2139L40.8368 33.682C40.8692 33.7182 40.9017 33.7533 40.9342 33.7883L41.359 34.2501L34.1362 40.9214ZM73.6351 31.8048L64.227 28.9654L64.4082 28.3635C64.4207 28.3197 64.4344 28.2746 64.4469 28.2296L64.6206 27.6251L74.0599 30.3595L73.8862 30.9626C73.8625 31.0427 73.8388 31.1228 73.815 31.2029L73.6351 31.8048Z" fill="#FFCE0A"/>
</g>
</g>
<g id="Mask group_32">
<mask id="mask31_1_681" style="mask-type:luminance" maskUnits="userSpaceOnUse" x="0" y="0" width="107" height="107">
<g id="Group_32">
<path id="Vector_32" d="M0.907684 106.152H106.092V0.967529H0.907684V106.152Z" fill="#FF99EC"/>
</g>
</mask>
<g mask="url(#mask31_1_681)">
<path id="Fill-87" fill-rule="evenodd" clip-rule="evenodd" d="M20.8525 68.2012C20.9372 67.9285 20.7877 67.6159 20.516 67.5051C20.2469 67.3968 19.959 67.5275 19.8768 67.8027C19.1939 70.0305 18.4749 72.2321 17.7185 74.4064C16.1795 72.4476 14.6069 70.5249 13.0007 68.6395C13.7346 66.2536 14.4237 63.8366 15.068 61.3896C15.1403 61.1144 14.977 60.8106 14.7029 60.7147C14.4287 60.6175 14.1483 60.762 14.0773 61.0397C13.4916 63.2886 12.8673 65.5139 12.2069 67.7118C9.62366 64.7207 6.95695 61.8217 4.21174 59.0186C4.00862 58.8131 3.68836 58.8069 3.49521 59.0012C3.30206 59.1967 3.30705 59.5205 3.50892 59.7259C6.24043 62.5141 8.89343 65.3994 11.4617 68.3756C9.23487 68.7603 7.01801 69.1713 4.81112 69.6109C4.54071 69.6632 4.36875 69.9296 4.42607 70.2024C4.48339 70.4738 4.74757 70.6519 5.01798 70.5996C7.41677 70.1326 9.82802 69.6993 12.2517 69.2971C13.8505 71.1749 15.4157 73.0876 16.9446 75.0352C14.7004 75.3142 12.4648 75.6205 10.238 75.9555C9.9651 75.9966 9.78067 76.2544 9.82678 76.5296C9.87288 76.806 10.1296 76.9965 10.4025 76.9579C12.8237 76.6055 15.2549 76.2855 17.6961 75.9991C19.2163 77.9591 20.6992 79.954 22.1472 81.9851C19.8892 82.1569 17.6387 82.3562 15.3982 82.5853C15.1216 82.6114 14.9284 82.863 14.9621 83.1419C14.9957 83.4209 15.2449 83.6251 15.5191 83.5989C17.9565 83.3611 20.4026 83.1581 22.8575 82.9875C24.293 85.0298 25.6924 87.1044 27.0545 89.2139C24.789 89.2774 22.5298 89.3708 20.2768 89.4915C20.0001 89.5052 19.7958 89.7493 19.817 90.0308C19.8394 90.3134 20.0799 90.5289 20.3553 90.5164C22.8027 90.3956 25.2588 90.3084 27.7224 90.2549C30.9985 95.3456 31.9804 92.9982 34.7979 98.4662C34.9337 98.7339 37.9917 99.6928 38.4154 96.5435C35.5829 91.0494 31.8446 94.8163 28.5523 89.702C29.5891 87.407 30.586 85.0771 31.543 82.7136C31.6502 82.4471 31.5268 82.1183 31.2664 81.9813C31.0059 81.8456 30.7081 81.9502 30.6022 82.2179C29.7299 84.3934 28.8227 86.539 27.8806 88.6535C26.5124 86.5353 25.1055 84.4495 23.6613 82.3973C24.5996 80.0686 25.4956 77.7063 26.3492 75.3117C26.4451 75.0415 26.3068 74.7214 26.0426 74.5982C25.7772 74.4749 25.4843 74.5944 25.3896 74.8646C24.6121 77.0675 23.7971 79.243 22.9472 81.3898C21.4918 79.3488 20.0001 77.344 18.4736 75.374C19.3098 73.0154 20.1036 70.6233 20.8525 68.2012Z" fill="#FF99EC"/>
</g>
</g>
<g id="Mask group_33">
<mask id="mask32_1_681" style="mask-type:luminance" maskUnits="userSpaceOnUse" x="0" y="0" width="107" height="107">
<g id="Group_33">
<path id="Vector_33" d="M0.907684 106.152H106.092V0.967529H0.907684V106.152Z" fill="#310F57"/>
</g>
</mask>
<g mask="url(#mask32_1_681)">
<path id="Fill-88" fill-rule="evenodd" clip-rule="evenodd" d="M18.814 65.9081C17.8295 66.748 17.766 68.269 18.6637 69.3247C19.5614 70.3792 21.1002 70.5926 22.1106 69.7813C23.121 68.9712 23.2026 67.4192 22.279 66.3349C21.3554 65.2518 19.7984 65.0695 18.814 65.9081Z" fill="#310F57"/>
</g>
</g>
<g id="Mask group_34">
<mask id="mask33_1_681" style="mask-type:luminance" maskUnits="userSpaceOnUse" x="0" y="0" width="107" height="107">
<g id="Group_34">
<path id="Vector_34" d="M0.907684 106.152H106.092V0.967529H0.907684V106.152Z" fill="#310F57"/>
</g>
</mask>
<g mask="url(#mask33_1_681)">
<path id="Fill-89" fill-rule="evenodd" clip-rule="evenodd" d="M8.29416 74.9074C7.27077 75.7689 7.13987 77.2906 7.99402 78.3299C8.84684 79.3692 10.3819 79.5535 11.4318 78.7234C12.4803 77.8946 12.627 76.3389 11.7478 75.2696C10.8698 74.2002 9.31755 74.0472 8.29416 74.9074Z" fill="#310F57"/>
</g>
</g>
<g id="Mask group_35">
<mask id="mask34_1_681" style="mask-type:luminance" maskUnits="userSpaceOnUse" x="0" y="0" width="107" height="107">
<g id="Group_35">
<path id="Vector_35" d="M0.907684 106.152H106.092V0.967529H0.907684V106.152Z" fill="#310F57"/>
</g>
</mask>
<g mask="url(#mask34_1_681)">
<path id="Fill-90" fill-rule="evenodd" clip-rule="evenodd" d="M16.4815 63.1887C17.4511 62.3287 17.464 60.7699 16.4957 59.7248C15.5286 58.681 13.972 58.5698 13.0282 59.4573C12.0844 60.3449 12.0908 61.8712 13.0308 62.8887C13.9707 63.905 15.5118 64.0488 16.4815 63.1887Z" fill="#310F57"/>
</g>
</g>
<g id="Mask group_36">
<mask id="mask35_1_681" style="mask-type:luminance" maskUnits="userSpaceOnUse" x="0" y="0" width="107" height="107">
<g id="Group_36">
<path id="Vector_36" d="M0.907684 106.152H106.092V0.967529H0.907684V106.152Z" fill="#310F57"/>
</g>
</mask>
<g mask="url(#mask35_1_681)">
<path id="Fill-91" fill-rule="evenodd" clip-rule="evenodd" d="M3.32285 68.4597C2.33677 69.3679 2.27456 70.8978 3.16931 71.8968C4.0667 72.8943 5.60736 73.0061 6.61858 72.1268C7.6298 71.2475 7.70922 69.6847 6.78668 68.6569C5.86281 67.6304 4.30892 67.5515 3.32285 68.4597Z" fill="#310F57"/>
</g>
</g>
<g id="Mask group_37">
<mask id="mask36_1_681" style="mask-type:luminance" maskUnits="userSpaceOnUse" x="0" y="0" width="107" height="107">
<g id="Group_37">
<path id="Vector_37" d="M0.907684 106.152H106.092V0.967529H0.907684V106.152Z" fill="#310F57"/>
</g>
</mask>
<g mask="url(#mask36_1_681)">
<path id="Fill-92" fill-rule="evenodd" clip-rule="evenodd" d="M23.7881 73.1804C22.7625 73.9714 22.6326 75.4809 23.4856 76.5721C24.3373 77.6646 25.8707 77.9463 26.921 77.1848C27.9701 76.4245 28.1207 74.883 27.243 73.7623C26.3666 72.6428 24.8138 72.3906 23.7881 73.1804Z" fill="#310F57"/>
</g>
</g>
<g id="Mask group_38">
<mask id="mask37_1_681" style="mask-type:luminance" maskUnits="userSpaceOnUse" x="0" y="0" width="107" height="107">
<g id="Group_38">
<path id="Vector_38" d="M0.907684 106.152H106.092V0.967529H0.907684V106.152Z" fill="#310F57"/>
</g>
</mask>
<g mask="url(#mask37_1_681)">
<path id="Fill-93" fill-rule="evenodd" clip-rule="evenodd" d="M13.2685 81.3595C12.2072 82.1691 12.0129 83.6843 12.8205 84.7616C13.6293 85.8376 15.1558 86.0949 16.2422 85.3165C17.326 84.5368 17.5388 82.993 16.7074 81.8845C15.8748 80.776 14.3298 80.5499 13.2685 81.3595Z" fill="#310F57"/>
</g>
</g>
<g id="Mask group_39">
<mask id="mask38_1_681" style="mask-type:luminance" maskUnits="userSpaceOnUse" x="0" y="0" width="107" height="107">
<g id="Group_39">
<path id="Vector_39" d="M0.907684 106.152H106.092V0.967529H0.907684V106.152Z" fill="#310F57"/>
</g>
</mask>
<g mask="url(#mask38_1_681)">
<path id="Fill-94" fill-rule="evenodd" clip-rule="evenodd" d="M1.57669 57.9199C0.653298 58.8647 0.692536 60.396 1.65255 61.3628C2.61257 62.3269 4.1533 62.3836 5.10286 61.4659C6.05372 60.5494 6.03017 58.9846 5.04269 57.992C4.05521 56.9982 2.49878 56.9763 1.57669 57.9199Z" fill="#310F57"/>
</g>
</g>
</g>
</g>
</g>
</g>
</g>
<defs>
<clipPath id="clip0_1_681">
<rect width="106" height="106" fill="white" transform="translate(0.5 0.559814)"/>
</clipPath>
</defs>
</svg>
