<svg width="133" height="107" viewBox="0 0 133 107" fill="none" xmlns="http://www.w3.org/2000/svg">
<g id="Group115.svg" clip-path="url(#clip0_1_1490)">
<g id="Marshmello_landing-page">
<g id="Simple_landngpage">
<g id="Group-4">
<g id="Group-115">
<g id="Group-3">
<g id="Mask group">
<mask id="mask0_1_1490" style="mask-type:luminance" maskUnits="userSpaceOnUse" x="24" y="0" width="108" height="101">
<g id="Group">
<path id="Vector" d="M24.2311 0.947998H131.913V100.758H24.2311V0.947998Z" fill="#FF99EC"/>
</g>
</mask>
<g mask="url(#mask0_1_1490)">
<path id="Fill-1" fill-rule="evenodd" clip-rule="evenodd" d="M130.514 61.3261C130.325 60.7579 130.115 60.1995 129.884 59.6495C127.75 54.5623 124.541 49.9956 122.125 45.0361C116.825 34.1531 120.823 21.9416 113.625 11.4641C106.921 1.70917 95.2128 -1.65939 84.3021 3.05322C69.0222 9.65145 59.0489 24.2888 44.2848 31.5801C38.8076 34.285 32.7399 36.4456 28.8258 41.1231C25.4516 45.1553 24.1633 50.5961 24.2338 55.8418C24.4664 73.2276 37.5222 98.7815 58.5739 95.072C69.4112 93.1611 76.3993 89.1935 87.3085 94.1979C93.0041 96.8117 98.5729 100.224 104.827 100.702C110.987 101.174 117.172 98.6075 121.698 94.4196C130.289 86.4731 134.231 72.4615 130.514 61.3261Z" fill="#FF99EC"/>
</g>
</g>
</g>
<path id="Fill-4" fill-rule="evenodd" clip-rule="evenodd" d="M71.3141 71.3683C71.4311 69.5514 73.0294 67.8931 74.7687 67.0667C78.3375 65.3691 82.6166 64.9875 85.5595 62.11C88.4531 59.2816 89.4088 54.9015 87.9556 51.133C85.8809 45.754 79.9893 44.2767 74.6954 45.1044C74.0203 45.2097 73.3029 45.3514 72.6743 45.0834C71.8666 44.7397 71.4649 43.8179 71.3494 42.9509C70.5967 37.3165 71.4607 31.1784 68.398 26.0814C65.0082 20.4386 57.4211 19.0931 51.7396 22.1432C47.6902 24.3179 45.6465 28.1298 44.9107 32.5253C44.4231 35.4407 46.3498 43.4349 42.9896 45.1591C42.4343 45.444 41.7775 45.451 41.1517 45.4131C35.504 45.0609 30.4004 44.8842 27.9916 51.133C25.9549 56.4125 28.6033 62.3345 33.9071 64.3604L41.7521 67.3585C43.4252 67.9969 44.5274 69.5935 44.5274 71.3767C44.5288 76.9353 39.0812 74.9402 35.7197 74.8799C32.1143 74.8154 29.3588 78.1755 28.2086 81.2649C25.2234 89.2871 31.394 94.8514 38.1763 97.9225C46.619 101.744 56.1681 102.998 65.338 101.719C72.9688 100.656 85.1466 97.5507 88.0134 89.2703C88.969 86.5036 88.7534 83.3862 87.592 80.6981C86.8238 78.9219 85.6244 77.2902 83.9852 76.252C81.2649 74.5278 77.6708 76.0332 74.7433 75.3036C73.2451 74.9318 71.8145 73.9006 71.417 72.4163C71.324 72.0641 71.2916 71.7134 71.3141 71.3683Z" fill="#24C8D1"/>
<path id="Fill-6" fill-rule="evenodd" clip-rule="evenodd" d="M57.6214 59.2902C57.5833 59.2902 57.5424 59.2845 57.5044 59.2719L48.9912 56.6834C48.7798 56.6189 48.66 56.3958 48.7249 56.1839C48.7869 55.9735 49.0138 55.8486 49.2252 55.9188L57.7384 58.5073C57.9498 58.5718 58.0696 58.7949 58.0047 59.0067C57.9526 59.1793 57.7933 59.2902 57.6214 59.2902Z" fill="#D9E8FF"/>
<path id="Fill-8" fill-rule="evenodd" clip-rule="evenodd" d="M57.6214 87.2669C57.5833 87.2669 57.5424 87.2613 57.5044 87.2487L48.9912 84.6602C48.7798 84.5956 48.66 84.3726 48.7249 84.1607C48.7869 83.9503 49.0138 83.8268 49.2252 83.8956L57.7384 86.4841C57.9498 86.5486 58.0696 86.7717 58.0047 86.9835C57.9526 87.1561 57.7933 87.2669 57.6214 87.2669Z" fill="#D9E8FF"/>
<path id="Fill-10" fill-rule="evenodd" clip-rule="evenodd" d="M58.311 59.2902C58.1391 59.2902 57.9798 59.1793 57.9276 59.0067C57.8628 58.7949 57.9826 58.5718 58.194 58.5073L66.7072 55.9188C66.9172 55.8486 67.1441 55.9735 67.2075 56.1839C67.2724 56.3958 67.1526 56.6189 66.9411 56.6834L58.428 59.2719C58.39 59.2845 58.3491 59.2902 58.311 59.2902Z" fill="#D9E8FF"/>
<path id="Fill-12" fill-rule="evenodd" clip-rule="evenodd" d="M58.311 87.2669C58.1391 87.2669 57.9798 87.1561 57.9276 86.9835C57.8628 86.7717 57.9826 86.5486 58.194 86.4841L66.7072 83.8956C66.9172 83.8268 67.1441 83.9503 67.2075 84.1607C67.2724 84.3726 67.1526 84.5956 66.9411 84.6602L58.428 87.2487C58.39 87.2613 58.3491 87.2669 58.311 87.2669Z" fill="#D9E8FF"/>
<path id="Fill-14" fill-rule="evenodd" clip-rule="evenodd" d="M58.311 98.3319C58.0897 98.3319 57.9093 98.1524 57.9093 97.9321V40.7802C57.9093 40.56 58.0897 40.3804 58.311 40.3804C58.5323 40.3804 58.7127 40.56 58.7127 40.7802V97.9321C58.7127 98.1524 58.5323 98.3319 58.311 98.3319Z" fill="#D9E8FF"/>
<g id="Group-18">
<g id="Mask group_2">
<mask id="mask1_1_1490" style="mask-type:luminance" maskUnits="userSpaceOnUse" x="0" y="38" width="54" height="63">
<g id="Group_2">
<path id="Vector_2" d="M0.769989 38.7075H53.2088V100.166H0.769989V38.7075Z" fill="#1B00EB"/>
</g>
</mask>
<g mask="url(#mask1_1_1490)">
<path id="Fill-16" fill-rule="evenodd" clip-rule="evenodd" d="M31.5175 53.7564C36.8354 59.5619 41.4358 66.0241 45.1512 72.8931C47.9673 77.4457 57.615 95.937 50.8482 99.6872C43.9193 103.419 29.1003 84.2277 24.9973 80.5856C20.7548 76.1438 16.7294 71.5364 12.9042 66.7466C9.44394 62.337 2.97452 55.938 1.19296 50.4987C-0.303882 45.8309 2.3163 41.1492 6.70536 39.3548C12.945 36.7999 19.468 42.3459 24.2517 46.6222C26.7944 48.867 29.2229 51.2507 31.5175 53.7564Z" fill="#1B00EB"/>
</g>
</g>
</g>
<path id="Fill-19" fill-rule="evenodd" clip-rule="evenodd" d="M44.7491 90.2852C44.6166 90.2852 44.4869 90.2207 44.4122 90.1014C34.1401 74.2463 21.975 59.609 8.25394 46.5978C8.09326 46.4449 8.08622 46.1923 8.24126 46.0324C8.39207 45.8724 8.65 45.8668 8.80786 46.0183C22.5755 59.0745 34.7814 73.7609 45.0859 89.6693C45.2071 89.8545 45.1536 90.1014 44.9661 90.2221C44.8985 90.2642 44.8238 90.2852 44.7491 90.2852Z" fill="#D9E8FF"/>
<path id="Fill-21" fill-rule="evenodd" clip-rule="evenodd" d="M26.1577 78.1296C25.9745 78.1296 25.8096 78.0048 25.7659 77.8196C25.7166 77.6035 25.8519 77.3889 26.0689 77.3398C28.1634 76.8614 30.3016 76.397 32.4256 75.9592C32.6483 75.9171 32.8555 76.0546 32.9006 76.2693C32.9457 76.4854 32.8062 76.6972 32.5877 76.7421C30.4707 77.1784 28.3368 77.6428 26.2465 78.1198C26.2169 78.1268 26.1873 78.1296 26.1577 78.1296Z" fill="#D9E8FF"/>
<path id="Fill-23" fill-rule="evenodd" clip-rule="evenodd" d="M36.0667 74.0645C36.0046 74.0645 35.9426 74.0505 35.8848 74.021C35.6861 73.92 35.6086 73.6801 35.7087 73.4823C36.691 71.5616 37.6678 69.5974 38.6121 67.6459C38.708 67.4466 38.9504 67.3639 39.1491 67.4593C39.3479 67.5547 39.4324 67.7946 39.3352 67.9924C38.388 69.9496 37.4099 71.9193 36.4247 73.8456C36.3542 73.9845 36.2132 74.0645 36.0667 74.0645Z" fill="#D9E8FF"/>
<path id="Fill-25" fill-rule="evenodd" clip-rule="evenodd" d="M20.9699 71.7197C20.7923 71.7197 20.6302 71.6019 20.5823 71.4237C20.5245 71.209 20.6514 70.9902 20.867 70.9326C22.9728 70.3743 25.094 69.8327 27.1701 69.3276C27.383 69.2729 27.6028 69.4076 27.6564 69.6209C27.7085 69.8369 27.5761 70.053 27.3604 70.1049C25.2899 70.6086 23.1743 71.1473 21.0728 71.7057C21.039 71.7155 21.0037 71.7197 20.9699 71.7197Z" fill="#D9E8FF"/>
<path id="Fill-27" fill-rule="evenodd" clip-rule="evenodd" d="M30.7275 67.3067C30.6711 67.3067 30.6133 67.2941 30.5583 67.2688C30.3568 67.1762 30.2694 66.9377 30.3624 66.7385C31.2786 64.7785 32.1834 62.7807 33.0559 60.8011C33.1447 60.599 33.3829 60.5078 33.5844 60.5962C33.7888 60.6846 33.8804 60.9203 33.7916 61.1238C32.9178 63.1076 32.0087 65.111 31.0925 67.0752C31.0235 67.2211 30.8783 67.3067 30.7275 67.3067Z" fill="#D9E8FF"/>
<path id="Fill-29" fill-rule="evenodd" clip-rule="evenodd" d="M15.5551 65.4973C15.3831 65.4973 15.2238 65.3865 15.1717 65.2139C15.1069 65.0021 15.2267 64.779 15.4381 64.7145C17.4987 64.0887 19.5988 63.4728 21.682 62.8878C21.892 62.8246 22.1175 62.9523 22.1767 63.1628C22.2373 63.376 22.1133 63.5977 21.899 63.6566C19.8215 64.2417 17.727 64.8548 15.6721 65.4791C15.634 65.4917 15.5931 65.4973 15.5551 65.4973Z" fill="#D9E8FF"/>
<path id="Fill-31" fill-rule="evenodd" clip-rule="evenodd" d="M25.1488 60.741C25.0967 60.741 25.0445 60.7312 24.9924 60.7102C24.788 60.6232 24.6922 60.3889 24.7781 60.1854C25.614 58.2171 26.4484 56.1884 27.2588 54.1582C27.3405 53.952 27.5717 53.8524 27.7803 53.9324C27.9875 54.0151 28.0876 54.248 28.0044 54.4529C27.1926 56.49 26.3553 58.5229 25.5195 60.4969C25.4547 60.6498 25.3053 60.741 25.1488 60.741Z" fill="#D9E8FF"/>
<path id="Fill-33" fill-rule="evenodd" clip-rule="evenodd" d="M9.91864 59.4675C9.75232 59.4675 9.59587 59.3636 9.53808 59.1981C9.46761 58.989 9.57896 58.7618 9.78756 58.6888C11.8383 57.9859 13.9159 57.2985 15.9638 56.6433C16.1668 56.5759 16.4007 56.691 16.4684 56.9014C16.536 57.1119 16.4205 57.3363 16.2091 57.4051C14.1682 58.0575 12.0948 58.7435 10.0497 59.445C10.006 59.4604 9.96233 59.4675 9.91864 59.4675Z" fill="#D9E8FF"/>
<path id="Fill-35" fill-rule="evenodd" clip-rule="evenodd" d="M19.3375 54.3763C19.2896 54.3763 19.2417 54.3679 19.1937 54.3496C18.988 54.2711 18.8837 54.041 18.9612 53.8333C19.7237 51.8411 20.4834 49.7843 21.2234 47.7205C21.2995 47.5115 21.532 47.4035 21.7364 47.4778C21.9464 47.5522 22.0549 47.7809 21.9802 47.9885C21.2403 50.0579 20.4778 52.1203 19.7138 54.1181C19.6532 54.2781 19.4996 54.3763 19.3375 54.3763Z" fill="#D9E8FF"/>
<path id="Fill-37" fill-rule="evenodd" clip-rule="evenodd" d="M31.1142 84.7199C30.9239 84.7199 30.7562 84.5866 30.7196 84.3958C30.6773 84.1783 30.8211 83.9679 31.0381 83.9272C33.1706 83.5203 35.3243 83.1317 37.4413 82.7739C37.671 82.7403 37.8683 82.8834 37.905 83.1008C37.943 83.3183 37.7951 83.5259 37.5766 83.5624C35.4652 83.9188 33.3158 84.306 31.1903 84.7129C31.1635 84.7171 31.1396 84.7199 31.1142 84.7199Z" fill="#D9E8FF"/>
<path id="Fill-39" fill-rule="evenodd" clip-rule="evenodd" d="M41.1635 81.0098C41.0973 81.0098 41.0297 80.9929 40.969 80.9592C40.7759 80.8526 40.7055 80.6085 40.8126 80.4163C41.8641 78.5251 42.9099 76.5974 43.9219 74.6851C44.0248 74.4887 44.27 74.4157 44.4645 74.5167C44.6604 74.6206 44.7351 74.8619 44.6322 75.0569C43.6188 76.9748 42.5702 78.9081 41.5145 80.8035C41.4412 80.9354 41.3045 81.0098 41.1635 81.0098Z" fill="#D9E8FF"/>
<path id="Fill-41" fill-rule="evenodd" clip-rule="evenodd" d="M37.3164 90.5943C37.1205 90.5943 36.9486 90.4526 36.919 90.2548C36.8851 90.036 37.0373 89.8325 37.2558 89.7988C38.7386 89.5744 40.2241 89.3611 41.7139 89.1591C41.9268 89.1254 42.1354 89.2825 42.165 89.5014C42.196 89.7203 42.0423 89.9223 41.8211 89.9518C40.3369 90.1538 38.8541 90.3657 37.377 90.5901C37.3559 90.5929 37.3362 90.5943 37.3164 90.5943Z" fill="#D9E8FF"/>
<path id="Fill-43" fill-rule="evenodd" clip-rule="evenodd" d="M45.502 87.5156C45.4315 87.5156 45.3596 87.4974 45.2962 87.4581C45.1059 87.3459 45.0439 87.1004 45.1567 86.911C45.9601 85.5711 46.755 84.2228 47.5387 82.8676C47.6486 82.674 47.8952 82.608 48.0883 82.7202C48.28 82.8297 48.3463 83.0738 48.2349 83.266C47.4484 84.6255 46.6507 85.978 45.8473 87.3206C45.7712 87.4455 45.6387 87.5156 45.502 87.5156Z" fill="#D9E8FF"/>
<path id="Fill-45" fill-rule="evenodd" clip-rule="evenodd" d="M5.87887 52.9878C5.71678 52.9878 5.56315 52.8896 5.50254 52.7283C5.42502 52.522 5.52932 52.2919 5.73651 52.2134C7.14033 51.6873 8.54979 51.1696 9.96207 50.6617C10.1721 50.5873 10.4018 50.6953 10.4779 50.903C10.5512 51.1106 10.4441 51.3393 10.2355 51.4137C8.82464 51.9202 7.42081 52.4364 6.02122 52.9612C5.9733 52.9794 5.92538 52.9878 5.87887 52.9878Z" fill="#D9E8FF"/>
<path id="Fill-47" fill-rule="evenodd" clip-rule="evenodd" d="M13.2386 48.2766C13.1963 48.2766 13.1512 48.2696 13.109 48.2555C12.899 48.184 12.7876 47.9567 12.8581 47.7477C13.3627 46.2703 13.8574 44.7874 14.3394 43.2974C14.4085 43.087 14.6354 42.9719 14.8468 43.0393C15.0568 43.1066 15.1724 43.3325 15.1048 43.5415C14.6199 45.0357 14.1252 46.5243 13.6192 48.0058C13.5614 48.1714 13.4064 48.2766 13.2386 48.2766Z" fill="#D9E8FF"/>
<path id="Fill-49" fill-rule="evenodd" clip-rule="evenodd" d="M23.1585 105.416C23.1839 104.852 23.2191 104.288 23.2741 103.725C23.9027 97.3319 27.0092 90.5962 32.9712 88.1382C39.3955 85.488 46.6993 88.597 52.5697 92.3051C56.1652 94.5765 60.3105 97.2127 64.3584 95.9009C68.5558 94.5386 70.288 89.7208 71.8582 85.6128C74.281 79.2714 78.1218 72.8148 84.4897 70.3947C90.2882 68.1906 97.1072 69.9752 101.923 73.8741C106.739 77.7716 109.766 83.4943 111.589 89.3995C113.109 94.3211 113.88 99.4504 115.481 104.345C115.598 104.703 115.722 105.06 115.85 105.416H23.1585Z" fill="#FF99EC"/>
<path id="Fill-51" fill-rule="evenodd" clip-rule="evenodd" d="M42.0719 78.1585L42.85 81.8862L46.9684 81.0346L46.189 77.3069L42.0719 78.1585Z" fill="#FCD4CB"/>
<path id="Fill-53" fill-rule="evenodd" clip-rule="evenodd" d="M43.18 88.0321L41.6945 88.3394L40.2625 81.4732C40.4556 81.3511 40.6501 81.2305 40.8446 81.1098C40.6261 81.1098 40.4048 81.1098 40.1863 81.1098L39.6747 78.6546L42.0722 78.158L42.8502 81.8871L43.18 88.0321Z" fill="#887BF1"/>
<path id="Fill-55" fill-rule="evenodd" clip-rule="evenodd" d="M69.5564 102.786L73.3817 102.867L73.4705 98.6822L69.6452 98.6008L69.5564 102.786Z" fill="#FCD4CB"/>
<path id="Fill-57" fill-rule="evenodd" clip-rule="evenodd" d="M79.4708 103.925L79.4398 105.435L72.3939 105.285C72.3206 105.069 72.2459 104.854 72.1698 104.639C72.1205 104.851 72.0726 105.065 72.0232 105.276L69.5045 105.223L69.5567 102.786L73.3819 102.868L79.4708 103.925Z" fill="#6654F1"/>
<path id="Fill-59" fill-rule="evenodd" clip-rule="evenodd" d="M72.3271 78.9982L72.9698 79.0333C74.9628 79.1399 76.6654 77.6177 76.7725 75.6339L78.4611 53.9648C78.5682 51.981 76.3131 54.1248 74.3201 54.0195L73.6774 53.9845C71.6844 53.8778 69.9818 55.4001 69.8746 57.3839L68.912 75.213C68.8049 77.1968 70.3341 78.8916 72.3271 78.9982Z" fill="#6654F1"/>
<path id="Fill-61" fill-rule="evenodd" clip-rule="evenodd" d="M68.6728 99.0648L74.4431 99.3734L76.7729 75.6336L69.3592 75.4792L68.6728 99.0648Z" fill="#6654F1"/>
<path id="Fill-63" fill-rule="evenodd" clip-rule="evenodd" d="M62.5256 51.9815H78.4609V33.0805C78.4609 31.1991 77.0176 30.1721 75.4052 29.5618C74.5708 29.2462 73.6984 29.0455 72.84 28.8042C72.4157 28.6864 70.8343 27.9077 70.4932 28.0298L69.1359 28.518C67.959 28.9417 66.7821 29.2925 65.5771 29.6292C63.8998 30.1006 62.5256 31.2132 62.5256 33.0805V51.9815Z" fill="#1B00EB"/>
<path id="Fill-65" fill-rule="evenodd" clip-rule="evenodd" d="M66.509 57.9296H74.4767C76.6768 57.9296 78.4598 56.1548 78.4598 53.9648V51.981H62.5258V53.9648C62.5258 56.1548 64.3088 57.9296 66.509 57.9296Z" fill="#887BF1"/>
<path id="Fill-67" fill-rule="evenodd" clip-rule="evenodd" d="M66.2351 78.1755H66.8792C68.875 78.1755 70.4931 76.5649 70.4931 74.5783V56.7239C70.4931 54.7359 68.875 53.1267 66.8792 53.1267H66.2351C64.2393 53.1267 62.5254 51.9776 62.5254 53.9643L62.6213 74.5783C62.6213 76.5649 64.2393 78.1755 66.2351 78.1755Z" fill="#887BF1"/>
<path id="Fill-69" fill-rule="evenodd" clip-rule="evenodd" d="M44.5234 76.7028L45.6989 82.3344L67.0057 78.124L68.036 71.8401L44.5234 76.7028Z" fill="#887BF1"/>
<path id="Fill-71" fill-rule="evenodd" clip-rule="evenodd" d="M70.7373 30.3537C71.607 30.2569 72.2342 29.4754 72.1369 28.6084L71.7324 25.0083L68.5795 25.359L68.984 28.9591C69.0812 29.8275 69.8663 30.4505 70.7373 30.3537Z" fill="#FCD4CB"/>
<path id="Fill-73" fill-rule="evenodd" clip-rule="evenodd" d="M68.4814 24.4958L71.6343 24.145L72.0882 28.166C70.6548 28.093 69.1734 27.2007 68.7436 25.8693C68.6449 25.5676 68.5786 25.2562 68.5321 24.9391L68.4814 24.4958Z" fill="#FC957E"/>
<path id="Fill-75" fill-rule="evenodd" clip-rule="evenodd" d="M72.6685 27.1299C72.9137 27.0373 73.1406 26.9012 73.3365 26.7104C73.9652 26.0973 74.1752 25.1362 74.1794 24.2888C74.1822 23.8413 73.462 17.7018 73.469 17.7004L67.2096 18.3977C67.3365 19.5229 67.4633 20.6481 67.5888 21.7747C67.7086 22.8452 67.6733 23.9886 68.0088 25.0212C68.5768 26.7763 70.9672 27.7696 72.6685 27.1299Z" fill="#FCD4CB"/>
<path id="Fill-77" fill-rule="evenodd" clip-rule="evenodd" d="M72.5144 23.8026C72.4834 23.8026 72.4538 23.7815 72.4468 23.7493L72.3636 23.4112C72.358 23.3915 72.3622 23.3691 72.3735 23.3536C72.3861 23.3354 72.4059 23.3256 72.427 23.3242L72.933 23.2975L72.0718 21.8538C72.0521 21.8216 72.0634 21.7781 72.0958 21.7584C72.1282 21.7388 72.1719 21.75 72.1916 21.7837L73.1134 23.3242C73.1261 23.3452 73.1261 23.3705 73.1148 23.3929C73.1036 23.414 73.081 23.428 73.057 23.4294L72.5186 23.4589L72.5821 23.7156C72.5919 23.7535 72.568 23.7914 72.5313 23.8012C72.5257 23.8026 72.52 23.8026 72.5144 23.8026Z" fill="#FC957E"/>
<path id="Fill-79" fill-rule="evenodd" clip-rule="evenodd" d="M73.515 23.7656C73.4417 24.2903 73.009 24.7225 72.441 24.7856C71.873 24.8487 71.3557 24.5232 71.1668 24.028L73.515 23.7656Z" fill="white"/>
<path id="Fill-81" fill-rule="evenodd" clip-rule="evenodd" d="M70.7498 18.8961C71.463 18.9508 72.2508 19.3057 72.7864 19.4418C74.4172 19.8529 75.9112 18.9466 76.4877 17.4005C76.9091 16.2697 76.5483 14.7979 75.4658 14.262C74.6779 13.872 73.7167 14.0459 72.9217 14.4219C72.1282 14.7965 71.4334 15.3535 70.661 15.7688C69.9647 16.1406 69.2022 16.3679 68.4115 16.257C67.7814 16.1673 67.2895 15.9456 66.637 16.215C65.8547 16.5362 65.3755 17.4538 65.5559 18.2759C65.694 18.8989 66.1606 19.5344 65.8914 20.1138C65.7194 20.4856 65.2937 20.6806 65.0894 21.037C64.3917 22.2604 65.9717 22.1818 66.5073 22.5929C67.0866 23.0391 66.7554 23.8388 67.0542 24.4042C67.1909 24.6609 67.4136 24.8166 67.656 24.8756C68.1451 24.9934 68.7159 24.7212 68.816 24.1123C68.8865 23.6914 68.6765 23.2818 68.5214 22.8847C68.365 22.4877 68.2677 22.0023 68.5256 21.6627C68.7103 21.4186 69.0345 21.3092 69.2022 21.0552C69.5785 20.4912 69.1218 19.6972 69.6363 19.2159C70.224 18.666 70.8343 18.9213 71.4841 19.0728C72.2833 19.2608 73.1374 19.1458 73.8012 18.6407" fill="#6654F1"/>
<path id="Fill-83" fill-rule="evenodd" clip-rule="evenodd" d="M125.805 74.7237C125.585 74.7237 125.406 74.5483 125.404 74.328L125.273 63.4086C125.27 63.1884 125.447 63.006 125.67 63.0032H125.674C125.894 63.0032 126.073 63.1799 126.076 63.3988L126.207 74.3182C126.21 74.5399 126.032 74.7209 125.81 74.7237H125.805Z" fill="#D9E8FF"/>
<path id="Fill-85" fill-rule="evenodd" clip-rule="evenodd" d="M127.534 79.0483L124.191 79.0876C123.878 79.0918 123.662 78.7761 123.782 78.4885L125.406 74.5447C125.553 74.1898 126.056 74.1842 126.211 74.5349L127.929 78.4394C128.056 78.7242 127.849 79.0455 127.534 79.0483Z" fill="#310F57"/>
<path id="Fill-87" fill-rule="evenodd" clip-rule="evenodd" d="M86.8924 67.8827L72.7231 57.6929L81.4857 39.1721L95.6536 49.362L86.8924 67.8827Z" fill="#310F57"/>
<path id="Fill-89" fill-rule="evenodd" clip-rule="evenodd" d="M86.8925 67.8828L103.809 72.2643L112.571 53.7422L95.6537 49.3621L86.8925 67.8828Z" fill="#310F57"/>
<path id="Fill-91" fill-rule="evenodd" clip-rule="evenodd" d="M99.6809 40.8513L64.2274 34.5828L92.8929 55.1996L127.119 64.0636L99.6809 40.8513Z" fill="#2B0D4D"/>
<path id="Fill-93" fill-rule="evenodd" clip-rule="evenodd" d="M81.3193 49.2624L80.2975 51.2855L67.9506 46.166L69.0894 42.5449L81.3193 49.2624Z" fill="#FCD4CB"/>
<path id="Fill-95" fill-rule="evenodd" clip-rule="evenodd" d="M80.0571 51.177C80.0078 51.2738 80.6392 51.8743 80.721 51.9487C81.117 52.3163 81.6315 52.5379 82.153 52.66C82.8873 52.8297 83.7104 52.8845 84.4575 52.7834C84.8352 52.7329 85.2059 52.6431 85.5625 52.5113C85.7471 52.4411 85.9275 52.3626 86.1009 52.27C86.1037 52.27 86.1065 52.2686 86.1065 52.2686C86.325 52.1521 86.3461 51.8463 86.1573 51.6849C86.0657 51.6063 85.9881 51.5376 85.9628 51.5194C85.6344 51.271 85.3158 51.0213 84.9649 50.8066C83.919 50.1641 82.5547 48.9112 81.2284 49.2129C80.7196 50.1037 80.5659 50.2861 80.0571 51.177Z" fill="#FCD4CB"/>
<path id="Fill-97" fill-rule="evenodd" clip-rule="evenodd" d="M69.5633 41.5193L66.1045 42.535L66.7077 44.4459C66.9896 45.5655 67.5506 46.4339 68.6753 46.1533L69.039 46.0621C70.1651 45.7815 70.2469 44.7518 69.965 43.6322L69.5633 41.5193Z" fill="#FCD4CB"/>
<path id="Fill-99" fill-rule="evenodd" clip-rule="evenodd" d="M118.786 74.1831C118.543 73.9573 118.157 73.9797 117.923 74.2379C114.739 77.7327 111.655 81.3398 108.678 85.0548C107.778 82.4425 106.922 79.7979 106.11 77.1224C106.012 76.7913 105.668 76.6313 105.341 76.759C105.014 76.8881 104.832 77.2599 104.932 77.5882C105.823 80.498 106.767 83.3713 107.764 86.2053C105.912 88.5469 104.103 90.9305 102.339 93.3549C101.325 90.7762 100.354 88.1639 99.4282 85.5178C99.3154 85.1923 98.963 85.0464 98.6417 85.1909C98.3189 85.3354 98.1526 85.7185 98.2682 86.0426C99.2858 88.9187 100.354 91.7555 101.472 94.553C99.7213 96.9914 98.0145 99.4705 96.3527 101.989C95.228 99.448 94.1455 96.8722 93.1039 94.2598C92.9756 93.9399 92.6191 93.8095 92.3047 93.9708C91.989 94.1307 91.8382 94.5208 91.9679 94.8421C93.1081 97.6817 94.2991 100.479 95.538 103.235C95.0673 103.957 94.6022 104.685 94.1399 105.416H95.5648C95.8876 104.911 96.2089 104.408 96.5359 103.907C99.5057 103.997 102.467 104.13 105.418 104.302C105.751 104.321 106.041 104.064 106.071 103.727C106.098 103.39 105.852 103.097 105.518 103.078C102.802 102.906 100.079 102.77 97.3464 102.668C98.9997 100.161 100.697 97.6943 102.439 95.2686C105.399 95.5 108.347 95.7722 111.285 96.0837C111.614 96.1188 111.916 95.8774 111.958 95.5435C112.002 95.2096 111.768 94.908 111.435 94.8715C108.735 94.5727 106.022 94.3075 103.301 94.076C105.056 91.6629 106.856 89.2919 108.697 86.9615C111.64 87.3333 114.57 87.7444 117.486 88.1933C117.816 88.2424 118.125 88.0179 118.181 87.6882C118.237 87.3585 118.019 87.0457 117.689 86.9952C115.007 86.5701 112.312 86.1772 109.607 85.8181C112.569 82.1212 115.637 78.5324 118.803 75.0558C119.035 74.799 119.028 74.409 118.786 74.1831Z" fill="#887BF1"/>
<path id="Fill-101" fill-rule="evenodd" clip-rule="evenodd" d="M100.632 83.1244C101.815 84.0939 101.957 85.9262 100.965 87.2394C99.9724 88.5512 98.1965 88.8781 96.9857 87.9437C95.775 87.0107 95.6087 85.1419 96.6291 83.7936C97.651 82.4454 99.4495 82.1564 100.632 83.1244Z" fill="#1B00EB"/>
<path id="Fill-103" fill-rule="evenodd" clip-rule="evenodd" d="M113.229 93.159C114.431 94.099 114.647 95.8373 113.722 97.0649C112.796 98.2897 111.061 98.5689 109.831 97.664C108.602 96.7605 108.365 94.9857 109.318 93.7244C110.269 92.4604 112.027 92.219 113.229 93.159Z" fill="#1B00EB"/>
<path id="Fill-105" fill-rule="evenodd" clip-rule="evenodd" d="M103.571 79.4196C102.404 78.4334 102.316 76.5674 103.394 75.2738C104.471 73.9803 106.277 73.7783 107.416 74.7982C108.553 75.8196 108.618 77.6477 107.571 78.9076C106.525 80.166 104.738 80.4073 103.571 79.4196Z" fill="#1B00EB"/>
<path id="Fill-107" fill-rule="evenodd" clip-rule="evenodd" d="M119.551 85.3775C120.709 86.3694 120.85 88.1077 119.875 89.2848C118.901 90.4591 117.156 90.6527 115.968 89.6959C114.78 88.739 114.622 86.9629 115.624 85.7535C116.629 84.5441 118.391 84.3842 119.551 85.3775Z" fill="#1B00EB"/>
<path id="Fill-109" fill-rule="evenodd" clip-rule="evenodd" d="M94.2054 91.8011C95.4302 92.7173 95.6515 94.5496 94.7156 95.9147C93.7783 97.2798 92.0179 97.6923 90.7663 96.8126C89.5147 95.9329 89.2681 94.0641 90.2321 92.6626C91.1934 91.261 92.9806 90.8864 94.2054 91.8011Z" fill="#1B00EB"/>
<path id="Fill-111" fill-rule="evenodd" clip-rule="evenodd" d="M107.239 101.272C108.482 102.159 108.771 103.894 107.9 105.171C107.027 106.446 105.302 106.808 104.032 105.96C102.762 105.108 102.452 103.34 103.349 102.027C104.248 100.714 105.994 100.387 107.239 101.272Z" fill="#1B00EB"/>
<path id="Fill-113" fill-rule="evenodd" clip-rule="evenodd" d="M120.336 72.4205C121.438 73.4756 121.463 75.256 120.403 76.4218C119.343 77.5835 117.574 77.7168 116.44 76.6926C115.308 75.6699 115.263 73.8516 116.354 72.6562C117.445 71.4595 119.233 71.3655 120.336 72.4205Z" fill="#1B00EB"/>
</g>
</g>
</g>
</g>
</g>
<defs>
<clipPath id="clip0_1_1490">
<rect width="131.47" height="105.991" fill="white" transform="translate(0.769989 0.564209)"/>
</clipPath>
</defs>
</svg>
